SplineFontDB: 3.0
FontName: UbuntuFaust-LightItalic
FullName: Ubuntu Faust Light Italic
FamilyName: Ubuntu derivative Faust
Weight: Light
Copyright: Copyright 2011 Canonical Ltd.  Licensed under the Ubuntu Font Licence 1.0\nAdditional Glyphs 2017 by Thorsten Vitt
Version: 0.83
ItalicAngle: -13
UnderlinePosition: -133
UnderlineWidth: 20
Ascent: 800
Descent: 200
InvalidEm: 0
sfntRevision: 0x0000d47b
LayerCount: 2
Layer: 0 1 "Back" 1
Layer: 1 1 "Fore" 0
XUID: [1021 205 319277455 1781946]
StyleMap: 0x0001
FSType: 0
OS2Version: 3
OS2_WeightWidthSlopeOnly: 0
OS2_UseTypoMetrics: 0
CreationTime: 1298466264
ModificationTime: 1525431454
PfmFamily: 17
TTFWeight: 300
TTFWidth: 5
LineGap: 28
VLineGap: 0
Panose: 2 11 3 4 3 6 2 10 2 4
OS2TypoAscent: 776
OS2TypoAOffset: 0
OS2TypoDescent: -185
OS2TypoDOffset: 0
OS2TypoLinegap: 56
OS2WinAscent: 932
OS2WinAOffset: 0
OS2WinDescent: 189
OS2WinDOffset: 0
HheadAscent: 932
HheadAOffset: 0
HheadDescent: -189
HheadDOffset: 0
OS2SubXSize: 700
OS2SubYSize: 650
OS2SubXOff: 0
OS2SubYOff: 140
OS2SupXSize: 700
OS2SupYSize: 650
OS2SupXOff: 0
OS2SupYOff: 477
OS2StrikeYSize: 50
OS2StrikeYPos: 250
OS2CapHeight: 693
OS2XHeight: 517
OS2Vendor: 'DAMA'
OS2CodePages: 2000009f.56010000
OS2UnicodeRanges: e00002ff.5000205b.00000000.00000000
Lookup: 1 0 0 "'locl' Localized Forms in Latin lookup 0" { "'locl' Localized Forms in Latin lookup 0 subtable"  } ['locl' ('latn' <'AZE ' > ) ]
Lookup: 1 0 0 "'locl' Localized Forms in Latin lookup 1" { "'locl' Localized Forms in Latin lookup 1 subtable"  } ['locl' ('latn' <'TRK ' > ) ]
Lookup: 1 0 0 "'locl' Localized Forms in Latin lookup 2" { "'locl' Localized Forms in Latin lookup 2 subtable"  } ['locl' ('latn' <'CRT ' > ) ]
Lookup: 1 0 0 "'locl' Localized Forms in Cyrillic lookup 3" { "'locl' Localized Forms in Cyrillic lookup 3 subtable"  } ['locl' ('cyrl' <'SRB ' > ) ]
Lookup: 1 0 0 "'locl' Localized Forms in Cyrillic lookup 4" { "'locl' Localized Forms in Cyrillic lookup 4 subtable"  } ['locl' ('cyrl' <'BGR ' > ) ]

StartChar: .notdef
Encoding: 65536 -1 0
Width: 500
Flags: W
LayerCount: 2
Fore
SplineSet
50 0 m 1,0,-1
 50 750 l 1,1,-1
 450 750 l 1,2,-1
 450 0 l 1,3,-1
 50 0 l 1,0,-1
400 50 m 1,4,-1
 400 700 l 1,5,-1
 100 700 l 1,6,-1
 100 50 l 1,7,-1
 400 50 l 1,4,-1
EndSplineSet
EndChar

StartChar: exclam
Encoding: 33 33 4
Width: 226
Flags: W
LayerCount: 2
Fore
SplineSet
147 213 m 1,0,1
 155 279 155 279 166 347 c 128,-1,2
 177 415 177 415 197 500 c 2,3,-1
 243 693 l 1,4,-1
 313 693 l 1,5,-1
 267 499 l 2,6,7
 263 482 263 482 253 445 c 128,-1,8
 243 408 243 408 230.5 365 c 128,-1,9
 218 322 218 322 205.5 280 c 128,-1,10
 193 238 193 238 183 213 c 1,11,-1
 147 213 l 1,0,1
123 -12 m 0,12,13
 97 -12 97 -12 85 2.5 c 128,-1,14
 73 17 73 17 73 36 c 0,15,16
 73 58 73 58 88 77.5 c 128,-1,17
 103 97 103 97 130 97 c 0,18,19
 156 97 156 97 168 82.5 c 128,-1,20
 180 68 180 68 180 49 c 0,21,22
 180 27 180 27 165 7.5 c 128,-1,23
 150 -12 150 -12 123 -12 c 0,12,13
EndSplineSet
EndChar

StartChar: numbersign
Encoding: 35 35 6
Width: 623
Flags: W
LayerCount: 2
Fore
SplineSet
609 503 m 1,0,-1
 695 503 l 1,1,-1
 681 449 l 1,2,-1
 586 449 l 1,3,-1
 498 243 l 1,4,-1
 633 243 l 1,5,-1
 619 189 l 1,6,-1
 475 189 l 1,7,-1
 394 0 l 1,8,-1
 332 0 l 1,9,-1
 413 189 l 1,10,-1
 238 189 l 1,11,-1
 157 0 l 1,12,-1
 95 0 l 1,13,-1
 176 189 l 1,14,-1
 88 189 l 1,15,-1
 101 243 l 1,16,-1
 200 243 l 1,17,-1
 289 449 l 1,18,-1
 150 449 l 1,19,-1
 163 503 l 1,20,-1
 312 503 l 1,21,-1
 394 693 l 1,22,-1
 456 693 l 1,23,-1
 374 503 l 1,24,-1
 547 503 l 1,25,-1
 629 693 l 1,26,-1
 691 693 l 1,27,-1
 609 503 l 1,0,-1
262 243 m 1,28,-1
 436 243 l 1,29,-1
 524 449 l 1,30,-1
 350 449 l 1,31,-1
 262 243 l 1,28,-1
EndSplineSet
EndChar

StartChar: dollar
Encoding: 36 36 7
Width: 564
Flags: W
LayerCount: 2
Fore
SplineSet
258 25 m 1,0,1
 235 24 235 24 210.5 28.5 c 128,-1,2
 186 33 186 33 163.5 39.5 c 128,-1,3
 141 46 141 46 123.5 53.5 c 128,-1,4
 106 61 106 61 98 67 c 1,5,-1
 130 121 l 1,6,7
 138 116 138 116 151 109 c 128,-1,8
 164 102 164 102 183 95 c 128,-1,9
 202 88 202 88 226 83.5 c 128,-1,10
 250 79 250 79 279 79 c 0,11,12
 312 79 312 79 345 86 c 128,-1,13
 378 93 378 93 403.5 108.5 c 128,-1,14
 429 124 429 124 445 149.5 c 128,-1,15
 461 175 461 175 461 211 c 0,16,17
 461 244 461 244 443.5 264.5 c 128,-1,18
 426 285 426 285 399.5 300 c 128,-1,19
 373 315 373 315 342 328 c 128,-1,20
 311 341 311 341 284.5 360 c 128,-1,21
 258 379 258 379 240.5 407 c 128,-1,22
 223 435 223 435 223 481 c 0,23,24
 223 556 223 556 272 601 c 128,-1,25
 321 646 321 646 410 658 c 1,26,-1
 438 776 l 1,27,-1
 498 776 l 1,28,-1
 471 663 l 1,29,30
 517 661 517 661 552 648 c 128,-1,31
 587 635 587 635 604 624 c 1,32,-1
 572 569 l 1,33,34
 560 577 560 577 529 589.5 c 128,-1,35
 498 602 498 602 444 602 c 0,36,37
 411 602 411 602 382.5 595.5 c 128,-1,38
 354 589 354 589 332 575.5 c 128,-1,39
 310 562 310 562 297.5 540.5 c 128,-1,40
 285 519 285 519 285 490 c 0,41,42
 285 456 285 456 303 435 c 128,-1,43
 321 414 321 414 347.5 398.5 c 128,-1,44
 374 383 374 383 405 369.5 c 128,-1,45
 436 356 436 356 462.5 337.5 c 128,-1,46
 489 319 489 319 507 290.5 c 128,-1,47
 525 262 525 262 525 218 c 0,48,49
 525 176 525 176 510 142.5 c 128,-1,50
 495 109 495 109 467.5 84.5 c 128,-1,51
 440 60 440 60 401.5 44.5 c 128,-1,52
 363 29 363 29 317 24 c 1,53,-1
 285 -109 l 1,54,-1
 226 -109 l 1,55,-1
 258 25 l 1,0,1
EndSplineSet
EndChar

StartChar: percent
Encoding: 37 37 8
Width: 785
Flags: W
LayerCount: 2
Fore
SplineSet
275 400 m 0,0,1
 311 400 311 400 335.5 419 c 128,-1,2
 360 438 360 438 375.5 464.5 c 128,-1,3
 391 491 391 491 398 519.5 c 128,-1,4
 405 548 405 548 405 568 c 0,5,6
 405 587 405 587 403 603 c 128,-1,7
 401 619 401 619 394 631 c 128,-1,8
 387 643 387 643 375 649.5 c 128,-1,9
 363 656 363 656 342 656 c 0,10,11
 306 656 306 656 281.5 637 c 128,-1,12
 257 618 257 618 242 591.5 c 128,-1,13
 227 565 227 565 220.5 536 c 128,-1,14
 214 507 214 507 214 488 c 0,15,16
 214 470 214 470 216 454 c 128,-1,17
 218 438 218 438 224 426 c 128,-1,18
 230 414 230 414 242 407 c 128,-1,19
 254 400 254 400 275 400 c 0,0,1
709 693 m 1,20,-1
 779 693 l 1,21,-1
 231 0 l 1,22,-1
 161 0 l 1,23,-1
 709 693 l 1,20,-1
158 480 m 0,24,25
 158 515 158 515 169.5 555 c 128,-1,26
 181 595 181 595 204 628.5 c 128,-1,27
 227 662 227 662 262 684.5 c 128,-1,28
 297 707 297 707 345 707 c 0,29,30
 402 707 402 707 431.5 673.5 c 128,-1,31
 461 640 461 640 461 577 c 0,32,33
 461 542 461 542 449.5 502 c 128,-1,34
 438 462 438 462 415 428 c 128,-1,35
 392 394 392 394 356.5 371.5 c 128,-1,36
 321 349 321 349 273 349 c 0,37,38
 216 349 216 349 187 383 c 128,-1,39
 158 417 158 417 158 480 c 0,24,25
601 36 m 0,40,41
 637 36 637 36 661.5 55 c 128,-1,42
 686 74 686 74 701.5 100.5 c 128,-1,43
 717 127 717 127 724 155.5 c 128,-1,44
 731 184 731 184 731 204 c 0,45,46
 731 223 731 223 729 239 c 128,-1,47
 727 255 727 255 720 267 c 128,-1,48
 713 279 713 279 701 285.5 c 128,-1,49
 689 292 689 292 668 292 c 0,50,51
 632 292 632 292 607.5 273 c 128,-1,52
 583 254 583 254 568 227.5 c 128,-1,53
 553 201 553 201 546.5 172 c 128,-1,54
 540 143 540 143 540 124 c 0,55,56
 540 106 540 106 542 90 c 128,-1,57
 544 74 544 74 550 62 c 128,-1,58
 556 50 556 50 568 43 c 128,-1,59
 580 36 580 36 601 36 c 0,40,41
484 116 m 0,60,61
 484 151 484 151 495.5 191 c 128,-1,62
 507 231 507 231 530 264.5 c 128,-1,63
 553 298 553 298 588 320.5 c 128,-1,64
 623 343 623 343 671 343 c 0,65,66
 728 343 728 343 757.5 309.5 c 128,-1,67
 787 276 787 276 787 213 c 0,68,69
 787 178 787 178 775.5 138 c 128,-1,70
 764 98 764 98 741 64 c 128,-1,71
 718 30 718 30 682.5 7.5 c 128,-1,72
 647 -15 647 -15 599 -15 c 0,73,74
 542 -15 542 -15 513 19 c 128,-1,75
 484 53 484 53 484 116 c 0,60,61
EndSplineSet
EndChar

StartChar: ampersand
Encoding: 38 38 9
Width: 634
Flags: W
LayerCount: 2
Fore
SplineSet
555 0 m 1,0,1
 547 23 547 23 534 45 c 128,-1,2
 521 67 521 67 505 90 c 1,3,4
 453 42 453 42 393.5 16.5 c 128,-1,5
 334 -9 334 -9 271 -9 c 0,6,7
 229 -9 229 -9 197 4.5 c 128,-1,8
 165 18 165 18 143 40.5 c 128,-1,9
 121 63 121 63 109.5 93 c 128,-1,10
 98 123 98 123 98 157 c 0,11,12
 98 189 98 189 107.5 218.5 c 128,-1,13
 117 248 117 248 139.5 276 c 128,-1,14
 162 304 162 304 199.5 329.5 c 128,-1,15
 237 355 237 355 292 379 c 1,16,17
 269 414 269 414 258 449.5 c 128,-1,18
 247 485 247 485 247 519 c 0,19,20
 247 558 247 558 261 592.5 c 128,-1,21
 275 627 275 627 300.5 652.5 c 128,-1,22
 326 678 326 678 362.5 693 c 128,-1,23
 399 708 399 708 444 708 c 0,24,25
 474 708 474 708 498.5 698 c 128,-1,26
 523 688 523 688 541 671 c 128,-1,27
 559 654 559 654 568.5 630.5 c 128,-1,28
 578 607 578 607 578 580 c 0,29,30
 578 554 578 554 570.5 527.5 c 128,-1,31
 563 501 563 501 542.5 474.5 c 128,-1,32
 522 448 522 448 485.5 421 c 128,-1,33
 449 394 449 394 391 366 c 2,34,-1
 382 361 l 1,35,-1
 513 181 l 1,36,37
 536 210 536 210 557 245.5 c 128,-1,38
 578 281 578 281 596 324 c 1,39,-1
 656 317 l 1,40,41
 636 263 636 263 608 217.5 c 128,-1,42
 580 172 580 172 548 134 c 1,43,44
 570 102 570 102 588.5 70.5 c 128,-1,45
 607 39 607 39 623 0 c 1,46,-1
 555 0 l 1,0,1
276 51 m 0,47,48
 324 51 324 51 374 72 c 128,-1,49
 424 93 424 93 471 136 c 1,50,-1
 324 335 l 1,51,52
 297 322 297 322 268.5 307 c 128,-1,53
 240 292 240 292 216.5 272 c 128,-1,54
 193 252 193 252 178.5 226 c 128,-1,55
 164 200 164 200 164 165 c 0,56,57
 164 145 164 145 169.5 125 c 128,-1,58
 175 105 175 105 187.5 88.5 c 128,-1,59
 200 72 200 72 221.5 61.5 c 128,-1,60
 243 51 243 51 276 51 c 0,47,48
310 527 m 0,61,62
 310 496 310 496 320.5 463.5 c 128,-1,63
 331 431 331 431 351 403 c 1,64,65
 404 426 404 426 436.5 448 c 128,-1,66
 469 470 469 470 486.5 491.5 c 128,-1,67
 504 513 504 513 510 534 c 128,-1,68
 516 555 516 555 516 575 c 0,69,70
 516 613 516 613 493 632.5 c 128,-1,71
 470 652 470 652 438 652 c 0,72,73
 405 652 405 652 381 642 c 128,-1,74
 357 632 357 632 341 615 c 128,-1,75
 325 598 325 598 317.5 575 c 128,-1,76
 310 552 310 552 310 527 c 0,61,62
EndSplineSet
Substitution2: "'ss02' Style Set 2 in Latin lookup 26 subtable" ampersand.001
EndChar

StartChar: quotesingle
Encoding: 39 39 10
Width: 206
Flags: W
LayerCount: 2
Fore
SplineSet
198 518 m 1,0,1
 202 569 202 569 209 620.5 c 128,-1,2
 216 672 216 672 229 723 c 2,3,-1
 238 760 l 1,4,-1
 308 760 l 1,5,-1
 299 722 l 2,6,7
 286 672 286 672 269 619 c 128,-1,8
 252 566 252 566 231 518 c 1,9,-1
 198 518 l 1,0,1
EndSplineSet
EndChar

StartChar: parenleft
Encoding: 40 40 11
Width: 302
Flags: W
LayerCount: 2
Fore
SplineSet
193 -179 m 1,0,1
 161 -103 161 -103 144.5 -27.5 c 128,-1,2
 128 48 128 48 128 128 c 0,3,4
 128 217 128 217 147.5 306 c 128,-1,5
 167 395 167 395 205.5 479.5 c 128,-1,6
 244 564 244 564 300 641 c 128,-1,7
 356 718 356 718 429 783 c 1,8,-1
 474 750 l 1,9,10
 405 688 405 688 352 615 c 128,-1,11
 299 542 299 542 263 462.5 c 128,-1,12
 227 383 227 383 208.5 299.5 c 128,-1,13
 190 216 190 216 190 133 c 0,14,15
 190 61 190 61 203 -11.5 c 128,-1,16
 216 -84 216 -84 243 -151 c 1,17,-1
 193 -179 l 1,0,1
EndSplineSet
Substitution2: "'case' Case-Sensitive Forms lookup 18 subtable" Parenleft
EndChar

StartChar: parenright
Encoding: 41 41 12
Width: 302
Flags: W
LayerCount: 2
Fore
SplineSet
-22 -153 m 1,0,1
 47 -91 47 -91 100 -19.5 c 128,-1,2
 153 52 153 52 189 130.5 c 128,-1,3
 225 209 225 209 243.5 292.5 c 128,-1,4
 262 376 262 376 262 461 c 0,5,6
 262 534 262 534 248.5 609 c 128,-1,7
 235 684 235 684 206 753 c 1,8,-1
 258 779 l 1,9,10
 291 702 291 702 307.5 626.5 c 128,-1,11
 324 551 324 551 324 470 c 0,12,13
 324 380 324 380 304.5 291 c 128,-1,14
 285 202 285 202 246.5 117.5 c 128,-1,15
 208 33 208 33 152 -44 c 128,-1,16
 96 -121 96 -121 23 -186 c 1,17,-1
 -22 -153 l 1,0,1
EndSplineSet
Substitution2: "'case' Case-Sensitive Forms lookup 18 subtable" Parenright
EndChar

StartChar: asterisk
Encoding: 42 42 13
Width: 430
Flags: W
LayerCount: 2
Fore
SplineSet
185 361 m 1,0,1
 199 382 199 382 213 398.5 c 128,-1,2
 227 415 227 415 241 430 c 128,-1,3
 255 445 255 445 271 460 c 128,-1,4
 287 475 287 475 306 492 c 1,5,6
 282 494 282 494 260.5 496.5 c 128,-1,7
 239 499 239 499 218.5 502.5 c 128,-1,8
 198 506 198 506 177 512 c 128,-1,9
 156 518 156 518 133 527 c 1,10,-1
 155 591 l 1,11,12
 201 576 201 576 235.5 559.5 c 128,-1,13
 270 543 270 543 313 521 c 1,14,15
 309 545 309 545 306 565.5 c 128,-1,16
 303 586 303 586 300.5 606 c 128,-1,17
 298 626 298 626 296.5 647 c 128,-1,18
 295 668 295 668 295 693 c 1,19,-1
 365 693 l 1,20,21
 365 668 365 668 363.5 647 c 128,-1,22
 362 626 362 626 359.5 606 c 128,-1,23
 357 586 357 586 354 565.5 c 128,-1,24
 351 545 351 545 347 521 c 1,25,26
 390 543 390 543 424.5 559.5 c 128,-1,27
 459 576 459 576 505 591 c 1,28,-1
 527 527 l 1,29,30
 480 508 480 508 441 502 c 128,-1,31
 402 496 402 496 353 492 c 1,32,33
 372 475 372 475 388 460 c 128,-1,34
 404 445 404 445 418.5 430 c 128,-1,35
 433 415 433 415 447 398.5 c 128,-1,36
 461 382 461 382 475 361 c 1,37,-1
 418 322 l 1,38,39
 404 343 404 343 393 362 c 128,-1,40
 382 381 382 381 371.5 399 c 128,-1,41
 361 417 361 417 351 435.5 c 128,-1,42
 341 454 341 454 330 476 c 1,43,44
 318 454 318 454 308 435.5 c 128,-1,45
 298 417 298 417 287.5 399 c 128,-1,46
 277 381 277 381 265.5 362 c 128,-1,47
 254 343 254 343 241 322 c 1,48,-1
 185 361 l 1,49,-1
 185 361 l 1,0,1
EndSplineSet
EndChar

StartChar: plus
Encoding: 43 43 14
Width: 564
Flags: W
LayerCount: 2
Fore
SplineSet
319 261 m 1,0,-1
 128 261 l 1,1,-1
 142 317 l 1,2,-1
 332 317 l 1,3,-1
 385 534 l 1,4,-1
 444 534 l 1,5,-1
 391 317 l 1,6,-1
 581 317 l 1,7,-1
 567 261 l 1,8,-1
 378 261 l 1,9,-1
 325 43 l 1,10,-1
 267 43 l 1,11,-1
 319 261 l 1,0,-1
EndSplineSet
EndChar

StartChar: comma
Encoding: 44 44 15
Width: 238
Flags: W
LayerCount: 2
Fore
SplineSet
13 -133 m 1,0,1
 33 -108 33 -108 50 -77 c 128,-1,2
 67 -46 67 -46 79.5 -14.5 c 128,-1,3
 92 17 92 17 99.5 45.5 c 128,-1,4
 107 74 107 74 110 95 c 1,5,-1
 180 95 l 1,6,7
 174 62 174 62 161.5 27 c 128,-1,8
 149 -8 149 -8 131.5 -41 c 128,-1,9
 114 -74 114 -74 94 -104 c 128,-1,10
 74 -134 74 -134 53 -157 c 1,11,-1
 13 -133 l 1,0,1
EndSplineSet
EndChar

StartChar: hyphen
Encoding: 45 45 16
Width: 279
Flags: W
LayerCount: 2
Fore
SplineSet
94 321 m 1,0,-1
 322 321 l 1,1,-1
 307 258 l 1,2,-1
 79 258 l 1,3,-1
 94 321 l 1,0,-1
EndSplineSet
Substitution2: "'case' Case-Sensitive Forms lookup 18 subtable" Hyphen
EndChar

StartChar: period
Encoding: 46 46 17
Width: 243
Flags: W
LayerCount: 2
Fore
SplineSet
128 -13 m 0,0,1
 102 -13 102 -13 90 1.5 c 128,-1,2
 78 16 78 16 78 35 c 0,3,4
 78 57 78 57 93 76.5 c 128,-1,5
 108 96 108 96 135 96 c 0,6,7
 161 96 161 96 173 81.5 c 128,-1,8
 185 67 185 67 185 48 c 0,9,10
 185 26 185 26 170 6.5 c 128,-1,11
 155 -13 155 -13 128 -13 c 0,0,1
EndSplineSet
EndChar

StartChar: slash
Encoding: 47 47 18
Width: 378
Flags: W
LayerCount: 2
Fore
SplineSet
496 783 m 1,0,-1
 560 783 l 1,1,-1
 1 -185 l 1,2,-1
 -62 -185 l 1,3,-1
 496 783 l 1,0,-1
EndSplineSet
Substitution2: "'case' Case-Sensitive Forms lookup 18 subtable" Slash
Substitution2: "'frac' Diagonal Fractions lookup 14 subtable" fraction
EndChar

StartChar: zero
Encoding: 48 48 19
Width: 564
Flags: W
LayerCount: 2
Fore
SplineSet
433 709 m 0,0,1
 517 708 517 708 552.5 651 c 128,-1,2
 588 594 588 594 588 500 c 0,3,4
 588 412 588 412 565.5 320.5 c 128,-1,5
 543 229 543 229 502 154.5 c 128,-1,6
 461 80 461 80 403.5 32.5 c 128,-1,7
 346 -15 346 -15 276 -15 c 0,8,9
 234 -15 234 -15 204 0 c 128,-1,10
 174 15 174 15 155.5 42.5 c 128,-1,11
 137 70 137 70 128.5 108.5 c 128,-1,12
 120 147 120 147 120 194 c 0,13,14
 120 253 120 253 130 314 c 128,-1,15
 140 375 140 375 159 432 c 128,-1,16
 178 489 178 489 206 539.5 c 128,-1,17
 234 590 234 590 268.5 627.5 c 128,-1,18
 303 665 303 665 344.5 687 c 128,-1,19
 386 709 386 709 433 709 c 0,0,1
281 45 m 0,20,21
 330 45 330 45 373.5 84 c 128,-1,22
 417 123 417 123 449.5 186.5 c 128,-1,23
 482 250 482 250 501 330 c 128,-1,24
 520 410 520 410 520 491 c 0,25,26
 520 574 520 574 496.5 611.5 c 128,-1,27
 473 649 473 649 427 649 c 0,28,29
 378 649 378 649 334.5 610 c 128,-1,30
 291 571 291 571 258.5 507.5 c 128,-1,31
 226 444 226 444 207 364 c 128,-1,32
 188 284 188 284 188 203 c 0,33,34
 188 120 188 120 211.5 82.5 c 128,-1,35
 235 45 235 45 281 45 c 0,20,21
EndSplineSet
Substitution2: "'frac' Diagonal Fractions lookup 16 subtable" zerosuperior
Substitution2: "'sinf' Scientific Inferiors lookup 13 subtable" zero.sinf
Substitution2: "'subs' Subscript lookup 12 subtable" zero.sinf
Substitution2: "'sups' Superscript lookup 11 subtable" zero.sups
Substitution2: "'dnom' Denominators lookup 10 subtable" zeroinferior
Substitution2: "'numr' Numerators lookup 8 subtable" zerosuperior
Substitution2: "'pnum' Proportional Numbers lookup 6 subtable" zero.alt
EndChar

StartChar: one
Encoding: 49 49 20
Width: 564
Flags: W
LayerCount: 2
Fore
SplineSet
448 592 m 1,0,1
 416 560 416 560 368 534 c 128,-1,2
 320 508 320 508 269 492 c 1,3,-1
 257 550 l 1,4,5
 315 571 315 571 373 604 c 128,-1,6
 431 637 431 637 488 693 c 1,7,-1
 536 693 l 1,8,-1
 370 0 l 1,9,-1
 306 0 l 1,10,-1
 448 592 l 1,0,1
EndSplineSet
Substitution2: "'frac' Diagonal Fractions lookup 16 subtable" onesuperior
Substitution2: "'sinf' Scientific Inferiors lookup 13 subtable" one.sinf
Substitution2: "'subs' Subscript lookup 12 subtable" one.sinf
Substitution2: "'sups' Superscript lookup 11 subtable" one.sups
Substitution2: "'dnom' Denominators lookup 10 subtable" oneinferior
Substitution2: "'numr' Numerators lookup 8 subtable" onesuperior
Substitution2: "'pnum' Proportional Numbers lookup 6 subtable" one.alt
EndChar

StartChar: two
Encoding: 50 50 21
Width: 564
Flags: W
LayerCount: 2
Fore
SplineSet
501 57 m 1,0,-1
 488 0 l 1,1,-1
 101 0 l 1,2,3
 113 75 113 75 148.5 130 c 128,-1,4
 184 185 184 185 230 227 c 128,-1,5
 276 269 276 269 326.5 304 c 128,-1,6
 377 339 377 339 419 374 c 128,-1,7
 461 409 461 409 488.5 449 c 128,-1,8
 516 489 516 489 516 543 c 0,9,10
 516 599 516 599 485.5 624 c 128,-1,11
 455 649 455 649 412 649 c 0,12,13
 370 649 370 649 326 631.5 c 128,-1,14
 282 614 282 614 250 587 c 1,15,-1
 228 641 l 1,16,17
 266 672 266 672 318.5 690 c 128,-1,18
 371 708 371 708 422 708 c 0,19,20
 455 708 455 708 484.5 699 c 128,-1,21
 514 690 514 690 536.5 671 c 128,-1,22
 559 652 559 652 572.5 622 c 128,-1,23
 586 592 586 592 586 551 c 0,24,25
 586 504 586 504 568.5 465.5 c 128,-1,26
 551 427 551 427 523.5 394 c 128,-1,27
 496 361 496 361 461 332.5 c 128,-1,28
 426 304 426 304 390 278 c 0,29,30
 346 245 346 245 310 217.5 c 128,-1,31
 274 190 274 190 247.5 164 c 128,-1,32
 221 138 221 138 204 112 c 128,-1,33
 187 86 187 86 180 57 c 1,34,-1
 501 57 l 1,0,-1
EndSplineSet
Substitution2: "'frac' Diagonal Fractions lookup 16 subtable" twosuperior
Substitution2: "'sinf' Scientific Inferiors lookup 13 subtable" two.sinf
Substitution2: "'subs' Subscript lookup 12 subtable" two.sinf
Substitution2: "'sups' Superscript lookup 11 subtable" two.sups
Substitution2: "'dnom' Denominators lookup 10 subtable" twoinferior
Substitution2: "'numr' Numerators lookup 8 subtable" twosuperior
Substitution2: "'pnum' Proportional Numbers lookup 6 subtable" two.alt
EndChar

StartChar: three
Encoding: 51 51 22
Width: 564
Flags: W
LayerCount: 2
Fore
SplineSet
104 78 m 1,0,1
 132 61 132 61 168.5 53 c 128,-1,2
 205 45 205 45 244 45 c 0,3,4
 287 45 287 45 324 55.5 c 128,-1,5
 361 66 361 66 388.5 87 c 128,-1,6
 416 108 416 108 432 140.5 c 128,-1,7
 448 173 448 173 448 217 c 0,8,9
 448 284 448 284 400.5 313.5 c 128,-1,10
 353 343 353 343 273 343 c 1,11,-1
 287 397 l 1,12,-1
 312 397 l 2,13,14
 360 397 360 397 395 412 c 128,-1,15
 430 427 430 427 452.5 450 c 128,-1,16
 475 473 475 473 485.5 501 c 128,-1,17
 496 529 496 529 496 556 c 0,18,19
 496 581 496 581 488 599 c 128,-1,20
 480 617 480 617 466 627.5 c 128,-1,21
 452 638 452 638 433.5 643 c 128,-1,22
 415 648 415 648 394 648 c 0,23,24
 359 648 359 648 323.5 637 c 128,-1,25
 288 626 288 626 262 609 c 1,26,-1
 248 661 l 1,27,28
 283 683 283 683 323 695.5 c 128,-1,29
 363 708 363 708 406 708 c 0,30,31
 437 708 437 708 466 700 c 128,-1,32
 495 692 495 692 517 674.5 c 128,-1,33
 539 657 539 657 552.5 629.5 c 128,-1,34
 566 602 566 602 566 562 c 0,35,36
 566 532 566 532 557 503 c 128,-1,37
 548 474 548 474 529.5 448.5 c 128,-1,38
 511 423 511 423 483 402.5 c 128,-1,39
 455 382 455 382 418 369 c 1,40,41
 436 362 436 362 453.5 350 c 128,-1,42
 471 338 471 338 485.5 320 c 128,-1,43
 500 302 500 302 509 277 c 128,-1,44
 518 252 518 252 518 219 c 0,45,46
 518 160 518 160 494.5 116 c 128,-1,47
 471 72 471 72 433 43 c 128,-1,48
 395 14 395 14 345.5 -0.5 c 128,-1,49
 296 -15 296 -15 244 -15 c 0,50,51
 200 -15 200 -15 157.5 -6 c 128,-1,52
 115 3 115 3 78 22 c 1,53,-1
 104 78 l 1,0,1
EndSplineSet
Substitution2: "'frac' Diagonal Fractions lookup 16 subtable" threesuperior
Substitution2: "'sinf' Scientific Inferiors lookup 13 subtable" three.sinf
Substitution2: "'subs' Subscript lookup 12 subtable" three.sinf
Substitution2: "'sups' Superscript lookup 11 subtable" three.sups
Substitution2: "'dnom' Denominators lookup 10 subtable" threeinferior
Substitution2: "'numr' Numerators lookup 8 subtable" threesuperior
Substitution2: "'pnum' Proportional Numbers lookup 6 subtable" three.alt
EndChar

StartChar: four
Encoding: 52 52 23
Width: 564
Flags: W
LayerCount: 2
Fore
SplineSet
414 242 m 1,0,-1
 502 607 l 1,1,2
 461 574 461 574 417 532 c 128,-1,3
 373 490 373 490 330.5 442.5 c 128,-1,4
 288 395 288 395 249 344 c 128,-1,5
 210 293 210 293 180 242 c 1,6,-1
 414 242 l 1,0,-1
105 227 m 1,7,8
 136 281 136 281 181.5 342 c 128,-1,9
 227 403 227 403 281.5 464.5 c 128,-1,10
 336 526 336 526 397 585 c 128,-1,11
 458 644 458 644 521 693 c 1,12,-1
 586 693 l 1,13,-1
 478 242 l 1,14,-1
 563 242 l 1,15,-1
 550 188 l 1,16,-1
 466 188 l 1,17,-1
 422 0 l 1,18,-1
 358 0 l 1,19,-1
 402 188 l 1,20,-1
 95 188 l 1,21,-1
 105 227 l 1,7,8
EndSplineSet
Substitution2: "'frac' Diagonal Fractions lookup 16 subtable" foursuperior
Substitution2: "'sinf' Scientific Inferiors lookup 13 subtable" four.sinf
Substitution2: "'subs' Subscript lookup 12 subtable" four.sinf
Substitution2: "'sups' Superscript lookup 11 subtable" four.sups
Substitution2: "'dnom' Denominators lookup 10 subtable" fourinferior
Substitution2: "'numr' Numerators lookup 8 subtable" foursuperior
Substitution2: "'pnum' Proportional Numbers lookup 6 subtable" four.alt
EndChar

StartChar: five
Encoding: 53 53 24
Width: 564
Flags: W
LayerCount: 2
Fore
SplineSet
107 80 m 1,0,1
 136 63 136 63 170.5 54 c 128,-1,2
 205 45 205 45 240 45 c 0,3,4
 280 45 280 45 318 56 c 128,-1,5
 356 67 356 67 385.5 88.5 c 128,-1,6
 415 110 415 110 433 143 c 128,-1,7
 451 176 451 176 451 220 c 0,8,9
 451 257 451 257 437.5 282 c 128,-1,10
 424 307 424 307 403 324 c 128,-1,11
 382 341 382 341 355 350 c 128,-1,12
 328 359 328 359 302 364 c 128,-1,13
 276 369 276 369 252.5 370 c 128,-1,14
 229 371 229 371 214 372 c 1,15,16
 230 417 230 417 243 456 c 128,-1,17
 256 495 256 495 268 532.5 c 128,-1,18
 280 570 280 570 291.5 609 c 128,-1,19
 303 648 303 648 314 693 c 1,20,-1
 616 693 l 1,21,-1
 603 636 l 1,22,-1
 359 636 l 1,23,24
 352 613 352 613 343.5 585 c 128,-1,25
 335 557 335 557 326 528 c 128,-1,26
 317 499 317 499 307.5 471.5 c 128,-1,27
 298 444 298 444 291 423 c 1,28,29
 342 418 342 418 384.5 404.5 c 128,-1,30
 427 391 427 391 457.5 367 c 128,-1,31
 488 343 488 343 504.5 308.5 c 128,-1,32
 521 274 521 274 521 228 c 0,33,34
 521 167 521 167 498 121.5 c 128,-1,35
 475 76 475 76 437 45.5 c 128,-1,36
 399 15 399 15 348.5 0 c 128,-1,37
 298 -15 298 -15 244 -15 c 0,38,39
 202 -15 202 -15 160.5 -6.5 c 128,-1,40
 119 2 119 2 80 21 c 1,41,-1
 107 80 l 1,0,1
EndSplineSet
Substitution2: "'frac' Diagonal Fractions lookup 16 subtable" fivesuperior
Substitution2: "'sinf' Scientific Inferiors lookup 13 subtable" five.sinf
Substitution2: "'subs' Subscript lookup 12 subtable" five.sinf
Substitution2: "'sups' Superscript lookup 11 subtable" five.sups
Substitution2: "'dnom' Denominators lookup 10 subtable" fiveinferior
Substitution2: "'numr' Numerators lookup 8 subtable" fivesuperior
Substitution2: "'pnum' Proportional Numbers lookup 6 subtable" five.alt
EndChar

StartChar: six
Encoding: 54 54 25
Width: 564
Flags: W
LayerCount: 2
Fore
SplineSet
385 414 m 0,0,1
 430 414 430 414 462.5 401.5 c 128,-1,2
 495 389 495 389 516 367 c 128,-1,3
 537 345 537 345 547 315 c 128,-1,4
 557 285 557 285 557 249 c 0,5,6
 557 186 557 186 535.5 137 c 128,-1,7
 514 88 514 88 479 54 c 128,-1,8
 444 20 444 20 399.5 2.5 c 128,-1,9
 355 -15 355 -15 309 -15 c 0,10,11
 271 -15 271 -15 237.5 -2 c 128,-1,12
 204 11 204 11 179 36.5 c 128,-1,13
 154 62 154 62 139.5 100.5 c 128,-1,14
 125 139 125 139 125 191 c 0,15,16
 125 293 125 293 159.5 384 c 128,-1,17
 194 475 194 475 257 543.5 c 128,-1,18
 320 612 320 612 410 653 c 128,-1,19
 500 694 500 694 611 696 c 1,20,-1
 604 637 l 1,21,22
 531 635 531 635 470.5 614.5 c 128,-1,23
 410 594 410 594 362.5 559 c 128,-1,24
 315 524 315 524 280 476 c 128,-1,25
 245 428 245 428 224 373 c 1,26,27
 262 392 262 392 302.5 403 c 128,-1,28
 343 414 343 414 385 414 c 0,0,1
487 237 m 0,29,30
 487 291 487 291 459 322.5 c 128,-1,31
 431 354 431 354 365 354 c 0,32,33
 324 354 324 354 282 342 c 128,-1,34
 240 330 240 330 206 313 c 1,35,36
 198 284 198 284 195 253 c 128,-1,37
 192 222 192 222 192 191 c 0,38,39
 192 152 192 152 201 123.5 c 128,-1,40
 210 95 210 95 226 77 c 128,-1,41
 242 59 242 59 263 50.5 c 128,-1,42
 284 42 284 42 307 42 c 0,43,44
 344 42 344 42 376.5 56 c 128,-1,45
 409 70 409 70 433.5 95.5 c 128,-1,46
 458 121 458 121 472.5 157 c 128,-1,47
 487 193 487 193 487 237 c 0,29,30
EndSplineSet
Substitution2: "'frac' Diagonal Fractions lookup 16 subtable" sixsuperior
Substitution2: "'sinf' Scientific Inferiors lookup 13 subtable" six.sinf
Substitution2: "'subs' Subscript lookup 12 subtable" six.sinf
Substitution2: "'sups' Superscript lookup 11 subtable" six.sups
Substitution2: "'dnom' Denominators lookup 10 subtable" sixinferior
Substitution2: "'numr' Numerators lookup 8 subtable" sixsuperior
Substitution2: "'pnum' Proportional Numbers lookup 6 subtable" six.alt
EndChar

StartChar: seven
Encoding: 55 55 26
Width: 564
Flags: W
LayerCount: 2
Fore
SplineSet
172 0 m 1,0,1
 189 55 189 55 215 115.5 c 128,-1,2
 241 176 241 176 273.5 236.5 c 128,-1,3
 306 297 306 297 343 355.5 c 128,-1,4
 380 414 380 414 419 466 c 128,-1,5
 458 518 458 518 497 561 c 128,-1,6
 536 604 536 604 572 633 c 1,7,-1
 231 633 l 1,8,-1
 244 693 l 1,9,-1
 654 693 l 1,10,-1
 640 635 l 1,11,12
 595 592 595 592 537.5 522.5 c 128,-1,13
 480 453 480 453 423.5 367.5 c 128,-1,14
 367 282 367 282 318 187.5 c 128,-1,15
 269 93 269 93 241 0 c 1,16,-1
 172 0 l 1,0,1
EndSplineSet
Substitution2: "'frac' Diagonal Fractions lookup 16 subtable" sevensuperior
Substitution2: "'sinf' Scientific Inferiors lookup 13 subtable" seven.sinf
Substitution2: "'subs' Subscript lookup 12 subtable" seven.sinf
Substitution2: "'sups' Superscript lookup 11 subtable" seven.sups
Substitution2: "'dnom' Denominators lookup 10 subtable" seveninferior
Substitution2: "'numr' Numerators lookup 8 subtable" sevensuperior
Substitution2: "'pnum' Proportional Numbers lookup 6 subtable" seven.alt
EndChar

StartChar: eight
Encoding: 56 56 27
Width: 564
Flags: W
LayerCount: 2
Fore
SplineSet
601 561 m 0,0,1
 601 532 601 532 593.5 502.5 c 128,-1,2
 586 473 586 473 567.5 445 c 128,-1,3
 549 417 549 417 518.5 391 c 128,-1,4
 488 365 488 365 442 343 c 1,5,6
 489 317 489 317 512 281 c 128,-1,7
 535 245 535 245 535 203 c 0,8,9
 535 151 535 151 513.5 110.5 c 128,-1,10
 492 70 492 70 456 42 c 128,-1,11
 420 14 420 14 373 -0.5 c 128,-1,12
 326 -15 326 -15 274 -15 c 0,13,14
 239 -15 239 -15 207.5 -6 c 128,-1,15
 176 3 176 3 152 21 c 128,-1,16
 128 39 128 39 113.5 67 c 128,-1,17
 99 95 99 95 99 133 c 0,18,19
 99 162 99 162 106.5 192.5 c 128,-1,20
 114 223 114 223 133.5 253 c 128,-1,21
 153 283 153 283 186.5 311.5 c 128,-1,22
 220 340 220 340 271 364 c 1,23,24
 240 383 240 383 219.5 415 c 128,-1,25
 199 447 199 447 199 489 c 0,26,27
 199 541 199 541 219 582 c 128,-1,28
 239 623 239 623 272 651 c 128,-1,29
 305 679 305 679 348 693.5 c 128,-1,30
 391 708 391 708 436 708 c 0,31,32
 509 708 509 708 555 671.5 c 128,-1,33
 601 635 601 635 601 561 c 0,0,1
466 196 m 0,34,35
 466 227 466 227 453 249 c 128,-1,36
 440 271 440 271 419 287 c 128,-1,37
 398 303 398 303 372 315 c 128,-1,38
 346 327 346 327 319 338 c 1,39,40
 278 317 278 317 249 293 c 128,-1,41
 220 269 220 269 202 244.5 c 128,-1,42
 184 220 184 220 176 195.5 c 128,-1,43
 168 171 168 171 168 150 c 0,44,45
 168 121 168 121 177 100.5 c 128,-1,46
 186 80 186 80 202 67 c 128,-1,47
 218 54 218 54 239 47.5 c 128,-1,48
 260 41 260 41 283 41 c 0,49,50
 318 41 318 41 351 52 c 128,-1,51
 384 63 384 63 409.5 83 c 128,-1,52
 435 103 435 103 450.5 132 c 128,-1,53
 466 161 466 161 466 196 c 0,34,35
267 492 m 0,54,55
 267 466 267 466 278 447 c 128,-1,56
 289 428 289 428 307 413.5 c 128,-1,57
 325 399 325 399 347.5 388.5 c 128,-1,58
 370 378 370 378 394 369 c 1,59,60
 466 407 466 407 499.5 453.5 c 128,-1,61
 533 500 533 500 533 552 c 0,62,63
 533 602 533 602 505.5 627 c 128,-1,64
 478 652 478 652 427 652 c 0,65,66
 395 652 395 652 366.5 642 c 128,-1,67
 338 632 338 632 315.5 611.5 c 128,-1,68
 293 591 293 591 280 561 c 128,-1,69
 267 531 267 531 267 492 c 0,54,55
EndSplineSet
Substitution2: "'frac' Diagonal Fractions lookup 16 subtable" eightsuperior
Substitution2: "'sinf' Scientific Inferiors lookup 13 subtable" eight.sinf
Substitution2: "'subs' Subscript lookup 12 subtable" eight.sinf
Substitution2: "'sups' Superscript lookup 11 subtable" eight.sups
Substitution2: "'dnom' Denominators lookup 10 subtable" eightinferior
Substitution2: "'numr' Numerators lookup 8 subtable" eightsuperior
Substitution2: "'pnum' Proportional Numbers lookup 6 subtable" eight.alt
EndChar

StartChar: nine
Encoding: 57 57 28
Width: 564
Flags: W
LayerCount: 2
Fore
SplineSet
339 279 m 0,0,1
 292 279 292 279 258.5 291.5 c 128,-1,2
 225 304 225 304 203.5 325.5 c 128,-1,3
 182 347 182 347 172 376 c 128,-1,4
 162 405 162 405 162 438 c 0,5,6
 162 503 162 503 183 553 c 128,-1,7
 204 603 204 603 239 637.5 c 128,-1,8
 274 672 274 672 319 690 c 128,-1,9
 364 708 364 708 412 708 c 0,10,11
 447 708 447 708 479 697.5 c 128,-1,12
 511 687 511 687 536 663.5 c 128,-1,13
 561 640 561 640 575.5 601.5 c 128,-1,14
 590 563 590 563 590 507 c 0,15,16
 590 402 590 402 556.5 309 c 128,-1,17
 523 216 523 216 461 147 c 128,-1,18
 399 78 399 78 311 38 c 128,-1,19
 223 -2 223 -2 114 -2 c 0,20,21
 109 -2 109 -2 102 -2 c 128,-1,22
 95 -2 95 -2 88 -1 c 1,23,-1
 100 56 l 1,24,25
 176 54 176 54 239 73 c 128,-1,26
 302 92 302 92 351 127 c 128,-1,27
 400 162 400 162 435 211.5 c 128,-1,28
 470 261 470 261 491 320 c 1,29,30
 444 298 444 298 403 288.5 c 128,-1,31
 362 279 362 279 339 279 c 0,0,1
412 651 m 0,32,33
 376 651 376 651 343 638 c 128,-1,34
 310 625 310 625 285.5 599.5 c 128,-1,35
 261 574 261 574 246.5 536 c 128,-1,36
 232 498 232 498 232 449 c 0,37,38
 232 404 232 404 259.5 371.5 c 128,-1,39
 287 339 287 339 350 339 c 0,40,41
 383 339 383 339 422.5 348 c 128,-1,42
 462 357 462 357 508 379 c 1,43,44
 523 440 523 440 523 509 c 0,45,46
 523 579 523 579 494.5 615 c 128,-1,47
 466 651 466 651 412 651 c 0,32,33
EndSplineSet
Substitution2: "'frac' Diagonal Fractions lookup 16 subtable" ninesuperior
Substitution2: "'sinf' Scientific Inferiors lookup 13 subtable" nine.sinf
Substitution2: "'subs' Subscript lookup 12 subtable" nine.sinf
Substitution2: "'sups' Superscript lookup 11 subtable" nine.sups
Substitution2: "'dnom' Denominators lookup 10 subtable" nineinferior
Substitution2: "'numr' Numerators lookup 8 subtable" ninesuperior
Substitution2: "'pnum' Proportional Numbers lookup 6 subtable" nine.alt
EndChar

StartChar: less
Encoding: 60 60 31
Width: 564
Flags: W
LayerCount: 2
Fore
SplineSet
133 328 m 1,0,-1
 589 505 l 1,1,-1
 594 444 l 1,2,-1
 197 294 l 1,3,-1
 518 146 l 1,4,-1
 486 92 l 1,5,-1
 119 270 l 1,6,-1
 133 328 l 1,0,-1
EndSplineSet
EndChar

StartChar: equal
Encoding: 61 61 32
Width: 564
Flags: W
LayerCount: 2
Fore
SplineSet
168 432 m 1,0,-1
 606 432 l 1,1,-1
 593 376 l 1,2,-1
 154 376 l 1,3,-1
 168 432 l 1,0,-1
118 222 m 1,4,-1
 556 222 l 1,5,-1
 543 166 l 1,6,-1
 104 166 l 1,7,-1
 118 222 l 1,4,-1
EndSplineSet
EndChar

StartChar: greater
Encoding: 62 62 33
Width: 564
Flags: W
LayerCount: 2
Fore
SplineSet
569 269 m 1,0,-1
 113 92 l 1,1,-1
 108 153 l 1,2,-1
 505 303 l 1,3,-1
 184 451 l 1,4,-1
 216 505 l 1,5,-1
 583 327 l 1,6,-1
 569 269 l 1,0,-1
EndSplineSet
EndChar

StartChar: question
Encoding: 63 63 34
Width: 365
Flags: W
LayerCount: 2
Fore
SplineSet
159 213 m 1,0,1
 160 249 160 249 170 278 c 128,-1,2
 180 307 180 307 197 331.5 c 128,-1,3
 214 356 214 356 236.5 377.5 c 128,-1,4
 259 399 259 399 286 420 c 2,5,-1
 298 429 l 2,6,7
 353 470 353 470 375 502 c 128,-1,8
 397 534 397 534 397 573 c 0,9,10
 397 616 397 616 370 633 c 128,-1,11
 343 650 343 650 306 650 c 0,12,13
 274 650 274 650 241.5 641 c 128,-1,14
 209 632 209 632 185 621 c 1,15,-1
 177 676 l 1,16,17
 207 690 207 690 244 699 c 128,-1,18
 281 708 281 708 318 708 c 0,19,20
 348 708 348 708 375 701 c 128,-1,21
 402 694 402 694 422.5 678.5 c 128,-1,22
 443 663 443 663 455 637.5 c 128,-1,23
 467 612 467 612 467 575 c 0,24,25
 467 533 467 533 448.5 501 c 128,-1,26
 430 469 430 469 401.5 441.5 c 128,-1,27
 373 414 373 414 340.5 389 c 128,-1,28
 308 364 308 364 279.5 337.5 c 128,-1,29
 251 311 251 311 232.5 281 c 128,-1,30
 214 251 214 251 214 213 c 1,31,-1
 159 213 l 1,0,1
168 -12 m 0,32,33
 142 -12 142 -12 130 2.5 c 128,-1,34
 118 17 118 17 118 36 c 0,35,36
 118 58 118 58 133 77.5 c 128,-1,37
 148 97 148 97 175 97 c 0,38,39
 201 97 201 97 213 82.5 c 128,-1,40
 225 68 225 68 225 49 c 0,41,42
 225 27 225 27 210 7.5 c 128,-1,43
 195 -12 195 -12 168 -12 c 0,32,33
EndSplineSet
EndChar

StartChar: at
Encoding: 64 64 35
Width: 928
Flags: W
LayerCount: 2
Fore
SplineSet
601 -133 m 1,0,1
 524 -153 524 -153 457 -153 c 0,2,3
 383 -153 383 -153 320.5 -131 c 128,-1,4
 258 -109 258 -109 213 -67 c 128,-1,5
 168 -25 168 -25 143 36.5 c 128,-1,6
 118 98 118 98 118 177 c 0,7,8
 118 306 118 306 159.5 405 c 128,-1,9
 201 504 201 504 271 571.5 c 128,-1,10
 341 639 341 639 433 673.5 c 128,-1,11
 525 708 525 708 627 708 c 0,12,13
 699 708 699 708 758.5 688.5 c 128,-1,14
 818 669 818 669 860.5 629 c 128,-1,15
 903 589 903 589 926.5 529 c 128,-1,16
 950 469 950 469 950 387 c 0,17,18
 950 298 950 298 926 236 c 128,-1,19
 902 174 902 174 865 134 c 128,-1,20
 828 94 828 94 783.5 76 c 128,-1,21
 739 58 739 58 699 58 c 0,22,23
 671 58 671 58 650 67.5 c 128,-1,24
 629 77 629 77 621 95 c 1,25,26
 598 79 598 79 564.5 67.5 c 128,-1,27
 531 56 531 56 498 56 c 0,28,29
 462 56 462 56 432 65.5 c 128,-1,30
 402 75 402 75 380.5 95 c 128,-1,31
 359 115 359 115 346.5 145.5 c 128,-1,32
 334 176 334 176 334 217 c 0,33,34
 334 280 334 280 354 333 c 128,-1,35
 374 386 374 386 410 424 c 128,-1,36
 446 462 446 462 496.5 483.5 c 128,-1,37
 547 505 547 505 609 505 c 0,38,39
 657 505 657 505 695 497 c 128,-1,40
 733 489 733 489 750 482 c 1,41,-1
 675 178 l 2,42,43
 673 170 673 170 670.5 161 c 128,-1,44
 668 152 668 152 668 143 c 0,45,46
 668 133 668 133 674 123.5 c 128,-1,47
 680 114 680 114 710 114 c 0,48,49
 758 114 758 114 792 141.5 c 128,-1,50
 826 169 826 169 847 210.5 c 128,-1,51
 868 252 868 252 877.5 301.5 c 128,-1,52
 887 351 887 351 887 395 c 0,53,54
 887 459 887 459 868 507.5 c 128,-1,55
 849 556 849 556 813.5 587.5 c 128,-1,56
 778 619 778 619 728 635 c 128,-1,57
 678 651 678 651 616 651 c 0,58,59
 534 651 534 651 456.5 620.5 c 128,-1,60
 379 590 379 590 318.5 531 c 128,-1,61
 258 472 258 472 221 385.5 c 128,-1,62
 184 299 184 299 184 186 c 0,63,64
 184 50 184 50 257.5 -23 c 128,-1,65
 331 -96 331 -96 465 -96 c 0,66,67
 529 -96 529 -96 606 -78 c 1,68,-1
 601 -133 l 1,0,1
676 443 m 2,69,70
 675 444 675 444 668 445.5 c 128,-1,71
 661 447 661 447 650.5 448 c 128,-1,72
 640 449 640 449 627.5 450 c 128,-1,73
 615 451 615 451 603 451 c 0,74,75
 559 451 559 451 522.5 434 c 128,-1,76
 486 417 486 417 459.5 386.5 c 128,-1,77
 433 356 433 356 418 314 c 128,-1,78
 403 272 403 272 403 223 c 0,79,80
 403 164 403 164 429 137.5 c 128,-1,81
 455 111 455 111 500 111 c 0,82,83
 544 111 544 111 567.5 120 c 128,-1,84
 591 129 591 129 608 138 c 1,85,86
 608 159 608 159 610.5 172 c 128,-1,87
 613 185 613 185 615 195 c 2,88,-1
 676 443 l 2,69,70
EndSplineSet
Substitution2: "'case' Case-Sensitive Forms lookup 18 subtable" At
EndChar

StartChar: A
Encoding: 65 65 36
Width: 622
Flags: W
LayerCount: 2
Fore
SplineSet
546 0 m 1,0,1
 541 48 541 48 535.5 95 c 128,-1,2
 530 142 530 142 524 190 c 1,3,-1
 198 190 l 1,4,5
 172 144 172 144 146 97 c 128,-1,6
 120 50 120 50 94 0 c 1,7,-1
 20 0 l 1,8,9
 123 186 123 186 232 362 c 128,-1,10
 341 538 341 538 446 693 c 1,11,-1
 519 693 l 1,12,13
 544 547 544 547 568.5 377.5 c 128,-1,14
 593 208 593 208 616 0 c 1,15,-1
 546 0 l 1,0,1
465 615 m 1,16,17
 404 522 404 522 346 432 c 128,-1,18
 288 342 288 342 232 248 c 1,19,-1
 517 248 l 1,20,21
 506 338 506 338 493 428.5 c 128,-1,22
 480 519 480 519 465 615 c 1,16,17
EndSplineSet
EndChar

StartChar: B
Encoding: 66 66 37
Width: 597
Flags: W
LayerCount: 2
Fore
SplineSet
243 680 m 1,0,1
 275 688 275 688 319 694 c 128,-1,2
 363 700 363 700 410 700 c 0,3,4
 453 700 453 700 494 693 c 128,-1,5
 535 686 535 686 567.5 668 c 128,-1,6
 600 650 600 650 619.5 619.5 c 128,-1,7
 639 589 639 589 639 543 c 0,8,9
 639 509 639 509 627 480 c 128,-1,10
 615 451 615 451 595.5 428.5 c 128,-1,11
 576 406 576 406 550 389.5 c 128,-1,12
 524 373 524 373 496 364 c 1,13,14
 519 358 519 358 537.5 345 c 128,-1,15
 556 332 556 332 568.5 314.5 c 128,-1,16
 581 297 581 297 588 275.5 c 128,-1,17
 595 254 595 254 595 232 c 0,18,19
 595 161 595 161 566 115 c 128,-1,20
 537 69 537 69 490 42 c 128,-1,21
 443 15 443 15 382.5 4.5 c 128,-1,22
 322 -6 322 -6 258 -6 c 0,23,24
 210 -6 210 -6 165.5 -0.5 c 128,-1,25
 121 5 121 5 83 13 c 1,26,-1
 243 680 l 1,0,1
161 59 m 1,27,28
 182 55 182 55 207 53.5 c 128,-1,29
 232 52 232 52 260 52 c 0,30,31
 309 52 309 52 356.5 59 c 128,-1,32
 404 66 404 66 441 85.5 c 128,-1,33
 478 105 478 105 500.5 139 c 128,-1,34
 523 173 523 173 523 228 c 0,35,36
 523 287 523 287 483 309.5 c 128,-1,37
 443 332 443 332 352 332 c 2,38,-1
 225 332 l 1,39,-1
 161 59 l 1,27,28
333 390 m 2,40,41
 459 390 459 390 513.5 428.5 c 128,-1,42
 568 467 568 467 568 531 c 0,43,44
 568 591 568 591 525.5 616 c 128,-1,45
 483 641 483 641 396 641 c 0,46,47
 369 641 369 641 344 639 c 128,-1,48
 319 637 319 637 300 634 c 1,49,-1
 240 390 l 1,50,-1
 333 390 l 2,40,41
EndSplineSet
EndChar

StartChar: C
Encoding: 67 67 38
Width: 610
Flags: W
LayerCount: 2
Fore
SplineSet
587 31 m 1,0,1
 546 9 546 9 494 -3 c 128,-1,2
 442 -15 442 -15 391 -15 c 0,3,4
 335 -15 335 -15 288.5 0.5 c 128,-1,5
 242 16 242 16 208.5 48.5 c 128,-1,6
 175 81 175 81 156.5 131.5 c 128,-1,7
 138 182 138 182 138 253 c 0,8,9
 138 360 138 360 171 444.5 c 128,-1,10
 204 529 204 529 260 587.5 c 128,-1,11
 316 646 316 646 389 677 c 128,-1,12
 462 708 462 708 542 708 c 0,13,14
 589 708 589 708 629.5 698 c 128,-1,15
 670 688 670 688 712 665 c 1,16,-1
 681 603 l 1,17,18
 609 647 609 647 528 647 c 0,19,20
 465 647 465 647 407.5 619.5 c 128,-1,21
 350 592 350 592 306 541 c 128,-1,22
 262 490 262 490 236 417.5 c 128,-1,23
 210 345 210 345 210 255 c 0,24,25
 210 153 210 153 254 99.5 c 128,-1,26
 298 46 298 46 389 46 c 0,27,28
 429 46 429 46 460 51 c 128,-1,29
 491 56 491 56 513.5 63 c 128,-1,30
 536 70 536 70 551.5 77.5 c 128,-1,31
 567 85 567 85 578 91 c 1,32,-1
 587 31 l 1,0,1
EndSplineSet
EndChar

StartChar: D
Encoding: 68 68 39
Width: 679
Flags: W
LayerCount: 2
Fore
SplineSet
162 60 m 1,0,1
 187 56 187 56 210 54.5 c 128,-1,2
 233 53 233 53 256 53 c 0,3,4
 350 53 350 53 421.5 80.5 c 128,-1,5
 493 108 493 108 541 156 c 128,-1,6
 589 204 589 204 613.5 269.5 c 128,-1,7
 638 335 638 335 638 412 c 0,8,9
 638 527 638 527 580.5 584 c 128,-1,10
 523 641 523 641 401 641 c 0,11,12
 376 641 376 641 350.5 639 c 128,-1,13
 325 637 325 637 299 633 c 1,14,-1
 162 60 l 1,0,1
242 680 m 1,15,16
 291 691 291 691 331 695 c 128,-1,17
 371 699 371 699 410 699 c 0,18,19
 563 699 563 699 637 625 c 128,-1,20
 711 551 711 551 711 415 c 0,21,22
 711 323 711 323 681 245.5 c 128,-1,23
 651 168 651 168 592.5 112 c 128,-1,24
 534 56 534 56 447 25 c 128,-1,25
 360 -6 360 -6 246 -6 c 0,26,27
 226 -6 226 -6 203.5 -4.5 c 128,-1,28
 181 -3 181 -3 159.5 -1 c 128,-1,29
 138 1 138 1 118 4.5 c 128,-1,30
 98 8 98 8 83 13 c 1,31,-1
 242 680 l 1,15,16
EndSplineSet
EndChar

StartChar: E
Encoding: 69 69 40
Width: 524
Flags: W
LayerCount: 2
Fore
SplineSet
249 693 m 1,0,-1
 636 693 l 1,1,-1
 623 634 l 1,2,-1
 302 634 l 1,3,-1
 243 393 l 1,4,-1
 529 393 l 1,5,-1
 516 335 l 1,6,-1
 232 335 l 1,7,-1
 163 59 l 1,8,-1
 507 59 l 1,9,-1
 495 0 l 1,10,-1
 83 0 l 1,11,-1
 249 693 l 1,0,-1
EndSplineSet
EndChar

StartChar: F
Encoding: 70 70 41
Width: 500
Flags: W
LayerCount: 2
Fore
SplineSet
249 693 m 1,0,-1
 632 693 l 1,1,-1
 619 634 l 1,2,-1
 302 634 l 1,3,-1
 242 390 l 1,4,-1
 525 390 l 1,5,-1
 511 331 l 1,6,-1
 231 331 l 1,7,-1
 151 0 l 1,8,-1
 83 0 l 1,9,-1
 249 693 l 1,0,-1
EndSplineSet
EndChar

StartChar: G
Encoding: 71 71 42
Width: 640
Flags: W
LayerCount: 2
Fore
SplineSet
593 324 m 1,0,-1
 661 324 l 1,1,-1
 589 23 l 1,2,3
 544 5 544 5 496 -5 c 128,-1,4
 448 -15 448 -15 403 -15 c 0,5,6
 334 -15 334 -15 283.5 4 c 128,-1,7
 233 23 233 23 201 59 c 128,-1,8
 169 95 169 95 153.5 145.5 c 128,-1,9
 138 196 138 196 138 259 c 0,10,11
 138 347 138 347 166 428 c 128,-1,12
 194 509 194 509 246 571 c 128,-1,13
 298 633 298 633 372.5 670.5 c 128,-1,14
 447 708 447 708 539 708 c 0,15,16
 584 708 584 708 616 703 c 128,-1,17
 648 698 648 698 670.5 691 c 128,-1,18
 693 684 693 684 707 676 c 128,-1,19
 721 668 721 668 732 663 c 1,20,-1
 701 601 l 1,21,22
 698 604 698 604 684 611.5 c 128,-1,23
 670 619 670 619 647.5 627 c 128,-1,24
 625 635 625 635 595.5 641 c 128,-1,25
 566 647 566 647 531 647 c 0,26,27
 457 647 457 647 397.5 615 c 128,-1,28
 338 583 338 583 296.5 530 c 128,-1,29
 255 477 255 477 232.5 407.5 c 128,-1,30
 210 338 210 338 210 262 c 0,31,32
 210 158 210 158 255 102 c 128,-1,33
 300 46 300 46 400 46 c 0,34,35
 432 46 432 46 465.5 51.5 c 128,-1,36
 499 57 499 57 534 69 c 1,37,-1
 593 324 l 1,0,-1
EndSplineSet
EndChar

StartChar: H
Encoding: 72 72 43
Width: 655
Flags: W
LayerCount: 2
Fore
SplineSet
249 693 m 1,0,-1
 317 693 l 1,1,-1
 243 392 l 1,2,-1
 602 392 l 1,3,-1
 674 693 l 1,4,-1
 742 693 l 1,5,-1
 577 0 l 1,6,-1
 509 0 l 1,7,-1
 589 333 l 1,8,-1
 231 333 l 1,9,-1
 151 0 l 1,10,-1
 83 0 l 1,11,-1
 249 693 l 1,0,-1
EndSplineSet
EndChar

StartChar: I
Encoding: 73 73 44
Width: 230
Flags: W
LayerCount: 2
Fore
SplineSet
249 693 m 1,0,-1
 317 693 l 1,1,-1
 152 0 l 1,2,-1
 83 0 l 1,3,-1
 249 693 l 1,0,-1
EndSplineSet
EndChar

StartChar: J
Encoding: 74 74 45
Width: 450
Flags: W
LayerCount: 2
Fore
SplineSet
53 95 m 1,0,1
 68 80 68 80 103 63 c 128,-1,2
 138 46 138 46 186 46 c 0,3,4
 213 46 213 46 237 51.5 c 128,-1,5
 261 57 261 57 282 73 c 128,-1,6
 303 89 303 89 320 118.5 c 128,-1,7
 337 148 337 148 349 196 c 2,8,-1
 469 693 l 1,9,-1
 537 693 l 1,10,-1
 417 188 l 2,11,12
 403 128 403 128 380 89 c 128,-1,13
 357 50 357 50 327 26.5 c 128,-1,14
 297 3 297 3 260.5 -6 c 128,-1,15
 224 -15 224 -15 183 -15 c 0,16,17
 131 -15 131 -15 89.5 1 c 128,-1,18
 48 17 48 17 18 43 c 1,19,-1
 53 95 l 1,0,1
EndSplineSet
EndChar

StartChar: K
Encoding: 75 75 46
Width: 599
Flags: W
LayerCount: 2
Fore
SplineSet
249 693 m 1,0,-1
 316 693 l 1,1,-1
 240 374 l 1,2,3
 289 409 289 409 346.5 454 c 128,-1,4
 404 499 404 499 459 544 c 128,-1,5
 514 589 514 589 560.5 628.5 c 128,-1,6
 607 668 607 668 634 693 c 1,7,-1
 724 693 l 1,8,9
 691 663 691 663 640 620 c 128,-1,10
 589 577 589 577 532 531 c 128,-1,11
 475 485 475 485 417.5 439.5 c 128,-1,12
 360 394 360 394 314 358 c 1,13,14
 350 331 350 331 389 287.5 c 128,-1,15
 428 244 428 244 464.5 194 c 128,-1,16
 501 144 501 144 532 93 c 128,-1,17
 563 42 563 42 581 0 c 1,18,-1
 507 0 l 1,19,20
 449 112 449 112 382.5 200 c 128,-1,21
 316 288 316 288 233 348 c 1,22,-1
 151 0 l 1,23,-1
 83 0 l 1,24,-1
 249 693 l 1,0,-1
EndSplineSet
EndChar

StartChar: L
Encoding: 76 76 47
Width: 474
Flags: W
LayerCount: 2
Fore
SplineSet
248 693 m 1,0,-1
 316 693 l 1,1,-1
 164 58 l 1,2,-1
 471 58 l 1,3,-1
 458 0 l 1,4,-1
 83 0 l 1,5,-1
 248 693 l 1,0,-1
EndSplineSet
EndChar

StartChar: M
Encoding: 77 77 48
Width: 831
Flags: W
LayerCount: 2
Fore
SplineSet
68 0 m 1,0,1
 119 187 119 187 174.5 362 c 128,-1,2
 230 537 230 537 281 693 c 1,3,-1
 349 693 l 1,4,5
 364 633 364 633 379.5 565 c 128,-1,6
 395 497 395 497 409 428.5 c 128,-1,7
 423 360 423 360 434.5 295.5 c 128,-1,8
 446 231 446 231 454 178 c 1,9,10
 491 235 491 235 537 304.5 c 128,-1,11
 583 374 583 374 630 444 c 128,-1,12
 677 514 677 514 722 579 c 128,-1,13
 767 644 767 644 803 693 c 1,14,-1
 873 693 l 1,15,16
 864 602 864 602 852 515.5 c 128,-1,17
 840 429 840 429 826.5 344 c 128,-1,18
 813 259 813 259 797.5 173.5 c 128,-1,19
 782 88 782 88 765 0 c 1,20,-1
 695 0 l 1,21,22
 730 163 730 163 755.5 311 c 128,-1,23
 781 459 781 459 800 591 c 1,24,25
 785 572 785 572 758.5 534.5 c 128,-1,26
 732 497 732 497 700 450 c 128,-1,27
 668 403 668 403 633.5 351 c 128,-1,28
 599 299 599 299 567 250.5 c 128,-1,29
 535 202 535 202 509 162.5 c 128,-1,30
 483 123 483 123 469 100 c 1,31,-1
 409 100 l 1,32,33
 405 128 405 128 398 169 c 128,-1,34
 391 210 391 210 382.5 257 c 128,-1,35
 374 304 374 304 364.5 354 c 128,-1,36
 355 404 355 404 345.5 449.5 c 128,-1,37
 336 495 336 495 327.5 532 c 128,-1,38
 319 569 319 569 313 592 c 1,39,40
 269 460 269 460 224 309 c 128,-1,41
 179 158 179 158 136 0 c 1,42,-1
 68 0 l 1,0,1
EndSplineSet
EndChar

StartChar: N
Encoding: 78 78 49
Width: 669
Flags: W
LayerCount: 2
Fore
SplineSet
249 693 m 1,0,-1
 316 693 l 1,1,2
 353 629 353 629 389.5 550 c 128,-1,3
 426 471 426 471 458.5 390.5 c 128,-1,4
 491 310 491 310 515.5 236 c 128,-1,5
 540 162 540 162 553 109 c 1,6,-1
 689 693 l 1,7,-1
 756 693 l 1,8,-1
 592 0 l 1,9,-1
 525 0 l 1,10,11
 507 61 507 61 480 142.5 c 128,-1,12
 453 224 453 224 421.5 308 c 128,-1,13
 390 392 390 392 357 469.5 c 128,-1,14
 324 547 324 547 294 601 c 1,15,-1
 150 0 l 1,16,-1
 83 0 l 1,17,-1
 249 693 l 1,0,-1
EndSplineSet
EndChar

StartChar: O
Encoding: 79 79 50
Width: 748
Flags: W
LayerCount: 2
Fore
SplineSet
138 258 m 0,0,1
 138 361 138 361 172 444.5 c 128,-1,2
 206 528 206 528 262 586.5 c 128,-1,3
 318 645 318 645 388.5 676.5 c 128,-1,4
 459 708 459 708 533 708 c 0,5,6
 582 708 582 708 627 691.5 c 128,-1,7
 672 675 672 675 706 641.5 c 128,-1,8
 740 608 740 608 760 556.5 c 128,-1,9
 780 505 780 505 780 436 c 0,10,11
 780 332 780 332 746 248.5 c 128,-1,12
 712 165 712 165 656 106.5 c 128,-1,13
 600 48 600 48 529 16.5 c 128,-1,14
 458 -15 458 -15 385 -15 c 0,15,16
 335 -15 335 -15 290.5 1.5 c 128,-1,17
 246 18 246 18 212 51.5 c 128,-1,18
 178 85 178 85 158 136.5 c 128,-1,19
 138 188 138 188 138 258 c 0,0,1
210 247 m 0,20,21
 210 196 210 196 224 158 c 128,-1,22
 238 120 238 120 263 95.5 c 128,-1,23
 288 71 288 71 320.5 58.5 c 128,-1,24
 353 46 353 46 391 46 c 0,25,26
 452 46 452 46 509 72.5 c 128,-1,27
 566 99 566 99 610 150 c 128,-1,28
 654 201 654 201 681 275.5 c 128,-1,29
 708 350 708 350 708 446 c 0,30,31
 708 497 708 497 694 535 c 128,-1,32
 680 573 680 573 655 597.5 c 128,-1,33
 630 622 630 622 597 634.5 c 128,-1,34
 564 647 564 647 527 647 c 0,35,36
 466 647 466 647 409 620.5 c 128,-1,37
 352 594 352 594 307.5 543 c 128,-1,38
 263 492 263 492 236.5 417.5 c 128,-1,39
 210 343 210 343 210 247 c 0,20,21
EndSplineSet
EndChar

StartChar: P
Encoding: 80 80 51
Width: 565
Flags: W
LayerCount: 2
Fore
SplineSet
246 680 m 1,0,1
 284 688 284 688 327.5 693.5 c 128,-1,2
 371 699 371 699 416 699 c 0,3,4
 535 699 535 699 591 654 c 128,-1,5
 647 609 647 609 647 524 c 0,6,7
 647 468 647 468 624.5 421 c 128,-1,8
 602 374 602 374 559.5 340 c 128,-1,9
 517 306 517 306 454 287 c 128,-1,10
 391 268 391 268 310 268 c 2,11,-1
 216 268 l 1,12,-1
 151 0 l 1,13,-1
 83 0 l 1,14,-1
 246 680 l 1,0,1
319 327 m 2,15,16
 441 327 441 327 508 377 c 128,-1,17
 575 427 575 427 575 515 c 0,18,19
 575 580 575 580 533 610 c 128,-1,20
 491 640 491 640 401 640 c 0,21,22
 375 640 375 640 349.5 637.5 c 128,-1,23
 324 635 324 635 303 633 c 1,24,-1
 229 327 l 1,25,-1
 319 327 l 2,15,16
EndSplineSet
EndChar

StartChar: Q
Encoding: 81 81 52
Width: 748
Flags: W
LayerCount: 2
Fore
SplineSet
138 258 m 0,0,1
 138 361 138 361 172 444.5 c 128,-1,2
 206 528 206 528 262 586.5 c 128,-1,3
 318 645 318 645 388.5 676.5 c 128,-1,4
 459 708 459 708 533 708 c 0,5,6
 582 708 582 708 627 691.5 c 128,-1,7
 672 675 672 675 706 641.5 c 128,-1,8
 740 608 740 608 760 556.5 c 128,-1,9
 780 505 780 505 780 436 c 0,10,11
 780 338 780 338 749.5 258 c 128,-1,12
 719 178 719 178 668.5 120 c 128,-1,13
 618 62 618 62 553 28 c 128,-1,14
 488 -6 488 -6 419 -13 c 1,15,16
 416 -22 416 -22 416 -30 c 0,17,18
 416 -50 416 -50 432 -65.5 c 128,-1,19
 448 -81 448 -81 475 -93 c 128,-1,20
 502 -105 502 -105 536.5 -113.5 c 128,-1,21
 571 -122 571 -122 608 -128 c 1,22,-1
 582 -184 l 1,23,24
 547 -180 547 -180 506.5 -171 c 128,-1,25
 466 -162 466 -162 431.5 -145.5 c 128,-1,26
 397 -129 397 -129 374 -103.5 c 128,-1,27
 351 -78 351 -78 351 -39 c 0,28,29
 351 -33 351 -33 351 -26.5 c 128,-1,30
 351 -20 351 -20 353 -13 c 1,31,32
 309 -8 309 -8 269.5 11 c 128,-1,33
 230 30 230 30 201 63.5 c 128,-1,34
 172 97 172 97 155 145.5 c 128,-1,35
 138 194 138 194 138 258 c 0,0,1
210 247 m 0,36,37
 210 196 210 196 224 158 c 128,-1,38
 238 120 238 120 263 95.5 c 128,-1,39
 288 71 288 71 320.5 58.5 c 128,-1,40
 353 46 353 46 391 46 c 0,41,42
 452 46 452 46 509 72.5 c 128,-1,43
 566 99 566 99 610 150 c 128,-1,44
 654 201 654 201 681 275.5 c 128,-1,45
 708 350 708 350 708 446 c 0,46,47
 708 497 708 497 694 535 c 128,-1,48
 680 573 680 573 655 597.5 c 128,-1,49
 630 622 630 622 597 634.5 c 128,-1,50
 564 647 564 647 527 647 c 0,51,52
 466 647 466 647 409 620.5 c 128,-1,53
 352 594 352 594 307.5 543 c 128,-1,54
 263 492 263 492 236.5 417.5 c 128,-1,55
 210 343 210 343 210 247 c 0,36,37
EndSplineSet
EndChar

StartChar: R
Encoding: 82 82 53
Width: 592
Flags: W
LayerCount: 2
Fore
SplineSet
408 699 m 0,0,1
 526 699 526 699 585 651.5 c 128,-1,2
 644 604 644 604 644 517 c 0,3,4
 644 439 644 439 594 380.5 c 128,-1,5
 544 322 544 322 442 296 c 1,6,7
 454 274 454 274 471 238.5 c 128,-1,8
 488 203 488 203 505.5 162 c 128,-1,9
 523 121 523 121 539.5 78.5 c 128,-1,10
 556 36 556 36 567 0 c 1,11,-1
 495 0 l 1,12,13
 467 85 467 85 433.5 158.5 c 128,-1,14
 400 232 400 232 371 283 c 1,15,16
 338 280 338 280 302 280 c 2,17,-1
 218 280 l 1,18,-1
 151 0 l 1,19,-1
 83 0 l 1,20,-1
 246 680 l 1,21,22
 281 687 281 687 322.5 693 c 128,-1,23
 364 699 364 699 408 699 c 0,0,1
314 338 m 2,24,25
 439 338 439 338 506 385.5 c 128,-1,26
 573 433 573 433 573 519 c 0,27,28
 573 582 573 582 531 611 c 128,-1,29
 489 640 489 640 398 640 c 0,30,31
 372 640 372 640 347.5 637.5 c 128,-1,32
 323 635 323 635 303 633 c 1,33,-1
 231 338 l 1,34,-1
 314 338 l 2,24,25
EndSplineSet
EndChar

StartChar: S
Encoding: 83 83 54
Width: 487
Flags: W
LayerCount: 2
Fore
SplineSet
83 93 m 1,0,1
 112 71 112 71 153.5 57.5 c 128,-1,2
 195 44 195 44 240 44 c 0,3,4
 276 44 276 44 309.5 52.5 c 128,-1,5
 343 61 343 61 369.5 79.5 c 128,-1,6
 396 98 396 98 412 126.5 c 128,-1,7
 428 155 428 155 428 195 c 256,8,9
 428 235 428 235 409 260 c 128,-1,10
 390 285 390 285 361.5 303 c 128,-1,11
 333 321 333 321 299.5 336.5 c 128,-1,12
 266 352 266 352 237.5 374 c 128,-1,13
 209 396 209 396 190 427.5 c 128,-1,14
 171 459 171 459 171 510 c 0,15,16
 171 546 171 546 186 581.5 c 128,-1,17
 201 617 201 617 232.5 645 c 128,-1,18
 264 673 264 673 311.5 690.5 c 128,-1,19
 359 708 359 708 424 708 c 0,20,21
 467 708 467 708 505.5 699.5 c 128,-1,22
 544 691 544 691 589 669 c 1,23,-1
 554 612 l 1,24,25
 519 633 519 633 484.5 641.5 c 128,-1,26
 450 650 450 650 412 650 c 0,27,28
 379 650 379 650 348.5 642.5 c 128,-1,29
 318 635 318 635 294 619.5 c 128,-1,30
 270 604 270 604 255.5 578.5 c 128,-1,31
 241 553 241 553 241 517 c 0,32,33
 241 477 241 477 260 452 c 128,-1,34
 279 427 279 427 308 409 c 128,-1,35
 337 391 337 391 370 375.5 c 128,-1,36
 403 360 403 360 432 338.5 c 128,-1,37
 461 317 461 317 480 284 c 128,-1,38
 499 251 499 251 499 198 c 0,39,40
 499 159 499 159 483.5 120.5 c 128,-1,41
 468 82 468 82 434.5 52 c 128,-1,42
 401 22 401 22 349.5 3.5 c 128,-1,43
 298 -15 298 -15 226 -15 c 0,44,45
 178 -15 178 -15 132.5 -2 c 128,-1,46
 87 11 87 11 48 34 c 1,47,-1
 83 93 l 1,0,1
EndSplineSet
EndChar

StartChar: T
Encoding: 84 84 55
Width: 526
Flags: W
LayerCount: 2
Fore
SplineSet
382 634 m 1,0,-1
 170 634 l 1,1,-1
 183 693 l 1,2,-1
 676 693 l 1,3,-1
 662 634 l 1,4,-1
 450 634 l 1,5,-1
 298 0 l 1,6,-1
 230 0 l 1,7,-1
 382 634 l 1,0,-1
EndSplineSet
EndChar

StartChar: U
Encoding: 85 85 56
Width: 648
Flags: W
LayerCount: 2
Fore
SplineSet
250 693 m 1,0,-1
 318 693 l 1,1,-1
 217 274 l 2,2,3
 212 251 212 251 208.5 228.5 c 128,-1,4
 205 206 205 206 205 185 c 0,5,6
 205 155 205 155 212 129.5 c 128,-1,7
 219 104 219 104 236 85 c 128,-1,8
 253 66 253 66 280 55 c 128,-1,9
 307 44 307 44 348 44 c 0,10,11
 394 44 394 44 429 57 c 128,-1,12
 464 70 464 70 490.5 97.5 c 128,-1,13
 517 125 517 125 536 168 c 128,-1,14
 555 211 555 211 570 271 c 2,15,-1
 672 693 l 1,16,-1
 740 693 l 1,17,-1
 636 261 l 2,18,19
 618 188 618 188 593 135.5 c 128,-1,20
 568 83 568 83 532.5 49.5 c 128,-1,21
 497 16 497 16 450 0 c 128,-1,22
 403 -16 403 -16 342 -16 c 0,23,24
 289 -16 289 -16 250.5 -1.5 c 128,-1,25
 212 13 212 13 187 39 c 128,-1,26
 162 65 162 65 150 101 c 128,-1,27
 138 137 138 137 138 180 c 0,28,29
 138 224 138 224 150 272 c 2,30,-1
 250 693 l 1,0,-1
EndSplineSet
EndChar

StartChar: V
Encoding: 86 86 57
Width: 595
Flags: W
LayerCount: 2
Fore
SplineSet
330 0 m 1,0,-1
 267 0 l 1,1,2
 253 70 253 70 240.5 139 c 128,-1,3
 228 208 228 208 216.5 288 c 128,-1,4
 205 368 205 368 193.5 466 c 128,-1,5
 182 564 182 564 170 693 c 1,6,-1
 236 693 l 1,7,8
 245 589 245 589 254 502 c 128,-1,9
 263 415 263 415 272.5 340 c 128,-1,10
 282 265 282 265 292 200 c 128,-1,11
 302 135 302 135 314 76 c 1,12,13
 410 207 410 207 501.5 363 c 128,-1,14
 593 519 593 519 679 693 c 1,15,-1
 755 693 l 1,16,17
 692 576 692 576 636 477.5 c 128,-1,18
 580 379 580 379 528 294.5 c 128,-1,19
 476 210 476 210 427.5 137.5 c 128,-1,20
 379 65 379 65 330 0 c 1,0,-1
EndSplineSet
EndChar

StartChar: W
Encoding: 87 87 58
Width: 867
Flags: W
LayerCount: 2
Fore
SplineSet
185 0 m 1,0,1
 168 170 168 170 170.5 342 c 128,-1,2
 173 514 173 514 184 693 c 1,3,-1
 250 693 l 1,4,5
 240 542 240 542 236.5 387.5 c 128,-1,6
 233 233 233 233 239 75 c 1,7,8
 281 141 281 141 317.5 200 c 128,-1,9
 354 259 354 259 390 320.5 c 128,-1,10
 426 382 426 382 464 450.5 c 128,-1,11
 502 519 502 519 548 604 c 1,12,-1
 608 604 l 1,13,14
 613 529 613 529 620 455 c 128,-1,15
 627 381 627 381 634.5 312.5 c 128,-1,16
 642 244 642 244 650.5 183.5 c 128,-1,17
 659 123 659 123 667 76 c 1,18,19
 700 134 700 134 735 206.5 c 128,-1,20
 770 279 770 279 805 359 c 128,-1,21
 840 439 840 439 875 524 c 128,-1,22
 910 609 910 609 943 693 c 1,23,-1
 1017 693 l 1,24,25
 936 491 936 491 856 320.5 c 128,-1,26
 776 150 776 150 691 0 c 1,27,-1
 619 0 l 1,28,29
 600 105 600 105 584 229.5 c 128,-1,30
 568 354 568 354 557 499 c 1,31,32
 483 364 483 364 409.5 243 c 128,-1,33
 336 122 336 122 257 0 c 1,34,-1
 185 0 l 1,0,1
EndSplineSet
EndChar

StartChar: X
Encoding: 88 88 59
Width: 550
Flags: W
LayerCount: 2
Fore
SplineSet
325 366 m 1,0,-1
 184 693 l 1,1,-1
 258 693 l 1,2,-1
 377 412 l 1,3,4
 442 486 442 486 499 556.5 c 128,-1,5
 556 627 556 627 604 693 c 1,6,-1
 680 693 l 1,7,8
 610 602 610 602 542.5 522 c 128,-1,9
 475 442 475 442 403 362 c 1,10,11
 439 275 439 275 478 183.5 c 128,-1,12
 517 92 517 92 551 0 c 1,13,-1
 477 0 l 1,14,15
 467 31 467 31 453.5 67.5 c 128,-1,16
 440 104 440 104 424 144.5 c 128,-1,17
 408 185 408 185 390 227.5 c 128,-1,18
 372 270 372 270 353 312 c 1,19,-1
 92 0 l 1,20,-1
 10 0 l 1,21,-1
 325 366 l 1,0,-1
EndSplineSet
EndChar

StartChar: Y
Encoding: 89 89 60
Width: 555
Flags: W
LayerCount: 2
Fore
SplineSet
310 280 m 1,0,1
 291 331 291 331 273.5 385 c 128,-1,2
 256 439 256 439 239.5 492 c 128,-1,3
 223 545 223 545 208 596.5 c 128,-1,4
 193 648 193 648 180 693 c 1,5,-1
 254 693 l 1,6,7
 274 607 274 607 300 515.5 c 128,-1,8
 326 424 326 424 358 345 c 1,9,10
 392 383 392 383 430 427 c 128,-1,11
 468 471 468 471 505 517 c 128,-1,12
 542 563 542 563 575 608 c 128,-1,13
 608 653 608 653 634 693 c 1,14,-1
 715 693 l 1,15,16
 646 601 646 601 559 494 c 128,-1,17
 472 387 472 387 378 280 c 1,18,-1
 312 0 l 1,19,-1
 244 0 l 1,20,-1
 310 280 l 1,0,1
EndSplineSet
EndChar

StartChar: Z
Encoding: 90 90 61
Width: 547
Flags: W
LayerCount: 2
Fore
SplineSet
51 51 m 1,0,1
 80 92 80 92 120.5 141.5 c 128,-1,2
 161 191 161 191 207.5 245 c 128,-1,3
 254 299 254 299 303.5 354 c 128,-1,4
 353 409 353 409 401 460.5 c 128,-1,5
 449 512 449 512 493 556.5 c 128,-1,6
 537 601 537 601 572 634 c 1,7,-1
 209 634 l 1,8,-1
 223 693 l 1,9,-1
 667 693 l 1,10,-1
 653 631 l 1,11,12
 624 605 624 605 584 565 c 128,-1,13
 544 525 544 525 497.5 477.5 c 128,-1,14
 451 430 451 430 402 376 c 128,-1,15
 353 322 353 322 304.5 267.5 c 128,-1,16
 256 213 256 213 212 159.5 c 128,-1,17
 168 106 168 106 133 59 c 1,18,-1
 520 59 l 1,19,-1
 507 0 l 1,20,-1
 40 0 l 1,21,-1
 51 51 l 1,0,1
EndSplineSet
EndChar

StartChar: bracketleft
Encoding: 91 91 62
Width: 305
Flags: W
LayerCount: 2
Fore
SplineSet
291 783 m 1,0,-1
 487 783 l 1,1,-1
 476 733 l 1,2,-1
 340 733 l 1,3,-1
 130 -135 l 1,4,-1
 267 -135 l 1,5,-1
 254 -185 l 1,6,-1
 58 -185 l 1,7,-1
 291 783 l 1,0,-1
EndSplineSet
Substitution2: "'case' Case-Sensitive Forms lookup 18 subtable" Bracketleft
EndChar

StartChar: backslash
Encoding: 92 92 63
Width: 361
Flags: W
LayerCount: 2
Fore
SplineSet
283 -185 m 1,0,-1
 178 783 l 1,1,-1
 238 783 l 1,2,-1
 343 -185 l 1,3,-1
 283 -185 l 1,0,-1
EndSplineSet
Substitution2: "'case' Case-Sensitive Forms lookup 18 subtable" Backslash
EndChar

StartChar: bracketright
Encoding: 93 93 64
Width: 306
Flags: W
LayerCount: 2
Fore
SplineSet
-40 -135 m 1,0,-1
 96 -135 l 1,1,-1
 306 733 l 1,2,-1
 169 733 l 1,3,-1
 182 783 l 1,4,-1
 378 783 l 1,5,-1
 145 -185 l 1,6,-1
 -52 -185 l 1,7,-1
 -40 -135 l 1,0,-1
EndSplineSet
Substitution2: "'case' Case-Sensitive Forms lookup 18 subtable" Bracketright
EndChar

StartChar: asciicircum
Encoding: 94 94 65
Width: 564
Flags: W
LayerCount: 2
Fore
SplineSet
412 693 m 1,0,-1
 461 693 l 1,1,-1
 566 353 l 1,2,-1
 517 331 l 1,3,-1
 424 625 l 1,4,-1
 195 334 l 1,5,-1
 150 360 l 1,6,-1
 412 693 l 1,0,-1
EndSplineSet
EndChar

StartChar: underscore
Encoding: 95 95 66
Width: 549
Flags: W
LayerCount: 2
Fore
SplineSet
1 -131 m 1,0,-1
 501 -131 l 1,1,-1
 488 -185 l 1,2,-1
 -12 -185 l 1,3,-1
 1 -131 l 1,0,-1
EndSplineSet
EndChar

StartChar: grave
Encoding: 96 96 67
Width: 336
Flags: W
LayerCount: 2
Fore
SplineSet
266 773 m 1,0,-1
 412 618 l 1,1,-1
 377 583 l 1,2,-1
 213 715 l 1,3,-1
 266 773 l 1,0,-1
EndSplineSet
EndChar

StartChar: a
Encoding: 97 97 68
Width: 522
Flags: W
LayerCount: 2
Fore
SplineSet
487 461 m 1,0,1
 469 465 469 465 454 467 c 128,-1,2
 439 469 439 469 423 469 c 0,3,4
 361 469 361 469 313 445 c 128,-1,5
 265 421 265 421 232 382 c 128,-1,6
 199 343 199 343 181.5 293 c 128,-1,7
 164 243 164 243 164 191 c 0,8,9
 164 150 164 150 172 122.5 c 128,-1,10
 180 95 180 95 194 78.5 c 128,-1,11
 208 62 208 62 226.5 54.5 c 128,-1,12
 245 47 245 47 266 47 c 0,13,14
 307 47 307 47 343 66.5 c 128,-1,15
 379 86 379 86 411 122 c 1,16,17
 411 149 411 149 419 184 c 128,-1,18
 427 219 427 219 434 247 c 2,19,-1
 487 461 l 1,0,1
429 -6 m 1,20,21
 423 6 423 6 418.5 21.5 c 128,-1,22
 414 37 414 37 412 53 c 1,23,24
 377 19 377 19 338.5 3 c 128,-1,25
 300 -13 300 -13 259 -13 c 0,26,27
 227 -13 227 -13 198 -2 c 128,-1,28
 169 9 169 9 147 32 c 128,-1,29
 125 55 125 55 111.5 91.5 c 128,-1,30
 98 128 98 128 98 178 c 0,31,32
 98 258 98 258 124 323 c 128,-1,33
 150 388 150 388 196.5 433.5 c 128,-1,34
 243 479 243 479 306.5 504 c 128,-1,35
 370 529 370 529 445 529 c 0,36,37
 507 529 507 529 564 508 c 1,38,-1
 487 197 l 2,39,40
 481 172 481 172 477 150 c 128,-1,41
 473 128 473 128 473 108 c 0,42,43
 473 81 473 81 478 57 c 128,-1,44
 483 33 483 33 496 4 c 1,45,-1
 429 -6 l 1,20,21
EndSplineSet
Substitution2: "'case' Case-Sensitive Forms lookup 19 subtable" A
Substitution2: "'ordn' Ordinals in Latin lookup 9 subtable" ordfeminine
EndChar

StartChar: b
Encoding: 98 98 69
Width: 523
Flags: W
LayerCount: 2
Fore
SplineSet
154 59 m 1,0,1
 190 48 190 48 225 48 c 0,2,3
 290 48 290 48 339.5 74 c 128,-1,4
 389 100 389 100 422 141 c 128,-1,5
 455 182 455 182 472 232 c 128,-1,6
 489 282 489 282 489 331 c 0,7,8
 489 403 489 403 457.5 436 c 128,-1,9
 426 469 426 469 378 469 c 0,10,11
 346 469 346 469 309.5 454.5 c 128,-1,12
 273 440 273 440 238 413 c 1,13,-1
 154 59 l 1,0,1
257 489 m 1,14,15
 287 509 287 509 321 519 c 128,-1,16
 355 529 355 529 388 529 c 0,17,18
 473 529 473 529 514 477 c 128,-1,19
 555 425 555 425 555 336 c 0,20,21
 555 272 555 272 533 209.5 c 128,-1,22
 511 147 511 147 468 98 c 128,-1,23
 425 49 425 49 361 18.5 c 128,-1,24
 297 -12 297 -12 213 -12 c 0,25,26
 142 -12 142 -12 78 17 c 1,27,-1
 257 764 l 1,28,-1
 325 776 l 1,29,-1
 257 489 l 1,14,15
EndSplineSet
Substitution2: "'case' Case-Sensitive Forms lookup 19 subtable" B
EndChar

StartChar: c
Encoding: 99 99 70
Width: 455
Flags: W
LayerCount: 2
Fore
SplineSet
435 25 m 1,0,1
 415 12 415 12 373.5 0 c 128,-1,2
 332 -12 332 -12 281 -12 c 0,3,4
 190 -12 190 -12 144 40 c 128,-1,5
 98 92 98 92 98 183 c 0,6,7
 98 251 98 251 119 313.5 c 128,-1,8
 140 376 140 376 180.5 424 c 128,-1,9
 221 472 221 472 280 500.5 c 128,-1,10
 339 529 339 529 414 529 c 0,11,12
 466 529 466 529 517 512 c 1,13,-1
 490 453 l 1,14,15
 467 462 467 462 444.5 465.5 c 128,-1,16
 422 469 422 469 401 469 c 0,17,18
 348 469 348 469 304.5 446.5 c 128,-1,19
 261 424 261 424 230 385.5 c 128,-1,20
 199 347 199 347 182 296.5 c 128,-1,21
 165 246 165 246 165 190 c 0,22,23
 165 124 165 124 195.5 86 c 128,-1,24
 226 48 226 48 293 48 c 0,25,26
 314 48 314 48 335.5 52 c 128,-1,27
 357 56 357 56 375 61.5 c 128,-1,28
 393 67 393 67 407 73 c 128,-1,29
 421 79 421 79 428 84 c 1,30,-1
 435 25 l 1,0,1
EndSplineSet
Substitution2: "'case' Case-Sensitive Forms lookup 19 subtable" C
EndChar

StartChar: d
Encoding: 100 100 71
Width: 540
Flags: W
LayerCount: 2
Fore
SplineSet
493 464 m 1,0,1
 479 466 479 466 462 467.5 c 128,-1,2
 445 469 445 469 431 469 c 0,3,4
 361 469 361 469 310.5 443.5 c 128,-1,5
 260 418 260 418 227.5 377.5 c 128,-1,6
 195 337 195 337 179.5 287.5 c 128,-1,7
 164 238 164 238 164 190 c 0,8,9
 164 160 164 160 169.5 134.5 c 128,-1,10
 175 109 175 109 187 89.5 c 128,-1,11
 199 70 199 70 218 59 c 128,-1,12
 237 48 237 48 264 48 c 0,13,14
 289 48 289 48 311.5 55 c 128,-1,15
 334 62 334 62 353.5 72.5 c 128,-1,16
 373 83 373 83 389 96 c 128,-1,17
 405 109 405 109 416 121 c 1,18,19
 416 147 416 147 423 179.5 c 128,-1,20
 430 212 430 212 439 247 c 2,21,-1
 493 464 l 1,0,1
434 -6 m 1,22,23
 429 4 429 4 424 20.5 c 128,-1,24
 419 37 419 37 417 53 c 1,25,26
 408 43 408 43 393.5 31.5 c 128,-1,27
 379 20 379 20 359 10.5 c 128,-1,28
 339 1 339 1 314 -5.5 c 128,-1,29
 289 -12 289 -12 259 -12 c 0,30,31
 216 -12 216 -12 185.5 3.5 c 128,-1,32
 155 19 155 19 135.5 45 c 128,-1,33
 116 71 116 71 107 106.5 c 128,-1,34
 98 142 98 142 98 181 c 0,35,36
 98 244 98 244 118.5 306 c 128,-1,37
 139 368 139 368 181.5 417.5 c 128,-1,38
 224 467 224 467 289 498 c 128,-1,39
 354 529 354 529 442 529 c 0,40,41
 474 529 474 529 507 523 c 1,42,-1
 564 764 l 1,43,-1
 632 776 l 1,44,-1
 488 179 l 2,45,46
 483 161 483 161 480.5 144 c 128,-1,47
 478 127 478 127 478 111 c 0,48,49
 478 82 478 82 483 56 c 128,-1,50
 488 30 488 30 501 4 c 1,51,-1
 434 -6 l 1,22,23
EndSplineSet
Substitution2: "'case' Case-Sensitive Forms lookup 19 subtable" D
EndChar

StartChar: e
Encoding: 101 101 72
Width: 488
Flags: W
LayerCount: 2
Fore
SplineSet
540 396 m 0,0,1
 540 340 540 340 512.5 305 c 128,-1,2
 485 270 485 270 435.5 249.5 c 128,-1,3
 386 229 386 229 316.5 220 c 128,-1,4
 247 211 247 211 162 207 c 1,5,-1
 162 186 l 2,6,7
 162 157 162 157 168 132 c 128,-1,8
 174 107 174 107 190 88.5 c 128,-1,9
 206 70 206 70 234.5 59 c 128,-1,10
 263 48 263 48 308 48 c 0,11,12
 343 48 343 48 378.5 58 c 128,-1,13
 414 68 414 68 446 88 c 1,14,-1
 453 28 l 1,15,16
 419 9 419 9 378 -1.5 c 128,-1,17
 337 -12 337 -12 295 -12 c 0,18,19
 240 -12 240 -12 202.5 2 c 128,-1,20
 165 16 165 16 141.5 41 c 128,-1,21
 118 66 118 66 108 101 c 128,-1,22
 98 136 98 136 98 178 c 0,23,24
 98 242 98 242 117.5 305 c 128,-1,25
 137 368 137 368 175 418 c 128,-1,26
 213 468 213 468 268.5 498.5 c 128,-1,27
 324 529 324 529 395 529 c 0,28,29
 465 529 465 529 502.5 492.5 c 128,-1,30
 540 456 540 456 540 396 c 0,0,1
389 470 m 0,31,32
 349 470 349 470 314 453.5 c 128,-1,33
 279 437 279 437 251 409 c 128,-1,34
 223 381 223 381 202.5 344 c 128,-1,35
 182 307 182 307 172 266 c 1,36,37
 257 268 257 268 315 277 c 128,-1,38
 373 286 373 286 408.5 302 c 128,-1,39
 444 318 444 318 459 340.5 c 128,-1,40
 474 363 474 363 474 392 c 0,41,42
 474 431 474 431 450.5 450.5 c 128,-1,43
 427 470 427 470 389 470 c 0,31,32
EndSplineSet
Substitution2: "'case' Case-Sensitive Forms lookup 19 subtable" E
EndChar

StartChar: f
Encoding: 102 102 73
Width: 355
Flags: W
LayerCount: 2
Fore
SplineSet
171 102 m 2,0,1
 159 54 159 54 147.5 13.5 c 128,-1,2
 136 -27 136 -27 121.5 -62 c 128,-1,3
 107 -97 107 -97 88 -128 c 128,-1,4
 69 -159 69 -159 43 -189 c 1,5,-1
 -14 -180 l 1,6,7
 11 -146 11 -146 28.5 -117.5 c 128,-1,8
 46 -89 46 -89 58 -61 c 128,-1,9
 70 -33 70 -33 79 -4.5 c 128,-1,10
 88 24 88 24 96 58 c 2,11,-1
 220 573 l 2,12,13
 234 633 234 633 257.5 672 c 128,-1,14
 281 711 281 711 310.5 734 c 128,-1,15
 340 757 340 757 374 766.5 c 128,-1,16
 408 776 408 776 443 776 c 0,17,18
 477 776 477 776 501.5 770 c 128,-1,19
 526 764 526 764 547 756 c 1,20,-1
 516 704 l 1,21,22
 495 711 495 711 476.5 715 c 128,-1,23
 458 719 458 719 433 719 c 0,24,25
 407 719 407 719 385 712 c 128,-1,26
 363 705 363 705 344.5 688 c 128,-1,27
 326 671 326 671 311 642.5 c 128,-1,28
 296 614 296 614 285 571 c 2,29,-1
 271 517 l 1,30,-1
 444 517 l 1,31,-1
 432 461 l 1,32,-1
 257 461 l 1,33,-1
 171 102 l 2,0,1
EndSplineSet
Substitution2: "'case' Case-Sensitive Forms lookup 19 subtable" F
EndChar

StartChar: g
Encoding: 103 103 74
Width: 524
Flags: W
LayerCount: 2
Fore
SplineSet
492 462 m 1,0,1
 460 470 460 470 430 470 c 0,2,3
 361 470 361 470 310.5 446 c 128,-1,4
 260 422 260 422 227 384.5 c 128,-1,5
 194 347 194 347 178 301.5 c 128,-1,6
 162 256 162 256 162 214 c 0,7,8
 162 187 162 187 167 162.5 c 128,-1,9
 172 138 172 138 184 120 c 128,-1,10
 196 102 196 102 217 91.5 c 128,-1,11
 238 81 238 81 271 81 c 0,12,13
 305 81 305 81 341.5 93.5 c 128,-1,14
 378 106 378 106 411 127 c 1,15,-1
 492 462 l 1,0,1
44 -89 m 1,16,17
 65 -106 65 -106 104.5 -117 c 128,-1,18
 144 -128 144 -128 183 -128 c 0,19,20
 275 -128 275 -128 324.5 -86 c 128,-1,21
 374 -44 374 -44 389 33 c 2,22,-1
 394 59 l 1,23,24
 364 40 364 40 330 30.5 c 128,-1,25
 296 21 296 21 262 21 c 0,26,27
 219 21 219 21 187.5 35 c 128,-1,28
 156 49 156 49 136 73.5 c 128,-1,29
 116 98 116 98 106 130.5 c 128,-1,30
 96 163 96 163 96 200 c 0,31,32
 96 257 96 257 116.5 315.5 c 128,-1,33
 137 374 137 374 180 421.5 c 128,-1,34
 223 469 223 469 287.5 499 c 128,-1,35
 352 529 352 529 441 529 c 0,36,37
 477 529 477 529 509 521.5 c 128,-1,38
 541 514 541 514 566 500 c 1,39,-1
 454 34 l 2,40,41
 444 -8 444 -8 428 -48 c 128,-1,42
 412 -88 412 -88 381 -119 c 128,-1,43
 350 -150 350 -150 298.5 -169 c 128,-1,44
 247 -188 247 -188 166 -188 c 0,45,46
 150 -188 150 -188 130 -185.5 c 128,-1,47
 110 -183 110 -183 89.5 -178 c 128,-1,48
 69 -173 69 -173 50 -166.5 c 128,-1,49
 31 -160 31 -160 16 -151 c 1,50,-1
 44 -89 l 1,16,17
EndSplineSet
Substitution2: "'case' Case-Sensitive Forms lookup 19 subtable" G
EndChar

StartChar: h
Encoding: 104 104 75
Width: 545
Flags: W
LayerCount: 2
Fore
SplineSet
148 0 m 1,0,-1
 83 0 l 1,1,-1
 265 764 l 1,2,-1
 333 776 l 1,3,-1
 267 503 l 1,4,5
 330 529 330 529 386 529 c 0,6,7
 420 529 420 529 449 519 c 128,-1,8
 478 509 478 509 500 489 c 128,-1,9
 522 469 522 469 534.5 438.5 c 128,-1,10
 547 408 547 408 547 366 c 0,11,12
 547 340 547 340 543 312.5 c 128,-1,13
 539 285 539 285 532 257 c 2,14,-1
 470 0 l 1,15,-1
 405 0 l 1,16,-1
 460 230 l 2,17,18
 468 263 468 263 475 297 c 128,-1,19
 482 331 482 331 482 362 c 0,20,21
 482 392 482 392 472.5 412.5 c 128,-1,22
 463 433 463 433 447.5 445.5 c 128,-1,23
 432 458 432 458 411 463.5 c 128,-1,24
 390 469 390 469 367 469 c 0,25,26
 338 469 338 469 308.5 463 c 128,-1,27
 279 457 279 457 253 448 c 1,28,-1
 148 0 l 1,0,-1
EndSplineSet
Substitution2: "'case' Case-Sensitive Forms lookup 19 subtable" H
EndChar

StartChar: i
Encoding: 105 105 76
Width: 235
Flags: W
LayerCount: 2
Fore
SplineSet
208 517 m 1,0,-1
 273 517 l 1,1,-1
 148 0 l 1,2,-1
 83 0 l 1,3,-1
 208 517 l 1,0,-1
234 668 m 0,4,5
 234 694 234 694 248.5 707.5 c 128,-1,6
 263 721 263 721 280 721 c 0,7,8
 300 721 300 721 311 708.5 c 128,-1,9
 322 696 322 696 322 676 c 0,10,11
 322 652 322 652 306 639 c 128,-1,12
 290 626 290 626 274 626 c 0,13,14
 254 626 254 626 244 637.5 c 128,-1,15
 234 649 234 649 234 668 c 0,4,5
EndSplineSet
Substitution2: "'case' Case-Sensitive Forms lookup 19 subtable" I
Substitution2: "'locl' Localized Forms in Latin lookup 2 subtable" i.locl
Substitution2: "'locl' Localized Forms in Latin lookup 1 subtable" i.locl
Substitution2: "'locl' Localized Forms in Latin lookup 0 subtable" i.locl
EndChar

StartChar: j
Encoding: 106 106 77
Width: 235
Flags: W
LayerCount: 2
Fore
SplineSet
-86 -115 m 1,0,1
 -70 -123 -70 -123 -55.5 -127 c 128,-1,2
 -41 -131 -41 -131 -22 -131 c 0,3,4
 5 -131 5 -131 24 -120 c 128,-1,5
 43 -109 43 -109 57.5 -89.5 c 128,-1,6
 72 -70 72 -70 81.5 -43 c 128,-1,7
 91 -16 91 -16 99 16 c 2,8,-1
 218 517 l 1,9,-1
 283 517 l 1,10,-1
 166 28 l 2,11,12
 153 -26 153 -26 137.5 -66.5 c 128,-1,13
 122 -107 122 -107 99.5 -134 c 128,-1,14
 77 -161 77 -161 45.5 -174.5 c 128,-1,15
 14 -188 14 -188 -30 -188 c 0,16,17
 -55 -188 -55 -188 -72.5 -182.5 c 128,-1,18
 -90 -177 -90 -177 -101 -170 c 1,19,-1
 -86 -115 l 1,0,1
246 668 m 0,20,21
 246 694 246 694 260.5 707.5 c 128,-1,22
 275 721 275 721 292 721 c 0,23,24
 312 721 312 721 323 708.5 c 128,-1,25
 334 696 334 696 334 676 c 0,26,27
 334 652 334 652 318 639 c 128,-1,28
 302 626 302 626 286 626 c 0,29,30
 266 626 266 626 256 637.5 c 128,-1,31
 246 649 246 649 246 668 c 0,20,21
EndSplineSet
Substitution2: "'case' Case-Sensitive Forms lookup 19 subtable" J
EndChar

StartChar: k
Encoding: 107 107 78
Width: 499
Flags: W
LayerCount: 2
Fore
SplineSet
267 764 m 1,0,-1
 335 776 l 1,1,-1
 220 298 l 1,2,3
 256 322 256 322 293.5 352.5 c 128,-1,4
 331 383 331 383 365.5 413.5 c 128,-1,5
 400 444 400 444 428 471.5 c 128,-1,6
 456 499 456 499 472 517 c 1,7,-1
 551 517 l 1,8,9
 533 494 533 494 499.5 461 c 128,-1,10
 466 428 466 428 428.5 394 c 128,-1,11
 391 360 391 360 354.5 330.5 c 128,-1,12
 318 301 318 301 294 287 c 1,13,14
 328 261 328 261 360.5 226 c 128,-1,15
 393 191 393 191 420 152 c 128,-1,16
 447 113 447 113 468.5 73.5 c 128,-1,17
 490 34 490 34 502 0 c 1,18,-1
 432 0 l 1,19,20
 388 94 388 94 332 161.5 c 128,-1,21
 276 229 276 229 214 271 c 1,22,-1
 148 0 l 1,23,-1
 83 0 l 1,24,-1
 267 764 l 1,0,-1
EndSplineSet
Substitution2: "'case' Case-Sensitive Forms lookup 19 subtable" K
EndChar

StartChar: l
Encoding: 108 108 79
Width: 266
Flags: W
LayerCount: 2
Fore
SplineSet
251 764 m 1,0,-1
 318 776 l 1,1,-1
 194 255 l 2,2,3
 186 221 186 221 178.5 190.5 c 128,-1,4
 171 160 171 160 171 134 c 0,5,6
 171 118 171 118 174 104.5 c 128,-1,7
 177 91 177 91 186 80.5 c 128,-1,8
 195 70 195 70 211.5 62 c 128,-1,9
 228 54 228 54 254 48 c 1,10,-1
 239 -9 l 1,11,12
 166 0 166 0 137 35.5 c 128,-1,13
 108 71 108 71 108 125 c 0,14,15
 108 149 108 149 112 175.5 c 128,-1,16
 116 202 116 202 123 231 c 2,17,-1
 251 764 l 1,0,-1
EndSplineSet
Substitution2: "'case' Case-Sensitive Forms lookup 19 subtable" L
EndChar

StartChar: m
Encoding: 109 109 80
Width: 821
Flags: W
LayerCount: 2
Fore
SplineSet
202 499 m 1,0,1
 217 504 217 504 236 509 c 128,-1,2
 255 514 255 514 276 518 c 128,-1,3
 297 522 297 522 319 524.5 c 128,-1,4
 341 527 341 527 361 527 c 0,5,6
 403 527 403 527 437.5 515.5 c 128,-1,7
 472 504 472 504 495 474 c 1,8,9
 546 504 546 504 584.5 515.5 c 128,-1,10
 623 527 623 527 660 527 c 0,11,12
 694 527 694 527 723.5 519.5 c 128,-1,13
 753 512 753 512 775 494 c 128,-1,14
 797 476 797 476 810 445 c 128,-1,15
 823 414 823 414 823 366 c 0,16,17
 823 340 823 340 819 312.5 c 128,-1,18
 815 285 815 285 808 257 c 2,19,-1
 746 0 l 1,20,-1
 681 0 l 1,21,-1
 736 230 l 2,22,23
 744 263 744 263 751 297 c 128,-1,24
 758 331 758 331 758 362 c 256,25,26
 758 393 758 393 750 413.5 c 128,-1,27
 742 434 742 434 727.5 446 c 128,-1,28
 713 458 713 458 694 462.5 c 128,-1,29
 675 467 675 467 653 467 c 0,30,31
 632 467 632 467 598.5 459.5 c 128,-1,32
 565 452 565 452 518 422 c 1,33,34
 524 396 524 396 524 366 c 0,35,36
 524 340 524 340 520 312.5 c 128,-1,37
 516 285 516 285 509 257 c 2,38,-1
 447 0 l 1,39,-1
 382 0 l 1,40,-1
 437 230 l 2,41,42
 445 263 445 263 452 297 c 128,-1,43
 459 331 459 331 459 362 c 256,44,45
 459 393 459 393 451 413.5 c 128,-1,46
 443 434 443 434 428.5 446 c 128,-1,47
 414 458 414 458 395 462.5 c 128,-1,48
 376 467 376 467 354 467 c 0,49,50
 331 467 331 467 305 463 c 128,-1,51
 279 459 279 459 257 453 c 1,52,-1
 148 0 l 1,53,-1
 83 0 l 1,54,-1
 202 499 l 1,0,1
EndSplineSet
Substitution2: "'case' Case-Sensitive Forms lookup 19 subtable" M
EndChar

StartChar: n
Encoding: 110 110 81
Width: 546
Flags: W
LayerCount: 2
Fore
SplineSet
202 499 m 1,0,1
 241 510 241 510 285 518.5 c 128,-1,2
 329 527 329 527 372 527 c 0,3,4
 408 527 408 527 440 519.5 c 128,-1,5
 472 512 472 512 496 493 c 128,-1,6
 520 474 520 474 534 443 c 128,-1,7
 548 412 548 412 548 366 c 0,8,9
 548 340 548 340 544 312.5 c 128,-1,10
 540 285 540 285 533 257 c 2,11,-1
 471 0 l 1,12,-1
 406 0 l 1,13,-1
 461 230 l 2,14,15
 469 263 469 263 475.5 297 c 128,-1,16
 482 331 482 331 483 362 c 0,17,18
 483 393 483 393 473.5 413 c 128,-1,19
 464 433 464 433 447.5 445 c 128,-1,20
 431 457 431 457 409 462 c 128,-1,21
 387 467 387 467 363 467 c 0,22,23
 337 467 337 467 310 463 c 128,-1,24
 283 459 283 459 257 453 c 1,25,-1
 148 0 l 1,26,-1
 83 0 l 1,27,-1
 202 499 l 1,0,1
EndSplineSet
Substitution2: "'case' Case-Sensitive Forms lookup 19 subtable" N
EndChar

StartChar: o
Encoding: 111 111 82
Width: 526
Flags: W
LayerCount: 2
Fore
SplineSet
164 166 m 0,0,1
 164 107 164 107 197 77 c 128,-1,2
 230 47 230 47 276 47 c 0,3,4
 312 47 312 47 350 65.5 c 128,-1,5
 388 84 388 84 419.5 121.5 c 128,-1,6
 451 159 451 159 471.5 216 c 128,-1,7
 492 273 492 273 492 350 c 0,8,9
 492 409 492 409 459 439 c 128,-1,10
 426 469 426 469 380 469 c 0,11,12
 344 469 344 469 306 450.5 c 128,-1,13
 268 432 268 432 236.5 394.5 c 128,-1,14
 205 357 205 357 184.5 300 c 128,-1,15
 164 243 164 243 164 166 c 0,0,1
558 355 m 0,16,17
 558 261 558 261 531.5 192 c 128,-1,18
 505 123 505 123 463.5 77.5 c 128,-1,19
 422 32 422 32 371.5 10 c 128,-1,20
 321 -12 321 -12 272 -12 c 0,21,22
 237 -12 237 -12 205.5 -1 c 128,-1,23
 174 10 174 10 150 32 c 128,-1,24
 126 54 126 54 112 86.5 c 128,-1,25
 98 119 98 119 98 162 c 0,26,27
 98 256 98 256 124.5 325 c 128,-1,28
 151 394 151 394 192.5 439 c 128,-1,29
 234 484 234 484 284.5 506 c 128,-1,30
 335 528 335 528 384 528 c 0,31,32
 419 528 419 528 450.5 517 c 128,-1,33
 482 506 482 506 506 484 c 128,-1,34
 530 462 530 462 544 429.5 c 128,-1,35
 558 397 558 397 558 355 c 0,16,17
EndSplineSet
Substitution2: "'case' Case-Sensitive Forms lookup 19 subtable" O
Substitution2: "'ordn' Ordinals in Latin lookup 9 subtable" ordmasculine
EndChar

StartChar: p
Encoding: 112 112 83
Width: 519
Flags: W
LayerCount: 2
Fore
SplineSet
164 60 m 1,0,1
 195 51 195 51 227 51 c 0,2,3
 289 51 289 51 337 75.5 c 128,-1,4
 385 100 385 100 418 139.5 c 128,-1,5
 451 179 451 179 468 228.5 c 128,-1,6
 485 278 485 278 485 329 c 0,7,8
 485 404 485 404 452 438.5 c 128,-1,9
 419 473 419 473 353 473 c 0,10,11
 330 473 330 473 306.5 469 c 128,-1,12
 283 465 283 465 258 458 c 1,13,-1
 164 60 l 1,0,1
202 496 m 1,14,15
 244 511 244 511 286 520 c 128,-1,16
 328 529 328 529 369 529 c 0,17,18
 551 529 551 529 551 339 c 0,19,20
 551 272 551 272 529 209 c 128,-1,21
 507 146 507 146 464.5 97.5 c 128,-1,22
 422 49 422 49 360.5 20 c 128,-1,23
 299 -9 299 -9 220 -9 c 0,24,25
 181 -9 181 -9 148 0 c 1,26,-1
 104 -185 l 1,27,-1
 38 -185 l 1,28,-1
 202 496 l 1,14,15
EndSplineSet
Substitution2: "'case' Case-Sensitive Forms lookup 19 subtable" P
EndChar

StartChar: q
Encoding: 113 113 84
Width: 539
Flags: W
LayerCount: 2
Fore
SplineSet
496 463 m 1,0,1
 485 465 485 465 472.5 468 c 128,-1,2
 460 471 460 471 450 471 c 0,3,4
 385 471 385 471 332.5 449.5 c 128,-1,5
 280 428 280 428 242.5 390 c 128,-1,6
 205 352 205 352 184.5 299.5 c 128,-1,7
 164 247 164 247 164 185 c 0,8,9
 164 164 164 164 168 139.5 c 128,-1,10
 172 115 172 115 184 94 c 128,-1,11
 196 73 196 73 218.5 59 c 128,-1,12
 241 45 241 45 278 45 c 0,13,14
 313 45 313 45 347 57.5 c 128,-1,15
 381 70 381 70 406 90 c 1,16,-1
 496 463 l 1,0,1
388 16 m 1,17,18
 365 3 365 3 332.5 -4.5 c 128,-1,19
 300 -12 300 -12 264 -12 c 0,20,21
 219 -12 219 -12 187.5 3.5 c 128,-1,22
 156 19 156 19 136 45 c 128,-1,23
 116 71 116 71 107 105 c 128,-1,24
 98 139 98 139 98 176 c 0,25,26
 98 239 98 239 118.5 302.5 c 128,-1,27
 139 366 139 366 183.5 416 c 128,-1,28
 228 466 228 466 298.5 497.5 c 128,-1,29
 369 529 369 529 470 529 c 0,30,31
 489 529 489 529 519.5 523 c 128,-1,32
 550 517 550 517 571 503 c 1,33,-1
 405 -185 l 1,34,-1
 340 -185 l 1,35,-1
 388 16 l 1,17,18
EndSplineSet
Substitution2: "'case' Case-Sensitive Forms lookup 19 subtable" Q
EndChar

StartChar: r
Encoding: 114 114 85
Width: 366
Flags: W
LayerCount: 2
Fore
SplineSet
201 494 m 1,0,1
 239 509 239 509 284.5 519 c 128,-1,2
 330 529 330 529 374 529 c 0,3,4
 397 529 397 529 418 526 c 128,-1,5
 439 523 439 523 458 516 c 1,6,-1
 441 457 l 1,7,8
 402 469 402 469 361 469 c 0,9,10
 335 469 335 469 309 465 c 128,-1,11
 283 461 283 461 257 453 c 1,12,-1
 148 0 l 1,13,-1
 83 0 l 1,14,-1
 201 494 l 1,0,1
EndSplineSet
Substitution2: "'case' Case-Sensitive Forms lookup 19 subtable" R
EndChar

StartChar: s
Encoding: 115 115 86
Width: 400
Flags: W
LayerCount: 2
Fore
SplineSet
76 82 m 1,0,1
 113 62 113 62 141 55 c 128,-1,2
 169 48 169 48 204 48 c 0,3,4
 229 48 229 48 252 53.5 c 128,-1,5
 275 59 275 59 292 70 c 128,-1,6
 309 81 309 81 319 99 c 128,-1,7
 329 117 329 117 329 141 c 0,8,9
 329 167 329 167 314.5 184 c 128,-1,10
 300 201 300 201 278.5 213.5 c 128,-1,11
 257 226 257 226 232 238 c 128,-1,12
 207 250 207 250 185.5 266 c 128,-1,13
 164 282 164 282 149.5 306 c 128,-1,14
 135 330 135 330 135 368 c 0,15,16
 135 411 135 411 151 441.5 c 128,-1,17
 167 472 167 472 194 491.5 c 128,-1,18
 221 511 221 511 256 520 c 128,-1,19
 291 529 291 529 328 529 c 0,20,21
 360 529 360 529 391.5 523.5 c 128,-1,22
 423 518 423 518 452 507 c 1,23,-1
 426 449 l 1,24,25
 405 458 405 458 378 463.5 c 128,-1,26
 351 469 351 469 322 469 c 0,27,28
 298 469 298 469 275.5 464 c 128,-1,29
 253 459 253 459 236 447.5 c 128,-1,30
 219 436 219 436 208.5 418.5 c 128,-1,31
 198 401 198 401 198 376 c 0,32,33
 198 350 198 350 212.5 333 c 128,-1,34
 227 316 227 316 248 303 c 128,-1,35
 269 290 269 290 294.5 278.5 c 128,-1,36
 320 267 320 267 341 251 c 128,-1,37
 362 235 362 235 376.5 212.5 c 128,-1,38
 391 190 391 190 391 155 c 0,39,40
 391 111 391 111 374.5 79 c 128,-1,41
 358 47 358 47 331 27 c 128,-1,42
 304 7 304 7 269 -2.5 c 128,-1,43
 234 -12 234 -12 197 -12 c 0,44,45
 158 -12 158 -12 119 -3.5 c 128,-1,46
 80 5 80 5 48 23 c 1,47,-1
 76 82 l 1,0,1
EndSplineSet
Substitution2: "'case' Case-Sensitive Forms lookup 19 subtable" S
EndChar

StartChar: t
Encoding: 116 116 87
Width: 377
Flags: W
LayerCount: 2
Fore
SplineSet
238 669 m 1,0,-1
 306 681 l 1,1,-1
 267 517 l 1,2,-1
 449 517 l 1,3,-1
 436 461 l 1,4,-1
 253 461 l 1,5,-1
 192 208 l 2,6,7
 187 190 187 190 183.5 169.5 c 128,-1,8
 180 149 180 149 180 129 c 0,9,10
 180 84 180 84 202 66 c 128,-1,11
 224 48 224 48 257 48 c 0,12,13
 289 48 289 48 312.5 55 c 128,-1,14
 336 62 336 62 362 74 c 1,15,-1
 368 15 l 1,16,17
 341 4 341 4 307.5 -4 c 128,-1,18
 274 -12 274 -12 241 -12 c 0,19,20
 215 -12 215 -12 192 -6 c 128,-1,21
 169 0 169 0 151.5 14 c 128,-1,22
 134 28 134 28 123.5 51 c 128,-1,23
 113 74 113 74 113 109 c 0,24,25
 113 152 113 152 127 208 c 2,26,-1
 238 669 l 1,0,-1
EndSplineSet
Substitution2: "'case' Case-Sensitive Forms lookup 19 subtable" T
EndChar

StartChar: u
Encoding: 117 117 88
Width: 522
Flags: W
LayerCount: 2
Fore
SplineSet
248 -12 m 0,0,1
 205 -12 205 -12 176 -1 c 128,-1,2
 147 10 147 10 130 29.5 c 128,-1,3
 113 49 113 49 105.5 75.5 c 128,-1,4
 98 102 98 102 98 133 c 0,5,6
 98 162 98 162 103 194.5 c 128,-1,7
 108 227 108 227 116 260 c 2,8,-1
 178 517 l 1,9,-1
 243 517 l 1,10,-1
 188 289 l 2,11,12
 180 254 180 254 170.5 215.5 c 128,-1,13
 161 177 161 177 161 142 c 0,14,15
 161 122 161 122 165.5 105 c 128,-1,16
 170 88 170 88 181 75 c 128,-1,17
 192 62 192 62 210 55 c 128,-1,18
 228 48 228 48 256 48 c 0,19,20
 304 48 304 48 340.5 67 c 128,-1,21
 377 86 377 86 409 122 c 1,22,23
 409 149 409 149 417 184 c 128,-1,24
 425 219 425 219 432 247 c 2,25,-1
 499 517 l 1,26,-1
 564 517 l 1,27,-1
 485 197 l 2,28,29
 479 172 479 172 475 150 c 128,-1,30
 471 128 471 128 471 108 c 0,31,32
 471 81 471 81 476 57 c 128,-1,33
 481 33 481 33 494 4 c 1,34,-1
 427 -6 l 1,35,36
 421 6 421 6 416.5 21.5 c 128,-1,37
 412 37 412 37 410 53 c 1,38,39
 375 19 375 19 335.5 3.5 c 128,-1,40
 296 -12 296 -12 248 -12 c 0,0,1
EndSplineSet
Substitution2: "'case' Case-Sensitive Forms lookup 19 subtable" U
EndChar

StartChar: v
Encoding: 118 118 89
Width: 455
Flags: W
LayerCount: 2
Fore
SplineSet
197 0 m 1,0,1
 172 111 172 111 152 244 c 128,-1,2
 132 377 132 377 130 517 c 1,3,-1
 194 517 l 1,4,5
 195 463 195 463 199 403 c 128,-1,6
 203 343 203 343 210 283 c 128,-1,7
 217 223 217 223 226.5 167 c 128,-1,8
 236 111 236 111 248 67 c 1,9,10
 278 107 278 107 313.5 162.5 c 128,-1,11
 349 218 349 218 383 279.5 c 128,-1,12
 417 341 417 341 445.5 402.5 c 128,-1,13
 474 464 474 464 491 517 c 1,14,-1
 555 517 l 1,15,16
 535 454 535 454 503 385 c 128,-1,17
 471 316 471 316 432 248 c 128,-1,18
 393 180 393 180 348.5 116 c 128,-1,19
 304 52 304 52 261 0 c 1,20,-1
 197 0 l 1,0,1
EndSplineSet
Substitution2: "'case' Case-Sensitive Forms lookup 19 subtable" V
EndChar

StartChar: w
Encoding: 119 119 90
Width: 763
Flags: W
LayerCount: 2
Fore
SplineSet
246 0 m 1,0,-1
 178 0 l 1,1,2
 157 110 157 110 144.5 241 c 128,-1,3
 132 372 132 372 130 517 c 1,4,-1
 194 517 l 1,5,6
 195 464 195 464 198 401.5 c 128,-1,7
 201 339 201 339 206 277 c 128,-1,8
 211 215 211 215 217 160 c 128,-1,9
 223 105 223 105 231 68 c 1,10,11
 263 113 263 113 296.5 168 c 128,-1,12
 330 223 330 223 360.5 282.5 c 128,-1,13
 391 342 391 342 417.5 402 c 128,-1,14
 444 462 444 462 462 517 c 1,15,-1
 529 517 l 1,16,17
 529 468 529 468 531.5 410 c 128,-1,18
 534 352 534 352 538 292 c 128,-1,19
 542 232 542 232 547.5 174 c 128,-1,20
 553 116 553 116 560 68 c 1,21,22
 584 95 584 95 618.5 149.5 c 128,-1,23
 653 204 653 204 688 268.5 c 128,-1,24
 723 333 723 333 753.5 399 c 128,-1,25
 784 465 784 465 799 517 c 1,26,-1
 863 517 l 1,27,28
 840 443 840 443 803 365.5 c 128,-1,29
 766 288 766 288 724.5 218.5 c 128,-1,30
 683 149 683 149 642 91.5 c 128,-1,31
 601 34 601 34 570 0 c 1,32,-1
 502 0 l 1,33,34
 492 88 492 88 483 190 c 128,-1,35
 474 292 474 292 472 391 c 1,36,37
 452 344 452 344 425.5 290.5 c 128,-1,38
 399 237 399 237 369 184.5 c 128,-1,39
 339 132 339 132 307.5 84 c 128,-1,40
 276 36 276 36 246 0 c 1,0,-1
EndSplineSet
Substitution2: "'case' Case-Sensitive Forms lookup 19 subtable" W
EndChar

StartChar: x
Encoding: 120 120 91
Width: 452
Flags: W
LayerCount: 2
Fore
SplineSet
254 271 m 1,0,-1
 126 517 l 1,1,-1
 202 517 l 1,2,-1
 303 308 l 1,3,4
 349 364 349 364 392.5 419.5 c 128,-1,5
 436 475 436 475 462 517 c 1,6,-1
 534 517 l 1,7,8
 490 451 490 451 436.5 385 c 128,-1,9
 383 319 383 319 333 261 c 1,10,11
 346 236 346 236 362 205 c 128,-1,12
 378 174 378 174 394.5 139.5 c 128,-1,13
 411 105 411 105 425.5 69.5 c 128,-1,14
 440 34 440 34 451 0 c 1,15,-1
 383 0 l 1,16,17
 376 23 376 23 365 51.5 c 128,-1,18
 354 80 354 80 340.5 110 c 128,-1,19
 327 140 327 140 313 169.5 c 128,-1,20
 299 199 299 199 287 223 c 1,21,-1
 91 0 l 1,22,-1
 12 0 l 1,23,-1
 254 271 l 1,0,-1
EndSplineSet
Substitution2: "'case' Case-Sensitive Forms lookup 19 subtable" X
EndChar

StartChar: y
Encoding: 121 121 92
Width: 452
Flags: W
LayerCount: 2
Fore
SplineSet
-36 -116 m 1,0,1
 -9 -131 -9 -131 25 -131 c 0,2,3
 76 -131 76 -131 125 -103 c 128,-1,4
 174 -75 174 -75 216 -18 c 1,5,6
 174 115 174 115 150 252 c 128,-1,7
 126 389 126 389 122 517 c 1,8,-1
 190 517 l 1,9,10
 192 469 192 469 196.5 412 c 128,-1,11
 201 355 201 355 210 293 c 128,-1,12
 219 231 219 231 232 166.5 c 128,-1,13
 245 102 245 102 264 41 c 1,14,15
 309 112 309 112 345 184.5 c 128,-1,16
 381 257 381 257 408 321 c 128,-1,17
 435 385 435 385 452.5 436.5 c 128,-1,18
 470 488 470 488 478 517 c 1,19,-1
 542 517 l 1,20,21
 536 496 536 496 520 445.5 c 128,-1,22
 504 395 504 395 477 328 c 128,-1,23
 450 261 450 261 411.5 183.5 c 128,-1,24
 373 106 373 106 323 32 c 0,25,26
 246 -83 246 -83 174 -135.5 c 128,-1,27
 102 -188 102 -188 24 -188 c 0,28,29
 6 -188 6 -188 -15 -185 c 128,-1,30
 -36 -182 -36 -182 -59 -170 c 1,31,-1
 -36 -116 l 1,0,1
EndSplineSet
Substitution2: "'case' Case-Sensitive Forms lookup 19 subtable" Y
EndChar

StartChar: z
Encoding: 122 122 93
Width: 428
Flags: W
LayerCount: 2
Fore
SplineSet
51 46 m 1,0,1
 71 78 71 78 101 116 c 128,-1,2
 131 154 131 154 165.5 193 c 128,-1,3
 200 232 200 232 237 271 c 128,-1,4
 274 310 274 310 309.5 345 c 128,-1,5
 345 380 345 380 376.5 410 c 128,-1,6
 408 440 408 440 432 461 c 1,7,-1
 163 461 l 1,8,-1
 175 517 l 1,9,-1
 528 517 l 1,10,-1
 516 466 l 1,11,12
 495 447 495 447 462 416 c 128,-1,13
 429 385 429 385 391 347.5 c 128,-1,14
 353 310 353 310 313 268.5 c 128,-1,15
 273 227 273 227 236.5 188 c 128,-1,16
 200 149 200 149 171 114.5 c 128,-1,17
 142 80 142 80 127 56 c 1,18,-1
 422 56 l 1,19,-1
 410 0 l 1,20,-1
 40 0 l 1,21,-1
 51 46 l 1,0,1
EndSplineSet
Substitution2: "'case' Case-Sensitive Forms lookup 19 subtable" Z
EndChar

StartChar: braceleft
Encoding: 123 123 94
Width: 305
Flags: W
LayerCount: 2
Fore
SplineSet
241 -195 m 1,0,1
 179 -195 179 -195 144.5 -170.5 c 128,-1,2
 110 -146 110 -146 110 -93 c 0,3,4
 110 -82 110 -82 113 -63.5 c 128,-1,5
 116 -45 116 -45 121 -25 c 2,6,-1
 159 129 l 2,7,8
 164 147 164 147 166.5 163.5 c 128,-1,9
 169 180 169 180 169 194 c 0,10,11
 169 223 169 223 155.5 242 c 128,-1,12
 142 261 142 261 108 264 c 1,13,-1
 120 313 l 1,14,15
 149 313 149 313 168.5 327.5 c 128,-1,16
 188 342 188 342 201 364 c 128,-1,17
 214 386 214 386 222 411 c 128,-1,18
 230 436 230 436 235 457 c 2,19,-1
 261 561 l 2,20,21
 275 618 275 618 288 658 c 128,-1,22
 301 698 301 698 323 723.5 c 128,-1,23
 345 749 345 749 381 761 c 128,-1,24
 417 773 417 773 477 773 c 1,25,-1
 464 723 l 1,26,27
 439 723 439 723 418.5 719.5 c 128,-1,28
 398 716 398 716 381.5 704.5 c 128,-1,29
 365 693 365 693 352.5 671.5 c 128,-1,30
 340 650 340 650 331 615 c 2,31,-1
 302 497 l 2,32,33
 290 450 290 450 279 414.5 c 128,-1,34
 268 379 268 379 255 353 c 128,-1,35
 242 327 242 327 225.5 310 c 128,-1,36
 209 293 209 293 186 283 c 1,37,38
 211 268 211 268 218.5 246 c 128,-1,39
 226 224 226 224 226 199 c 0,40,41
 226 181 226 181 222.5 162.5 c 128,-1,42
 219 144 219 144 215 127 c 2,43,-1
 175 -38 l 2,44,45
 168 -65 168 -65 168 -85 c 0,46,47
 168 -117 168 -117 190 -131 c 128,-1,48
 212 -145 212 -145 255 -145 c 1,49,-1
 241 -195 l 1,50,-1
 241 -195 l 1,0,1
EndSplineSet
Substitution2: "'case' Case-Sensitive Forms lookup 18 subtable" Braceleft
EndChar

StartChar: bar
Encoding: 124 124 95
Width: 269
Flags: W
LayerCount: 2
Fore
SplineSet
291 783 m 1,0,-1
 351 783 l 1,1,-1
 118 -185 l 1,2,-1
 58 -185 l 1,3,-1
 291 783 l 1,0,-1
EndSplineSet
EndChar

StartChar: braceright
Encoding: 125 125 96
Width: 305
Flags: W
LayerCount: 2
Fore
SplineSet
218 773 m 1,0,1
 280 773 280 773 314.5 748.5 c 128,-1,2
 349 724 349 724 349 671 c 0,3,4
 349 660 349 660 346 641.5 c 128,-1,5
 343 623 343 623 338 603 c 2,6,-1
 300 449 l 2,7,8
 295 431 295 431 292.5 414.5 c 128,-1,9
 290 398 290 398 290 384 c 0,10,11
 290 355 290 355 303.5 336 c 128,-1,12
 317 317 317 317 351 314 c 1,13,-1
 339 265 l 1,14,15
 310 265 310 265 290.5 250.5 c 128,-1,16
 271 236 271 236 258 214 c 128,-1,17
 245 192 245 192 237 167 c 128,-1,18
 229 142 229 142 224 121 c 2,19,-1
 198 17 l 2,20,21
 184 -40 184 -40 171 -80.5 c 128,-1,22
 158 -121 158 -121 136 -146.5 c 128,-1,23
 114 -172 114 -172 78 -183.5 c 128,-1,24
 42 -195 42 -195 -18 -195 c 1,25,-1
 -5 -145 l 1,26,27
 20 -145 20 -145 40.5 -141.5 c 128,-1,28
 61 -138 61 -138 77.5 -126.5 c 128,-1,29
 94 -115 94 -115 106.5 -93.5 c 128,-1,30
 119 -72 119 -72 128 -37 c 2,31,-1
 157 81 l 2,32,33
 169 128 169 128 180 163.5 c 128,-1,34
 191 199 191 199 204 225 c 128,-1,35
 217 251 217 251 233.5 268 c 128,-1,36
 250 285 250 285 273 295 c 1,37,38
 248 310 248 310 240.5 332 c 128,-1,39
 233 354 233 354 233 379 c 0,40,41
 233 397 233 397 236.5 415.5 c 128,-1,42
 240 434 240 434 244 451 c 2,43,-1
 284 616 l 2,44,45
 291 643 291 643 291 663 c 0,46,47
 291 695 291 695 269 709 c 128,-1,48
 247 723 247 723 204 723 c 1,49,-1
 218 773 l 1,50,-1
 218 773 l 1,0,1
EndSplineSet
Substitution2: "'case' Case-Sensitive Forms lookup 18 subtable" Braceright
EndChar

StartChar: asciitilde
Encoding: 126 126 97
Width: 564
Flags: W
LayerCount: 2
Fore
SplineSet
106 236 m 1,0,1
 113 253 113 253 125 275 c 128,-1,2
 137 297 137 297 155.5 316.5 c 128,-1,3
 174 336 174 336 199 349.5 c 128,-1,4
 224 363 224 363 257 363 c 0,5,6
 289 363 289 363 311.5 348.5 c 128,-1,7
 334 334 334 334 353.5 316.5 c 128,-1,8
 373 299 373 299 393 284.5 c 128,-1,9
 413 270 413 270 440 270 c 0,10,11
 461 270 461 270 477 280.5 c 128,-1,12
 493 291 493 291 504.5 305 c 128,-1,13
 516 319 516 319 523 332.5 c 128,-1,14
 530 346 530 346 533 352 c 1,15,-1
 581 336 l 1,16,17
 575 320 575 320 563.5 298 c 128,-1,18
 552 276 552 276 533 256.5 c 128,-1,19
 514 237 514 237 488 223.5 c 128,-1,20
 462 210 462 210 428 210 c 0,21,22
 396 210 396 210 373.5 224.5 c 128,-1,23
 351 239 351 239 331.5 256.5 c 128,-1,24
 312 274 312 274 292.5 288.5 c 128,-1,25
 273 303 273 303 247 303 c 0,26,27
 226 303 226 303 210 292 c 128,-1,28
 194 281 194 281 182.5 267 c 128,-1,29
 171 253 171 253 164 239.5 c 128,-1,30
 157 226 157 226 154 220 c 1,31,-1
 106 236 l 1,0,1
EndSplineSet
EndChar

StartChar: Euro
Encoding: 8364 8364 98
Width: 564
Flags: W
LayerCount: 2
Fore
SplineSet
255 237 m 1,0,1
 254 227 254 227 254 218 c 128,-1,2
 254 209 254 209 254 200 c 0,3,4
 254 173 254 173 258 145.5 c 128,-1,5
 262 118 262 118 276 96 c 128,-1,6
 290 74 290 74 317 60 c 128,-1,7
 344 46 344 46 390 46 c 0,8,9
 435 46 435 46 467.5 53.5 c 128,-1,10
 500 61 500 61 523 71 c 1,11,-1
 525 15 l 1,12,13
 505 7 505 7 464 -3 c 128,-1,14
 423 -13 423 -13 374 -13 c 0,15,16
 317 -13 317 -13 280 5.5 c 128,-1,17
 243 24 243 24 221.5 53.5 c 128,-1,18
 200 83 200 83 191.5 119.5 c 128,-1,19
 183 156 183 156 183 191 c 0,20,21
 183 202 183 202 183 214 c 128,-1,22
 183 226 183 226 184 237 c 1,23,-1
 99 237 l 1,24,-1
 111 290 l 1,25,-1
 188 290 l 1,26,27
 196 352 196 352 212 409 c 1,28,-1
 140 409 l 1,29,-1
 152 462 l 1,30,-1
 230 462 l 1,31,32
 251 516 251 516 282 561 c 128,-1,33
 313 606 313 606 353 638 c 128,-1,34
 393 670 393 670 442 687.5 c 128,-1,35
 491 705 491 705 549 705 c 0,36,37
 577 705 577 705 601 701 c 128,-1,38
 625 697 625 697 656 686 c 1,39,-1
 627 628 l 1,40,41
 585 647 585 647 532 647 c 0,42,43
 490 647 490 647 455 633 c 128,-1,44
 420 619 420 619 391.5 594.5 c 128,-1,45
 363 570 363 570 340 536 c 128,-1,46
 317 502 317 502 301 462 c 1,47,-1
 542 462 l 1,48,-1
 520 409 l 1,49,-1
 282 409 l 1,50,51
 265 350 265 350 259 290 c 1,52,-1
 467 290 l 1,53,-1
 445 237 l 1,54,-1
 255 237 l 1,0,1
EndSplineSet
EndChar

StartChar: quotesinglbase
Encoding: 8218 8218 99
Width: 227
Flags: W
LayerCount: 2
Fore
SplineSet
70 -124 m 1,0,-1
 18 -103 l 1,1,2
 56 -51 56 -51 77 -5.5 c 128,-1,3
 98 40 98 40 108 95 c 1,4,-1
 189 95 l 1,5,6
 177 38 177 38 147 -16.5 c 128,-1,7
 117 -71 117 -71 70 -124 c 1,0,-1
EndSplineSet
EndChar

StartChar: florin
Encoding: 402 402 100
Width: 367
Flags: W
LayerCount: 2
Fore
SplineSet
232 573 m 2,0,1
 246 633 246 633 269.5 672 c 128,-1,2
 293 711 293 711 322.5 734 c 128,-1,3
 352 757 352 757 386 766.5 c 128,-1,4
 420 776 420 776 455 776 c 0,5,6
 489 776 489 776 513.5 770 c 128,-1,7
 538 764 538 764 559 756 c 1,8,-1
 528 704 l 1,9,10
 507 711 507 711 488.5 715 c 128,-1,11
 470 719 470 719 445 719 c 0,12,13
 419 719 419 719 397 712 c 128,-1,14
 375 705 375 705 356.5 688 c 128,-1,15
 338 671 338 671 323 642.5 c 128,-1,16
 308 614 308 614 297 571 c 2,17,-1
 283 517 l 1,18,-1
 456 517 l 1,19,-1
 444 461 l 1,20,-1
 269 461 l 1,21,-1
 166 28 l 2,22,23
 153 -26 153 -26 137.5 -66.5 c 128,-1,24
 122 -107 122 -107 99.5 -134 c 128,-1,25
 77 -161 77 -161 45.5 -174.5 c 128,-1,26
 14 -188 14 -188 -30 -188 c 0,27,28
 -55 -188 -55 -188 -72.5 -182.5 c 128,-1,29
 -90 -177 -90 -177 -101 -170 c 1,30,-1
 -86 -115 l 1,31,32
 -70 -123 -70 -123 -55.5 -127 c 128,-1,33
 -41 -131 -41 -131 -22 -131 c 0,34,35
 5 -131 5 -131 24 -120 c 128,-1,36
 43 -109 43 -109 57 -89.5 c 128,-1,37
 71 -70 71 -70 81 -43 c 128,-1,38
 91 -16 91 -16 99 16 c 2,39,-1
 232 573 l 2,0,1
EndSplineSet
EndChar

StartChar: dagger
Encoding: 8224 8224 103
Width: 449
Flags: W
LayerCount: 2
Fore
SplineSet
171 -144 m 1,0,1
 178 -78 178 -78 190 -10 c 128,-1,2
 202 58 202 58 223 143 c 2,3,-1
 287 411 l 1,4,-1
 128 411 l 1,5,-1
 142 468 l 1,6,-1
 302 468 l 1,7,-1
 356 693 l 1,8,-1
 415 693 l 1,9,-1
 361 468 l 1,10,-1
 521 468 l 1,11,-1
 507 411 l 1,12,-1
 348 411 l 1,13,-1
 283 143 l 2,14,15
 262 58 262 58 241.5 -10.5 c 128,-1,16
 221 -79 221 -79 198 -144 c 1,17,-1
 171 -144 l 1,0,1
EndSplineSet
EndChar

StartChar: daggerdbl
Encoding: 8225 8225 104
Width: 462
Flags: W
LayerCount: 2
Fore
SplineSet
193 -145 m 1,0,1
 200 -77 200 -77 213 -8.5 c 128,-1,2
 226 60 226 60 248 147 c 1,3,-1
 88 147 l 1,4,-1
 101 204 l 1,5,-1
 261 204 l 1,6,-1
 310 411 l 1,7,-1
 151 411 l 1,8,-1
 165 468 l 1,9,-1
 325 468 l 1,10,-1
 379 693 l 1,11,-1
 438 693 l 1,12,-1
 384 468 l 1,13,-1
 544 468 l 1,14,-1
 530 411 l 1,15,-1
 370 411 l 1,16,-1
 320 204 l 1,17,-1
 480 204 l 1,18,-1
 466 147 l 1,19,-1
 307 147 l 1,20,21
 287 60 287 60 267 -9 c 128,-1,22
 247 -78 247 -78 222 -145 c 1,23,-1
 193 -145 l 1,0,1
EndSplineSet
EndChar

StartChar: circumflex
Encoding: 710 710 105
Width: 336
Flags: W
LayerCount: 2
Fore
SplineSet
186 583 m 1,0,-1
 160 616 l 1,1,-1
 329 763 l 1,2,-1
 428 616 l 1,3,-1
 394 583 l 1,4,-1
 313 679 l 1,5,-1
 186 583 l 1,0,-1
EndSplineSet
EndChar

StartChar: perthousand
Encoding: 8240 8240 106
Width: 1130
Flags: W
LayerCount: 2
Fore
SplineSet
946 36 m 0,0,1
 982 36 982 36 1006.5 55 c 128,-1,2
 1031 74 1031 74 1046.5 100.5 c 128,-1,3
 1062 127 1062 127 1069 155.5 c 128,-1,4
 1076 184 1076 184 1076 204 c 0,5,6
 1076 223 1076 223 1074 239 c 128,-1,7
 1072 255 1072 255 1065 267 c 128,-1,8
 1058 279 1058 279 1046 285.5 c 128,-1,9
 1034 292 1034 292 1013 292 c 0,10,11
 977 292 977 292 952.5 273 c 128,-1,12
 928 254 928 254 913 227.5 c 128,-1,13
 898 201 898 201 891.5 172 c 128,-1,14
 885 143 885 143 885 124 c 0,15,16
 885 106 885 106 887 90 c 128,-1,17
 889 74 889 74 895 62 c 128,-1,18
 901 50 901 50 913 43 c 128,-1,19
 925 36 925 36 946 36 c 0,0,1
829 116 m 0,20,21
 829 151 829 151 840.5 191 c 128,-1,22
 852 231 852 231 875 264.5 c 128,-1,23
 898 298 898 298 933 320.5 c 128,-1,24
 968 343 968 343 1016 343 c 0,25,26
 1073 343 1073 343 1102.5 309.5 c 128,-1,27
 1132 276 1132 276 1132 213 c 0,28,29
 1132 178 1132 178 1120.5 138 c 128,-1,30
 1109 98 1109 98 1086 64 c 128,-1,31
 1063 30 1063 30 1027.5 7.5 c 128,-1,32
 992 -15 992 -15 944 -15 c 0,33,34
 887 -15 887 -15 858 19 c 128,-1,35
 829 53 829 53 829 116 c 0,20,21
275 400 m 0,36,37
 311 400 311 400 335.5 419 c 128,-1,38
 360 438 360 438 375.5 464.5 c 128,-1,39
 391 491 391 491 398 519.5 c 128,-1,40
 405 548 405 548 405 568 c 0,41,42
 405 587 405 587 403 603 c 128,-1,43
 401 619 401 619 394 631 c 128,-1,44
 387 643 387 643 375 649.5 c 128,-1,45
 363 656 363 656 342 656 c 0,46,47
 306 656 306 656 281.5 637 c 128,-1,48
 257 618 257 618 242 591.5 c 128,-1,49
 227 565 227 565 220.5 536 c 128,-1,50
 214 507 214 507 214 488 c 0,51,52
 214 470 214 470 216 454 c 128,-1,53
 218 438 218 438 224 426 c 128,-1,54
 230 414 230 414 242 407 c 128,-1,55
 254 400 254 400 275 400 c 0,36,37
709 693 m 1,56,-1
 779 693 l 1,57,-1
 231 0 l 1,58,-1
 161 0 l 1,59,-1
 709 693 l 1,56,-1
158 480 m 0,60,61
 158 515 158 515 169.5 555 c 128,-1,62
 181 595 181 595 204 628.5 c 128,-1,63
 227 662 227 662 262 684.5 c 128,-1,64
 297 707 297 707 345 707 c 0,65,66
 402 707 402 707 431.5 673.5 c 128,-1,67
 461 640 461 640 461 577 c 0,68,69
 461 542 461 542 449.5 502 c 128,-1,70
 438 462 438 462 415 428 c 128,-1,71
 392 394 392 394 356.5 371.5 c 128,-1,72
 321 349 321 349 273 349 c 0,73,74
 216 349 216 349 187 383 c 128,-1,75
 158 417 158 417 158 480 c 0,60,61
601 36 m 0,76,77
 637 36 637 36 661.5 55 c 128,-1,78
 686 74 686 74 701.5 100.5 c 128,-1,79
 717 127 717 127 724 155.5 c 128,-1,80
 731 184 731 184 731 204 c 0,81,82
 731 223 731 223 729 239 c 128,-1,83
 727 255 727 255 720 267 c 128,-1,84
 713 279 713 279 701 285.5 c 128,-1,85
 689 292 689 292 668 292 c 0,86,87
 632 292 632 292 607.5 273 c 128,-1,88
 583 254 583 254 568 227.5 c 128,-1,89
 553 201 553 201 546.5 172 c 128,-1,90
 540 143 540 143 540 124 c 0,91,92
 540 106 540 106 542 90 c 128,-1,93
 544 74 544 74 550 62 c 128,-1,94
 556 50 556 50 568 43 c 128,-1,95
 580 36 580 36 601 36 c 0,76,77
484 116 m 0,96,97
 484 151 484 151 495.5 191 c 128,-1,98
 507 231 507 231 530 264.5 c 128,-1,99
 553 298 553 298 588 320.5 c 128,-1,100
 623 343 623 343 671 343 c 0,101,102
 728 343 728 343 757.5 309.5 c 128,-1,103
 787 276 787 276 787 213 c 0,104,105
 787 178 787 178 775.5 138 c 128,-1,106
 764 98 764 98 741 64 c 128,-1,107
 718 30 718 30 682.5 7.5 c 128,-1,108
 647 -15 647 -15 599 -15 c 0,109,110
 542 -15 542 -15 513 19 c 128,-1,111
 484 53 484 53 484 116 c 0,96,97
EndSplineSet
EndChar

StartChar: guilsinglleft
Encoding: 8249 8249 108
Width: 301
Flags: W
LayerCount: 2
Fore
SplineSet
232 72 m 1,0,-1
 118 284 l 1,1,-1
 307 495 l 1,2,-1
 343 465 l 1,3,-1
 195 280 l 1,4,-1
 278 94 l 1,5,-1
 232 72 l 1,0,-1
EndSplineSet
Substitution2: "'case' Case-Sensitive Forms lookup 18 subtable" Guilsinglleft
EndChar

StartChar: OE
Encoding: 338 338 109
Width: 948
Flags: W
LayerCount: 2
Fore
SplineSet
544 0 m 1,0,1
 516 -4 516 -4 489.5 -6 c 128,-1,2
 463 -8 463 -8 437 -8 c 0,3,4
 284 -8 284 -8 211 62.5 c 128,-1,5
 138 133 138 133 138 277 c 0,6,7
 138 366 138 366 168 443 c 128,-1,8
 198 520 198 520 257.5 577 c 128,-1,9
 317 634 317 634 404 667 c 128,-1,10
 491 700 491 700 605 700 c 0,11,12
 628 700 628 700 651 698 c 128,-1,13
 674 696 674 696 698 693 c 2,14,-1
 1060 693 l 1,15,-1
 1047 634 l 1,16,-1
 741 634 l 1,17,-1
 682 393 l 1,18,-1
 953 393 l 1,19,-1
 940 335 l 1,20,-1
 671 335 l 1,21,-1
 602 59 l 1,22,-1
 931 59 l 1,23,-1
 919 0 l 1,24,-1
 544 0 l 1,0,1
434 53 m 0,25,26
 459 53 459 53 484.5 55 c 128,-1,27
 510 57 510 57 536 60 c 1,28,-1
 674 636 l 1,29,30
 656 638 656 638 638 639 c 128,-1,31
 620 640 620 640 603 640 c 0,32,33
 507 640 507 640 433.5 614 c 128,-1,34
 360 588 360 588 310.5 540 c 128,-1,35
 261 492 261 492 235.5 425.5 c 128,-1,36
 210 359 210 359 210 278 c 0,37,38
 210 157 210 157 264.5 105 c 128,-1,39
 319 53 319 53 434 53 c 0,25,26
EndSplineSet
EndChar

StartChar: quoteleft
Encoding: 8216 8216 110
Width: 236
Flags: W
LayerCount: 2
Fore
SplineSet
314 751 m 1,0,-1
 364 731 l 1,1,2
 346 705 346 705 332 681.5 c 128,-1,3
 318 658 318 658 307.5 634.5 c 128,-1,4
 297 611 297 611 290 586 c 128,-1,5
 283 561 283 561 279 532 c 1,6,-1
 198 532 l 1,7,8
 204 562 204 562 216.5 592.5 c 128,-1,9
 229 623 229 623 244.5 651 c 128,-1,10
 260 679 260 679 278 704.5 c 128,-1,11
 296 730 296 730 314 751 c 1,0,-1
EndSplineSet
EndChar

StartChar: quoteright
Encoding: 8217 8217 111
Width: 236
Flags: W
LayerCount: 2
Fore
SplineSet
237 522 m 1,0,-1
 187 542 l 1,1,2
 205 568 205 568 219 591.5 c 128,-1,3
 233 615 233 615 243.5 638.5 c 128,-1,4
 254 662 254 662 261 687 c 128,-1,5
 268 712 268 712 272 741 c 1,6,-1
 353 741 l 1,7,8
 347 711 347 711 334.5 680.5 c 128,-1,9
 322 650 322 650 306.5 622 c 128,-1,10
 291 594 291 594 273 568.5 c 128,-1,11
 255 543 255 543 237 522 c 1,0,-1
EndSplineSet
EndChar

StartChar: bullet
Encoding: 8226 8226 114
Width: 336
Flags: W
LayerCount: 2
Fore
SplineSet
388 353 m 256,0,1
 388 329 388 329 379.5 307 c 128,-1,2
 371 285 371 285 355.5 268.5 c 128,-1,3
 340 252 340 252 318 242.5 c 128,-1,4
 296 233 296 233 268 233 c 256,5,6
 240 233 240 233 217.5 242.5 c 128,-1,7
 195 252 195 252 179.5 268.5 c 128,-1,8
 164 285 164 285 156 307 c 128,-1,9
 148 329 148 329 148 353 c 256,10,11
 148 377 148 377 156 398.5 c 128,-1,12
 164 420 164 420 179.5 436.5 c 128,-1,13
 195 453 195 453 217.5 463 c 128,-1,14
 240 473 240 473 268 473 c 256,15,16
 296 473 296 473 318 463 c 128,-1,17
 340 453 340 453 355.5 436.5 c 128,-1,18
 371 420 371 420 379.5 398.5 c 128,-1,19
 388 377 388 377 388 353 c 256,0,1
EndSplineSet
Substitution2: "'case' Case-Sensitive Forms lookup 18 subtable" Bullet
EndChar

StartChar: endash
Encoding: 8211 8211 115
Width: 489
Flags: W
LayerCount: 2
Fore
SplineSet
72 334 m 1,0,-1
 571 334 l 1,1,-1
 558 277 l 1,2,-1
 58 277 l 1,3,-1
 72 334 l 1,0,-1
EndSplineSet
Substitution2: "'case' Case-Sensitive Forms lookup 18 subtable" Endash
EndChar

StartChar: emdash
Encoding: 8212 8212 116
Width: 990
Flags: W
LayerCount: 2
Fore
SplineSet
72 334 m 1,0,-1
 1072 334 l 1,1,-1
 1057 277 l 1,2,-1
 58 277 l 1,3,-1
 72 334 l 1,0,-1
EndSplineSet
Substitution2: "'case' Case-Sensitive Forms lookup 18 subtable" Emdash
EndChar

StartChar: tilde
Encoding: 732 732 117
Width: 336
Flags: W
LayerCount: 2
Fore
SplineSet
385 629 m 0,0,1
 366 629 366 629 352 635 c 128,-1,2
 338 641 338 641 325 648.5 c 128,-1,3
 312 656 312 656 298.5 662 c 128,-1,4
 285 668 285 668 267 668 c 0,5,6
 245 668 245 668 231 656.5 c 128,-1,7
 217 645 217 645 201 622 c 1,8,-1
 165 644 l 1,9,10
 173 658 173 658 183 672 c 128,-1,11
 193 686 193 686 206.5 697 c 128,-1,12
 220 708 220 708 238 714.5 c 128,-1,13
 256 721 256 721 281 721 c 0,14,15
 299 721 299 721 313 715 c 128,-1,16
 327 709 327 709 340 701.5 c 128,-1,17
 353 694 353 694 367 688 c 128,-1,18
 381 682 381 682 399 682 c 0,19,20
 421 682 421 682 435 693.5 c 128,-1,21
 449 705 449 705 465 728 c 1,22,-1
 501 705 l 1,23,24
 493 691 493 691 483 677 c 128,-1,25
 473 663 473 663 459.5 652.5 c 128,-1,26
 446 642 446 642 428 635.5 c 128,-1,27
 410 629 410 629 385 629 c 0,0,1
EndSplineSet
EndChar

StartChar: trademark
Encoding: 8482 8482 118
Width: 709
Flags: W
LayerCount: 2
Fore
SplineSet
396 693 m 1,0,-1
 396 653 l 1,1,-1
 289 653 l 1,2,-1
 289 369 l 1,3,-1
 245 369 l 1,4,-1
 245 653 l 1,5,-1
 138 653 l 1,6,-1
 138 693 l 1,7,-1
 396 693 l 1,0,-1
608 475 m 1,8,9
 622 503 622 503 639.5 535.5 c 128,-1,10
 657 568 657 568 673.5 598 c 128,-1,11
 690 628 690 628 704.5 653.5 c 128,-1,12
 719 679 719 679 728 693 c 1,13,-1
 763 693 l 1,14,15
 767 669 767 669 771.5 634.5 c 128,-1,16
 776 600 776 600 779.5 557.5 c 128,-1,17
 783 515 783 515 786 467 c 128,-1,18
 789 419 789 419 791 369 c 1,19,-1
 746 369 l 1,20,21
 743 441 743 441 738.5 503 c 128,-1,22
 734 565 734 565 728 610 c 1,23,24
 716 589 716 589 700 561 c 128,-1,25
 684 533 684 533 669 505 c 128,-1,26
 654 477 654 477 641.5 452.5 c 128,-1,27
 629 428 629 428 622 414 c 1,28,-1
 590 414 l 1,29,30
 583 428 583 428 570.5 452.5 c 128,-1,31
 558 477 558 477 543 505 c 128,-1,32
 528 533 528 533 512 561 c 128,-1,33
 496 589 496 589 484 610 c 1,34,35
 478 565 478 565 473.5 503 c 128,-1,36
 469 441 469 441 466 369 c 1,37,-1
 423 369 l 1,38,39
 424 419 424 419 427.5 467 c 128,-1,40
 431 515 431 515 434.5 557.5 c 128,-1,41
 438 600 438 600 442.5 634.5 c 128,-1,42
 447 669 447 669 451 693 c 1,43,-1
 488 693 l 1,44,45
 497 679 497 679 511.5 653.5 c 128,-1,46
 526 628 526 628 542.5 598 c 128,-1,47
 559 568 559 568 576.5 535.5 c 128,-1,48
 594 503 594 503 608 475 c 1,8,9
EndSplineSet
EndChar

StartChar: guilsinglright
Encoding: 8250 8250 120
Width: 301
Flags: W
LayerCount: 2
Fore
SplineSet
219 495 m 1,0,-1
 333 283 l 1,1,-1
 144 72 l 1,2,-1
 108 102 l 1,3,-1
 256 287 l 1,4,-1
 173 473 l 1,5,-1
 219 495 l 1,0,-1
EndSplineSet
Substitution2: "'case' Case-Sensitive Forms lookup 18 subtable" Guilsinglright
EndChar

StartChar: oe
Encoding: 339 339 121
Width: 846
Flags: W
LayerCount: 2
Fore
SplineSet
384 529 m 0,0,1
 450 529 450 529 487 501 c 128,-1,2
 524 473 524 473 540 413 c 1,3,4
 582 471 582 471 639 500 c 128,-1,5
 696 529 696 529 756 529 c 0,6,7
 785 529 785 529 811 520.5 c 128,-1,8
 837 512 837 512 856.5 495.5 c 128,-1,9
 876 479 876 479 887 454 c 128,-1,10
 898 429 898 429 898 396 c 0,11,12
 898 337 898 337 874 301 c 128,-1,13
 850 265 850 265 803.5 244 c 128,-1,14
 757 223 757 223 688.5 213.5 c 128,-1,15
 620 204 620 204 530 200 c 1,16,17
 530 195 530 195 529.5 191 c 128,-1,18
 529 187 529 187 529 183 c 0,19,20
 529 139 529 139 540 112 c 128,-1,21
 551 85 551 85 570 71 c 128,-1,22
 589 57 589 57 614.5 52.5 c 128,-1,23
 640 48 640 48 669 48 c 0,24,25
 731 48 731 48 804 83 c 1,26,-1
 811 23 l 1,27,28
 781 9 781 9 738 -1.5 c 128,-1,29
 695 -12 695 -12 650 -12 c 0,30,31
 621 -12 621 -12 593.5 -6.5 c 128,-1,32
 566 -1 566 -1 542.5 12.5 c 128,-1,33
 519 26 519 26 501.5 48 c 128,-1,34
 484 70 484 70 475 103 c 1,35,36
 433 41 433 41 380 14.5 c 128,-1,37
 327 -12 327 -12 272 -12 c 0,38,39
 226 -12 226 -12 193 2.5 c 128,-1,40
 160 17 160 17 139 43 c 128,-1,41
 118 69 118 69 108 104 c 128,-1,42
 98 139 98 139 98 181 c 0,43,44
 98 246 98 246 118.5 308.5 c 128,-1,45
 139 371 139 371 176.5 420 c 128,-1,46
 214 469 214 469 266.5 499 c 128,-1,47
 319 529 319 529 384 529 c 0,0,1
380 469 m 0,48,49
 333 469 333 469 293.5 444 c 128,-1,50
 254 419 254 419 225.5 378.5 c 128,-1,51
 197 338 197 338 181 286.5 c 128,-1,52
 165 235 165 235 165 183 c 0,53,54
 165 120 165 120 191 83 c 128,-1,55
 217 46 217 46 276 46 c 0,56,57
 312 46 312 46 348.5 64.5 c 128,-1,58
 385 83 385 83 414.5 121 c 128,-1,59
 444 159 444 159 463 216 c 128,-1,60
 482 273 482 273 482 350 c 0,61,62
 482 409 482 409 454 439 c 128,-1,63
 426 469 426 469 380 469 c 0,48,49
832 392 m 0,64,65
 832 430 832 430 808.5 450 c 128,-1,66
 785 470 785 470 746 470 c 0,67,68
 716 470 716 470 685 458 c 128,-1,69
 654 446 654 446 626 421.5 c 128,-1,70
 598 397 598 397 575.5 360 c 128,-1,71
 553 323 553 323 542 272 c 2,72,-1
 540 263 l 1,73,74
 625 264 625 264 681.5 273 c 128,-1,75
 738 282 738 282 771.5 298 c 128,-1,76
 805 314 805 314 818.5 337.5 c 128,-1,77
 832 361 832 361 832 392 c 0,64,65
EndSplineSet
Substitution2: "'case' Case-Sensitive Forms lookup 19 subtable" OE
EndChar

StartChar: exclamdown
Encoding: 161 161 124
Width: 266
Flags: W
LayerCount: 2
Fore
SplineSet
222 295 m 1,0,1
 212 269 212 269 199.5 227.5 c 128,-1,2
 187 186 187 186 174.5 143 c 128,-1,3
 162 100 162 100 152 62.5 c 128,-1,4
 142 25 142 25 138 9 c 2,5,-1
 92 -185 l 1,6,-1
 162 -185 l 1,7,-1
 208 8 l 2,8,9
 228 93 228 93 239 161 c 128,-1,10
 250 229 250 229 258 295 c 1,11,-1
 222 295 l 1,0,1
282 520 m 0,12,13
 308 520 308 520 320 505.5 c 128,-1,14
 332 491 332 491 332 472 c 0,15,16
 332 450 332 450 317 430.5 c 128,-1,17
 302 411 302 411 275 411 c 0,18,19
 249 411 249 411 237 425.5 c 128,-1,20
 225 440 225 440 225 459 c 0,21,22
 225 481 225 481 240 500.5 c 128,-1,23
 255 520 255 520 282 520 c 0,12,13
EndSplineSet
Substitution2: "'case' Case-Sensitive Forms lookup 18 subtable" Exclamdown
EndChar

StartChar: cent
Encoding: 162 162 125
Width: 564
Flags: W
LayerCount: 2
Fore
SplineSet
291 34 m 1,0,1
 252 42 252 42 224.5 60 c 128,-1,2
 197 78 197 78 180.5 102.5 c 128,-1,3
 164 127 164 127 156.5 157.5 c 128,-1,4
 149 188 149 188 149 221 c 0,5,6
 149 277 149 277 166.5 331 c 128,-1,7
 184 385 184 385 217.5 430 c 128,-1,8
 251 475 251 475 300.5 507 c 128,-1,9
 350 539 350 539 414 550 c 1,10,-1
 449 693 l 1,11,-1
 508 693 l 1,12,-1
 474 552 l 1,13,14
 499 552 499 552 529 545.5 c 128,-1,15
 559 539 559 539 584 528 c 1,16,-1
 558 471 l 1,17,18
 531 484 531 484 505 489.5 c 128,-1,19
 479 495 479 495 453 495 c 0,20,21
 403 495 403 495 360 474 c 128,-1,22
 317 453 317 453 284.5 416 c 128,-1,23
 252 379 252 379 233.5 328.5 c 128,-1,24
 215 278 215 278 215 220 c 0,25,26
 215 185 215 185 226.5 160 c 128,-1,27
 238 135 238 135 257.5 119 c 128,-1,28
 277 103 277 103 303 95.5 c 128,-1,29
 329 88 329 88 357 88 c 0,30,31
 388 88 388 88 419.5 96 c 128,-1,32
 451 104 451 104 478 119 c 1,33,-1
 482 61 l 1,34,35
 467 53 467 53 430 42 c 128,-1,36
 393 31 393 31 349 31 c 1,37,-1
 315 -109 l 1,38,-1
 256 -109 l 1,39,-1
 291 34 l 1,0,1
EndSplineSet
EndChar

StartChar: sterling
Encoding: 163 163 126
Width: 564
Flags: W
LayerCount: 2
Fore
SplineSet
146 364 m 1,0,-1
 242 364 l 1,1,-1
 264 456 l 2,2,3
 281 528 281 528 306 576 c 128,-1,4
 331 624 331 624 363 653 c 128,-1,5
 395 682 395 682 434 694 c 128,-1,6
 473 706 473 706 519 706 c 0,7,8
 553 706 553 706 585 697 c 128,-1,9
 617 688 617 688 643 673 c 1,10,-1
 612 619 l 1,11,12
 569 645 569 645 507 645 c 0,13,14
 476 645 476 645 449.5 636.5 c 128,-1,15
 423 628 423 628 401 606.5 c 128,-1,16
 379 585 379 585 361.5 548.5 c 128,-1,17
 344 512 344 512 331 457 c 2,18,-1
 309 364 l 1,19,-1
 505 364 l 1,20,-1
 491 309 l 1,21,-1
 296 309 l 1,22,23
 285 256 285 256 264.5 188.5 c 128,-1,24
 244 121 244 121 218 57 c 1,25,-1
 517 57 l 1,26,-1
 503 0 l 1,27,-1
 129 0 l 1,28,29
 155 69 155 69 183.5 149 c 128,-1,30
 212 229 212 229 229 309 c 1,31,-1
 133 309 l 1,32,-1
 146 364 l 1,0,-1
EndSplineSet
EndChar

StartChar: currency
Encoding: 164 164 127
Width: 564
Flags: W
LayerCount: 2
Fore
SplineSet
183 347 m 256,0,1
 183 380 183 380 192 409.5 c 128,-1,2
 201 439 201 439 218 462 c 1,3,-1
 144 538 l 1,4,-1
 184 579 l 1,5,-1
 260 501 l 1,6,7
 283 518 283 518 311 527 c 128,-1,8
 339 536 339 536 370 536 c 256,9,10
 401 536 401 536 429 527 c 128,-1,11
 457 518 457 518 480 501 c 1,12,-1
 556 579 l 1,13,-1
 596 538 l 1,14,-1
 522 462 l 1,15,16
 539 439 539 439 548 409.5 c 128,-1,17
 557 380 557 380 557 347 c 256,18,19
 557 314 557 314 548 284.5 c 128,-1,20
 539 255 539 255 522 232 c 1,21,-1
 596 156 l 1,22,-1
 556 115 l 1,23,-1
 480 193 l 1,24,25
 457 176 457 176 429 167 c 128,-1,26
 401 158 401 158 370 158 c 256,27,28
 339 158 339 158 311 167 c 128,-1,29
 283 176 283 176 260 193 c 1,30,-1
 184 115 l 1,31,-1
 144 156 l 1,32,-1
 218 232 l 1,33,34
 201 255 201 255 192 284.5 c 128,-1,35
 183 314 183 314 183 347 c 256,0,1
499 347 m 256,36,37
 499 377 499 377 489 402 c 128,-1,38
 479 427 479 427 461.5 445 c 128,-1,39
 444 463 444 463 420.5 473 c 128,-1,40
 397 483 397 483 370 483 c 256,41,42
 343 483 343 483 319.5 473 c 128,-1,43
 296 463 296 463 278.5 445 c 128,-1,44
 261 427 261 427 251 402 c 128,-1,45
 241 377 241 377 241 347 c 256,46,47
 241 317 241 317 251 292 c 128,-1,48
 261 267 261 267 278.5 249 c 128,-1,49
 296 231 296 231 319.5 221 c 128,-1,50
 343 211 343 211 370 211 c 256,51,52
 397 211 397 211 420.5 221 c 128,-1,53
 444 231 444 231 461.5 249 c 128,-1,54
 479 267 479 267 489 292 c 128,-1,55
 499 317 499 317 499 347 c 256,36,37
EndSplineSet
EndChar

StartChar: yen
Encoding: 165 165 128
Width: 564
Flags: W
LayerCount: 2
Fore
SplineSet
362 372 m 1,0,1
 434 451 434 451 498.5 532 c 128,-1,2
 563 613 563 613 622 693 c 1,3,-1
 688 693 l 1,4,5
 656 650 656 650 624 607 c 128,-1,6
 592 564 592 564 557.5 520 c 128,-1,7
 523 476 523 476 484.5 431 c 128,-1,8
 446 386 446 386 401 340 c 1,9,-1
 557 340 l 1,10,-1
 544 287 l 1,11,-1
 376 287 l 1,12,-1
 348 168 l 1,13,-1
 516 168 l 1,14,-1
 503 115 l 1,15,-1
 335 115 l 1,16,-1
 307 0 l 1,17,-1
 242 0 l 1,18,-1
 270 115 l 1,19,-1
 103 115 l 1,20,-1
 116 168 l 1,21,-1
 283 168 l 1,22,-1
 311 287 l 1,23,-1
 144 287 l 1,24,-1
 157 340 l 1,25,-1
 310 340 l 1,26,27
 272 433 272 433 243 519.5 c 128,-1,28
 214 606 214 606 192 693 c 1,29,-1
 261 693 l 1,30,31
 279 608 279 608 303.5 529.5 c 128,-1,32
 328 451 328 451 362 372 c 1,0,1
EndSplineSet
EndChar

StartChar: brokenbar
Encoding: 166 166 129
Width: 263
Flags: W
LayerCount: 2
Fore
SplineSet
295 783 m 1,0,-1
 357 783 l 1,1,-1
 267 407 l 1,2,-1
 204 407 l 1,3,-1
 295 783 l 1,0,-1
152 190 m 1,4,-1
 214 190 l 1,5,-1
 124 -185 l 1,6,-1
 62 -185 l 1,7,-1
 152 190 l 1,4,-1
EndSplineSet
EndChar

StartChar: section
Encoding: 167 167 130
Width: 492
Flags: W
LayerCount: 2
Fore
SplineSet
131 284 m 0,0,1
 131 341 131 341 167 384.5 c 128,-1,2
 203 428 203 428 264 463 c 1,3,4
 249 482 249 482 241 503.5 c 128,-1,5
 233 525 233 525 233 545 c 0,6,7
 233 588 233 588 251 619 c 128,-1,8
 269 650 269 650 298.5 669.5 c 128,-1,9
 328 689 328 689 366 698.5 c 128,-1,10
 404 708 404 708 444 708 c 0,11,12
 482 708 482 708 518.5 700 c 128,-1,13
 555 692 555 692 584 677 c 1,14,-1
 556 626 l 1,15,16
 533 642 533 642 503 649.5 c 128,-1,17
 473 657 473 657 443 657 c 0,18,19
 415 657 415 657 389 650.5 c 128,-1,20
 363 644 363 644 343 631.5 c 128,-1,21
 323 619 323 619 311 600.5 c 128,-1,22
 299 582 299 582 299 558 c 0,23,24
 299 526 299 526 316.5 508 c 128,-1,25
 334 490 334 490 359.5 478 c 128,-1,26
 385 466 385 466 415.5 456 c 128,-1,27
 446 446 446 446 471.5 430.5 c 128,-1,28
 497 415 497 415 514.5 389.5 c 128,-1,29
 532 364 532 364 532 322 c 0,30,31
 532 266 532 266 496 223.5 c 128,-1,32
 460 181 460 181 403 149 c 1,33,34
 421 135 421 135 432 113.5 c 128,-1,35
 443 92 443 92 443 63 c 0,36,37
 443 18 443 18 424 -14.5 c 128,-1,38
 405 -47 405 -47 374 -68 c 128,-1,39
 343 -89 343 -89 303 -99 c 128,-1,40
 263 -109 263 -109 220 -109 c 256,41,42
 177 -109 177 -109 135 -100 c 128,-1,43
 93 -91 93 -91 58 -73 c 1,44,-1
 89 -17 l 1,45,46
 115 -35 115 -35 151 -44 c 128,-1,47
 187 -53 187 -53 224 -53 c 0,48,49
 253 -53 253 -53 280.5 -47 c 128,-1,50
 308 -41 308 -41 329 -28 c 128,-1,51
 350 -15 350 -15 363 4.5 c 128,-1,52
 376 24 376 24 376 51 c 0,53,54
 376 79 376 79 358 96 c 128,-1,55
 340 113 340 113 312.5 124.5 c 128,-1,56
 285 136 285 136 253.5 146.5 c 128,-1,57
 222 157 222 157 194.5 173.5 c 128,-1,58
 167 190 167 190 149 216 c 128,-1,59
 131 242 131 242 131 284 c 0,0,1
197 294 m 0,60,61
 197 264 197 264 214 244.5 c 128,-1,62
 231 225 231 225 269 210 c 2,63,-1
 349 177 l 1,64,65
 401 199 401 199 433.5 236 c 128,-1,66
 466 273 466 273 466 311 c 0,67,68
 466 336 466 336 452 356.5 c 128,-1,69
 438 377 438 377 394 394 c 2,70,-1
 300 431 l 1,71,72
 280 420 280 420 261.5 406 c 128,-1,73
 243 392 243 392 228.5 374.5 c 128,-1,74
 214 357 214 357 205.5 336.5 c 128,-1,75
 197 316 197 316 197 294 c 0,60,61
EndSplineSet
EndChar

StartChar: dieresis
Encoding: 168 168 131
Width: 336
Flags: W
LayerCount: 2
Fore
SplineSet
392 625 m 0,0,1
 369 625 369 625 358.5 637.5 c 128,-1,2
 348 650 348 650 348 667 c 0,3,4
 348 687 348 687 361.5 704 c 128,-1,5
 375 721 375 721 399 721 c 0,6,7
 421 721 421 721 431.5 708 c 128,-1,8
 442 695 442 695 442 679 c 0,9,10
 442 660 442 660 429 642.5 c 128,-1,11
 416 625 416 625 392 625 c 0,0,1
219 625 m 0,12,13
 197 625 197 625 186.5 637.5 c 128,-1,14
 176 650 176 650 176 667 c 0,15,16
 176 687 176 687 189 704 c 128,-1,17
 202 721 202 721 226 721 c 0,18,19
 249 721 249 721 259.5 708 c 128,-1,20
 270 695 270 695 270 679 c 0,21,22
 270 660 270 660 256.5 642.5 c 128,-1,23
 243 625 243 625 219 625 c 0,12,13
EndSplineSet
EndChar

StartChar: copyright
Encoding: 169 169 132
Width: 754
Flags: W
LayerCount: 2
Fore
SplineSet
462 142 m 0,0,1
 423 142 423 142 389.5 156 c 128,-1,2
 356 170 356 170 331 196 c 128,-1,3
 306 222 306 222 292 260.5 c 128,-1,4
 278 299 278 299 278 348 c 0,5,6
 278 396 278 396 293.5 433.5 c 128,-1,7
 309 471 309 471 335 497.5 c 128,-1,8
 361 524 361 524 395 537.5 c 128,-1,9
 429 551 429 551 466 551 c 0,10,11
 515 551 515 551 545.5 537.5 c 128,-1,12
 576 524 576 524 587 516 c 1,13,-1
 568 471 l 1,14,15
 553 479 553 479 529.5 488.5 c 128,-1,16
 506 498 506 498 466 498 c 0,17,18
 411 498 411 498 374.5 459 c 128,-1,19
 338 420 338 420 338 348 c 0,20,21
 338 274 338 274 373.5 234.5 c 128,-1,22
 409 195 409 195 470 195 c 0,23,24
 513 195 513 195 537.5 204.5 c 128,-1,25
 562 214 562 214 573 221 c 1,26,-1
 590 173 l 1,27,28
 577 165 577 165 544 153.5 c 128,-1,29
 511 142 511 142 462 142 c 0,0,1
796 347 m 0,30,31
 796 261 796 261 768 194 c 128,-1,32
 740 127 740 127 693.5 80.5 c 128,-1,33
 647 34 647 34 585.5 9.5 c 128,-1,34
 524 -15 524 -15 457 -15 c 256,35,36
 390 -15 390 -15 328.5 9.5 c 128,-1,37
 267 34 267 34 220.5 80.5 c 128,-1,38
 174 127 174 127 146 194 c 128,-1,39
 118 261 118 261 118 347 c 0,40,41
 118 432 118 432 146 499.5 c 128,-1,42
 174 567 174 567 220.5 613 c 128,-1,43
 267 659 267 659 328.5 683.5 c 128,-1,44
 390 708 390 708 457 708 c 256,45,46
 524 708 524 708 585.5 683.5 c 128,-1,47
 647 659 647 659 693.5 613 c 128,-1,48
 740 567 740 567 768 499.5 c 128,-1,49
 796 432 796 432 796 347 c 0,30,31
737 347 m 256,50,51
 737 416 737 416 716 473 c 128,-1,52
 695 530 695 530 658 570.5 c 128,-1,53
 621 611 621 611 569.5 633 c 128,-1,54
 518 655 518 655 457 655 c 256,55,56
 396 655 396 655 344.5 633 c 128,-1,57
 293 611 293 611 256 570.5 c 128,-1,58
 219 530 219 530 198 473 c 128,-1,59
 177 416 177 416 177 347 c 256,60,61
 177 278 177 278 198 221 c 128,-1,62
 219 164 219 164 256 123.5 c 128,-1,63
 293 83 293 83 344.5 60.5 c 128,-1,64
 396 38 396 38 457 38 c 256,65,66
 518 38 518 38 569.5 60.5 c 128,-1,67
 621 83 621 83 658 123.5 c 128,-1,68
 695 164 695 164 716 221 c 128,-1,69
 737 278 737 278 737 347 c 256,50,51
EndSplineSet
EndChar

StartChar: ordfeminine
Encoding: 170 170 133
Width: 434
Flags: W
LayerCount: 2
Fore
SplineSet
446 652 m 1,0,1
 441 654 441 654 436 655 c 128,-1,2
 431 656 431 656 422 656 c 0,3,4
 380 656 380 656 346 638 c 128,-1,5
 312 620 312 620 289 591.5 c 128,-1,6
 266 563 266 563 253.5 527 c 128,-1,7
 241 491 241 491 241 456 c 0,8,9
 241 414 241 414 260 397 c 128,-1,10
 279 380 279 380 308 380 c 0,11,12
 328 380 328 380 351 388 c 128,-1,13
 374 396 374 396 395 411 c 1,14,15
 394 416 394 416 394 423 c 128,-1,16
 394 430 394 430 394 433 c 0,17,18
 394 441 394 441 395.5 455 c 128,-1,19
 397 469 397 469 403 492 c 2,20,-1
 446 652 l 1,0,1
422 328 m 1,21,22
 416 337 416 337 413 344.5 c 128,-1,23
 410 352 410 352 406 362 c 1,24,25
 388 351 388 351 362 341.5 c 128,-1,26
 336 332 336 332 298 332 c 0,27,28
 241 332 241 332 212 365.5 c 128,-1,29
 183 399 183 399 183 459 c 0,30,31
 183 503 183 503 199.5 546.5 c 128,-1,32
 216 590 216 590 248.5 625 c 128,-1,33
 281 660 281 660 328.5 682 c 128,-1,34
 376 704 376 704 438 704 c 0,35,36
 451 704 451 704 475.5 699 c 128,-1,37
 500 694 500 694 516 686 c 1,38,39
 507 652 507 652 495 614 c 128,-1,40
 483 576 483 576 472.5 540.5 c 128,-1,41
 462 505 462 505 455 474.5 c 128,-1,42
 448 444 448 444 448 424 c 0,43,44
 448 405 448 405 455 383 c 128,-1,45
 462 361 462 361 477 338 c 1,46,-1
 422 328 l 1,21,22
EndSplineSet
EndChar

StartChar: logicalnot
Encoding: 172 172 135
Width: 564
Flags: W
LayerCount: 2
Fore
SplineSet
497 54 m 1,0,-1
 439 54 l 1,1,-1
 505 330 l 1,2,-1
 131 330 l 1,3,-1
 144 386 l 1,4,-1
 576 386 l 1,5,-1
 497 54 l 1,0,-1
EndSplineSet
EndChar

StartChar: registered
Encoding: 174 174 137
Width: 754
Flags: W
LayerCount: 2
Fore
SplineSet
565 149 m 1,0,1
 539 196 539 196 511 238.5 c 128,-1,2
 483 281 483 281 462 306 c 1,3,4
 455 305 455 305 449 305 c 128,-1,5
 443 305 443 305 438 305 c 2,6,-1
 375 305 l 1,7,-1
 375 149 l 1,8,-1
 320 149 l 1,9,-1
 320 536 l 1,10,11
 343 541 343 541 371.5 544 c 128,-1,12
 400 547 400 547 425 547 c 0,13,14
 510 547 510 547 554.5 516 c 128,-1,15
 599 485 599 485 599 422 c 0,16,17
 599 386 599 386 579 357.5 c 128,-1,18
 559 329 559 329 520 315 c 1,19,20
 528 306 528 306 541.5 287.5 c 128,-1,21
 555 269 555 269 570 246 c 128,-1,22
 585 223 585 223 600 197 c 128,-1,23
 615 171 615 171 626 149 c 1,24,-1
 565 149 l 1,0,1
375 350 m 1,25,-1
 425 350 l 2,26,27
 450 350 450 350 471 353 c 128,-1,28
 492 356 492 356 507.5 364.5 c 128,-1,29
 523 373 523 373 531.5 387 c 128,-1,30
 540 401 540 401 540 423 c 0,31,32
 540 444 540 444 530.5 458.5 c 128,-1,33
 521 473 521 473 505.5 482 c 128,-1,34
 490 491 490 491 470 495 c 128,-1,35
 450 499 450 499 428 499 c 0,36,37
 413 499 413 499 399.5 498.5 c 128,-1,38
 386 498 386 498 375 497 c 1,39,-1
 375 350 l 1,25,-1
796 347 m 0,40,41
 796 261 796 261 768 194 c 128,-1,42
 740 127 740 127 693.5 80.5 c 128,-1,43
 647 34 647 34 585.5 9.5 c 128,-1,44
 524 -15 524 -15 457 -15 c 256,45,46
 390 -15 390 -15 328.5 9.5 c 128,-1,47
 267 34 267 34 220.5 80.5 c 128,-1,48
 174 127 174 127 146 194 c 128,-1,49
 118 261 118 261 118 347 c 0,50,51
 118 432 118 432 146 499.5 c 128,-1,52
 174 567 174 567 220.5 613 c 128,-1,53
 267 659 267 659 328.5 683.5 c 128,-1,54
 390 708 390 708 457 708 c 256,55,56
 524 708 524 708 585.5 683.5 c 128,-1,57
 647 659 647 659 693.5 613 c 128,-1,58
 740 567 740 567 768 499.5 c 128,-1,59
 796 432 796 432 796 347 c 0,40,41
737 347 m 256,60,61
 737 416 737 416 716 473 c 128,-1,62
 695 530 695 530 658 570.5 c 128,-1,63
 621 611 621 611 569.5 633 c 128,-1,64
 518 655 518 655 457 655 c 256,65,66
 396 655 396 655 344.5 633 c 128,-1,67
 293 611 293 611 256 570.5 c 128,-1,68
 219 530 219 530 198 473 c 128,-1,69
 177 416 177 416 177 347 c 256,70,71
 177 278 177 278 198 221 c 128,-1,72
 219 164 219 164 256 123.5 c 128,-1,73
 293 83 293 83 344.5 60.5 c 128,-1,74
 396 38 396 38 457 38 c 256,75,76
 518 38 518 38 569.5 60.5 c 128,-1,77
 621 83 621 83 658 123.5 c 128,-1,78
 695 164 695 164 716 221 c 128,-1,79
 737 278 737 278 737 347 c 256,60,61
EndSplineSet
EndChar

StartChar: macron
Encoding: 175 175 138
Width: 336
Flags: W
LayerCount: 2
Fore
SplineSet
176 647 m 1,0,-1
 189 704 l 1,1,-1
 448 704 l 1,2,-1
 435 647 l 1,3,-1
 176 647 l 1,0,-1
EndSplineSet
EndChar

StartChar: degree
Encoding: 176 176 139
Width: 309
Flags: W
LayerCount: 2
Fore
SplineSet
298 511 m 256,0,1
 272 511 272 511 248.5 520 c 128,-1,2
 225 529 225 529 207 545.5 c 128,-1,3
 189 562 189 562 178.5 586.5 c 128,-1,4
 168 611 168 611 168 642 c 256,5,6
 168 673 168 673 178.5 697.5 c 128,-1,7
 189 722 189 722 207 738.5 c 128,-1,8
 225 755 225 755 248.5 764 c 128,-1,9
 272 773 272 773 298 773 c 256,10,11
 324 773 324 773 347.5 764 c 128,-1,12
 371 755 371 755 389 738.5 c 128,-1,13
 407 722 407 722 417.5 697.5 c 128,-1,14
 428 673 428 673 428 642 c 256,15,16
 428 611 428 611 417.5 586.5 c 128,-1,17
 407 562 407 562 389 545.5 c 128,-1,18
 371 529 371 529 347.5 520 c 128,-1,19
 324 511 324 511 298 511 c 256,0,1
298 556 m 256,20,21
 333 556 333 556 356.5 579 c 128,-1,22
 380 602 380 602 380 642 c 256,23,24
 380 682 380 682 356.5 705 c 128,-1,25
 333 728 333 728 298 728 c 256,26,27
 263 728 263 728 239.5 705 c 128,-1,28
 216 682 216 682 216 642 c 256,29,30
 216 602 216 602 239.5 579 c 128,-1,31
 263 556 263 556 298 556 c 256,20,21
EndSplineSet
EndChar

StartChar: twosuperior
Encoding: 178 178 141
Width: 363
Flags: W
LayerCount: 2
Fore
SplineSet
135 317 m 1,0,1
 138 362 138 362 157.5 393.5 c 128,-1,2
 177 425 177 425 204.5 448 c 128,-1,3
 232 471 232 471 263 488.5 c 128,-1,4
 294 506 294 506 320.5 523.5 c 128,-1,5
 347 541 347 541 364.5 561 c 128,-1,6
 382 581 382 581 382 610 c 0,7,8
 382 635 382 635 366.5 647.5 c 128,-1,9
 351 660 351 660 328 660 c 0,10,11
 297 660 297 660 270.5 650 c 128,-1,12
 244 640 244 640 226 626 c 1,13,-1
 207 663 l 1,14,15
 236 687 236 687 266 697.5 c 128,-1,16
 296 708 296 708 329 708 c 0,17,18
 350 708 350 708 369.5 703.5 c 128,-1,19
 389 699 389 699 404.5 688.5 c 128,-1,20
 420 678 420 678 429 659.5 c 128,-1,21
 438 641 438 641 438 614 c 0,22,23
 438 582 438 582 421.5 557 c 128,-1,24
 405 532 405 532 380.5 512 c 128,-1,25
 356 492 356 492 326 474.5 c 128,-1,26
 296 457 296 457 269.5 440 c 128,-1,27
 243 423 243 423 223 405 c 128,-1,28
 203 387 203 387 198 365 c 1,29,-1
 388 365 l 1,30,-1
 376 317 l 1,31,-1
 135 317 l 1,0,1
EndSplineSet
Substitution2: "Single Substitution lookup 27 subtable" twoinferior
Substitution2: "'sinf' Scientific Inferiors lookup 13 subtable" two.sinf
Substitution2: "'subs' Subscript lookup 12 subtable" two.sinf
Substitution2: "'sups' Superscript lookup 11 subtable" two.sups
Substitution2: "'dnom' Denominators lookup 10 subtable" twoinferior
EndChar

StartChar: threesuperior
Encoding: 179 179 142
Width: 363
Flags: W
LayerCount: 2
Fore
SplineSet
157 377 m 1,0,1
 175 367 175 367 199 362 c 128,-1,2
 223 357 223 357 248 357 c 0,3,4
 302 357 302 357 333.5 379.5 c 128,-1,5
 365 402 365 402 365 438 c 0,6,7
 365 470 365 470 339.5 484.5 c 128,-1,8
 314 499 314 499 254 499 c 2,9,-1
 248 499 l 1,10,-1
 259 544 l 1,11,-1
 281 544 l 2,12,13
 335 544 335 544 363 566 c 128,-1,14
 391 588 391 588 391 617 c 0,15,16
 391 661 391 661 332 661 c 0,17,18
 306 661 306 661 279 653.5 c 128,-1,19
 252 646 252 646 237 638 c 1,20,-1
 226 678 l 1,21,22
 251 692 251 692 281.5 700 c 128,-1,23
 312 708 312 708 344 708 c 0,24,25
 395 708 395 708 420 683 c 128,-1,26
 445 658 445 658 445 625 c 0,27,28
 445 596 445 596 424 566.5 c 128,-1,29
 403 537 403 537 361 521 c 1,30,31
 393 510 393 510 407 488.5 c 128,-1,32
 421 467 421 467 421 441 c 0,33,34
 421 418 421 418 411 394.5 c 128,-1,35
 401 371 401 371 380 352 c 128,-1,36
 359 333 359 333 325.5 321 c 128,-1,37
 292 309 292 309 245 309 c 0,38,39
 216 309 216 309 187.5 315 c 128,-1,40
 159 321 159 321 136 333 c 1,41,-1
 157 377 l 1,0,1
EndSplineSet
Substitution2: "Single Substitution lookup 27 subtable" threeinferior
Substitution2: "'sinf' Scientific Inferiors lookup 13 subtable" three.sinf
Substitution2: "'subs' Subscript lookup 12 subtable" three.sinf
Substitution2: "'sups' Superscript lookup 11 subtable" three.sups
Substitution2: "'dnom' Denominators lookup 10 subtable" threeinferior
EndChar

StartChar: acute
Encoding: 180 180 143
Width: 336
Flags: W
LayerCount: 2
Fore
SplineSet
420 711 m 1,0,-1
 245 583 l 1,1,-1
 216 627 l 1,2,-1
 382 773 l 1,3,-1
 420 711 l 1,0,-1
EndSplineSet
EndChar

StartChar: mu
Encoding: 181 181 144
Width: 561
Flags: W
LayerCount: 2
Fore
SplineSet
277 -12 m 256,0,1
 232 -12 232 -12 203 2 c 128,-1,2
 174 16 174 16 157 37 c 1,3,-1
 103 -185 l 1,4,-1
 38 -185 l 1,5,-1
 207 517 l 1,6,-1
 272 517 l 1,7,-1
 217 289 l 2,8,9
 209 254 209 254 198.5 214.5 c 128,-1,10
 188 175 188 175 188 140 c 0,11,12
 188 95 188 95 208.5 71.5 c 128,-1,13
 229 48 229 48 285 48 c 0,14,15
 333 48 333 48 368.5 63.5 c 128,-1,16
 404 79 404 79 436 111 c 1,17,18
 437 137 437 137 443.5 168.5 c 128,-1,19
 450 200 450 200 461 247 c 2,20,-1
 528 517 l 1,21,-1
 593 517 l 1,22,-1
 514 197 l 2,23,24
 509 178 509 178 505.5 158.5 c 128,-1,25
 502 139 502 139 502 123 c 0,26,27
 502 110 502 110 504 98.5 c 128,-1,28
 506 87 506 87 512.5 77 c 128,-1,29
 519 67 519 67 532 60 c 128,-1,30
 545 53 545 53 566 49 c 1,31,-1
 550 -9 l 1,32,33
 540 -9 540 -9 524.5 -6 c 128,-1,34
 509 -3 509 -3 494 4 c 128,-1,35
 479 11 479 11 466 22 c 128,-1,36
 453 33 453 33 447 49 c 1,37,38
 408 17 408 17 365 2.5 c 128,-1,39
 322 -12 322 -12 277 -12 c 256,0,1
EndSplineSet
EndChar

StartChar: paragraph
Encoding: 182 182 145
Width: 585
Flags: W
LayerCount: 2
Fore
SplineSet
341 264 m 1,0,1
 290 264 290 264 252 278 c 128,-1,2
 214 292 214 292 188.5 316 c 128,-1,3
 163 340 163 340 150.5 371 c 128,-1,4
 138 402 138 402 138 437 c 0,5,6
 138 487 138 487 160 534.5 c 128,-1,7
 182 582 182 582 227 618.5 c 128,-1,8
 272 655 272 655 340 677.5 c 128,-1,9
 408 700 408 700 499 700 c 0,10,11
 519 700 519 700 543.5 699 c 128,-1,12
 568 698 568 698 592 696 c 128,-1,13
 616 694 616 694 637.5 691 c 128,-1,14
 659 688 659 688 674 683 c 1,15,-1
 466 -185 l 1,16,-1
 408 -185 l 1,17,-1
 606 636 l 1,18,19
 585 638 585 638 565.5 639.5 c 128,-1,20
 546 641 546 641 525 641 c 0,21,22
 517 641 517 641 508.5 641 c 128,-1,23
 500 641 500 641 491 640 c 1,24,-1
 292 -185 l 1,25,-1
 234 -185 l 1,26,-1
 341 264 l 1,0,1
EndSplineSet
EndChar

StartChar: cedilla
Encoding: 184 184 147
Width: 336
Flags: W
LayerCount: 2
Fore
SplineSet
53 -132 m 1,0,1
 75 -141 75 -141 102 -141 c 0,2,3
 125 -141 125 -141 139 -134 c 128,-1,4
 153 -127 153 -127 153 -110 c 0,5,6
 153 -95 153 -95 143.5 -86 c 128,-1,7
 134 -77 134 -77 106 -66 c 1,8,9
 111 -56 111 -56 119.5 -43 c 128,-1,10
 128 -30 128 -30 137 -17.5 c 128,-1,11
 146 -5 146 -5 154 5 c 128,-1,12
 162 15 162 15 166 20 c 1,13,-1
 213 20 l 1,14,15
 205 9 205 9 192.5 -8.5 c 128,-1,16
 180 -26 180 -26 172 -38 c 1,17,18
 195 -51 195 -51 205.5 -64.5 c 128,-1,19
 216 -78 216 -78 216 -102 c 0,20,21
 216 -143 216 -143 184.5 -165 c 128,-1,22
 153 -187 153 -187 105 -187 c 0,23,24
 88 -187 88 -187 71.5 -185 c 128,-1,25
 55 -183 55 -183 35 -175 c 1,26,-1
 53 -132 l 1,0,1
EndSplineSet
EndChar

StartChar: onesuperior
Encoding: 185 185 148
Width: 363
Flags: W
LayerCount: 2
Fore
SplineSet
267 317 m 1,0,-1
 341 625 l 1,1,2
 312 605 312 605 280 593.5 c 128,-1,3
 248 582 248 582 234 578 c 1,4,-1
 226 620 l 1,5,6
 275 637 275 637 310 655.5 c 128,-1,7
 345 674 345 674 376 699 c 1,8,-1
 412 699 l 1,9,-1
 321 317 l 1,10,-1
 267 317 l 1,0,-1
EndSplineSet
Substitution2: "Single Substitution lookup 27 subtable" oneinferior
Substitution2: "'sinf' Scientific Inferiors lookup 13 subtable" one.sinf
Substitution2: "'subs' Subscript lookup 12 subtable" one.sinf
Substitution2: "'sups' Superscript lookup 11 subtable" one.sups
Substitution2: "'dnom' Denominators lookup 10 subtable" oneinferior
EndChar

StartChar: ordmasculine
Encoding: 186 186 149
Width: 444
Flags: W
LayerCount: 2
Fore
SplineSet
387 656 m 0,0,1
 354 656 354 656 327 638.5 c 128,-1,2
 300 621 300 621 281 594 c 128,-1,3
 262 567 262 567 251.5 534 c 128,-1,4
 241 501 241 501 241 469 c 0,5,6
 241 380 241 380 312 380 c 0,7,8
 345 380 345 380 372 397.5 c 128,-1,9
 399 415 399 415 418 442 c 128,-1,10
 437 469 437 469 447.5 502 c 128,-1,11
 458 535 458 535 458 567 c 0,12,13
 458 656 458 656 387 656 c 0,0,1
298 331 m 0,14,15
 268 331 268 331 246.5 341.5 c 128,-1,16
 225 352 225 352 210.5 370 c 128,-1,17
 196 388 196 388 189.5 411 c 128,-1,18
 183 434 183 434 183 460 c 0,19,20
 183 504 183 504 197.5 547.5 c 128,-1,21
 212 591 212 591 239.5 626 c 128,-1,22
 267 661 267 661 307.5 683 c 128,-1,23
 348 705 348 705 401 705 c 0,24,25
 431 705 431 705 452.5 694.5 c 128,-1,26
 474 684 474 684 488.5 666 c 128,-1,27
 503 648 503 648 509.5 624.5 c 128,-1,28
 516 601 516 601 516 576 c 0,29,30
 516 532 516 532 501.5 488.5 c 128,-1,31
 487 445 487 445 459.5 410 c 128,-1,32
 432 375 432 375 391 353 c 128,-1,33
 350 331 350 331 298 331 c 0,14,15
EndSplineSet
EndChar

StartChar: questiondown
Encoding: 191 191 154
Width: 385
Flags: W
LayerCount: 2
Fore
SplineSet
345 307 m 1,0,1
 345 269 345 269 326.5 239 c 128,-1,2
 308 209 308 209 279.5 182.5 c 128,-1,3
 251 156 251 156 218.5 131 c 128,-1,4
 186 106 186 106 157.5 78.5 c 128,-1,5
 129 51 129 51 110.5 18.5 c 128,-1,6
 92 -14 92 -14 92 -55 c 0,7,8
 92 -92 92 -92 104 -117.5 c 128,-1,9
 116 -143 116 -143 136.5 -158.5 c 128,-1,10
 157 -174 157 -174 184 -181 c 128,-1,11
 211 -188 211 -188 241 -188 c 0,12,13
 278 -188 278 -188 315 -179 c 128,-1,14
 352 -170 352 -170 382 -156 c 1,15,-1
 374 -101 l 1,16,17
 350 -112 350 -112 317.5 -121 c 128,-1,18
 285 -130 285 -130 253 -130 c 0,19,20
 235 -130 235 -130 218.5 -126 c 128,-1,21
 202 -122 202 -122 189.5 -113 c 128,-1,22
 177 -104 177 -104 169.5 -89.5 c 128,-1,23
 162 -75 162 -75 162 -53 c 0,24,25
 162 -14 162 -14 184 18 c 128,-1,26
 206 50 206 50 261 91 c 2,27,-1
 273 100 l 2,28,29
 300 121 300 121 322.5 142.5 c 128,-1,30
 345 164 345 164 362 188.5 c 128,-1,31
 379 213 379 213 389 242 c 128,-1,32
 399 271 399 271 400 307 c 1,33,-1
 345 307 l 1,0,1
391 532 m 0,34,35
 417 532 417 532 429 517.5 c 128,-1,36
 441 503 441 503 441 484 c 0,37,38
 441 462 441 462 426 442.5 c 128,-1,39
 411 423 411 423 384 423 c 0,40,41
 358 423 358 423 346 437.5 c 128,-1,42
 334 452 334 452 334 471 c 0,43,44
 334 493 334 493 349 512.5 c 128,-1,45
 364 532 364 532 391 532 c 0,34,35
EndSplineSet
Substitution2: "'case' Case-Sensitive Forms lookup 18 subtable" Questiondown
EndChar

StartChar: Aring
Encoding: 197 197 160
Width: 622
Flags: W
LayerCount: 2
Fore
SplineSet
586 737 m 0,0,1
 586 704 586 704 569.5 681 c 128,-1,2
 553 658 553 658 527 647 c 1,3,4
 550 508 550 508 572 350.5 c 128,-1,5
 594 193 594 193 616 0 c 1,6,-1
 546 0 l 1,7,8
 541 48 541 48 535.5 95 c 128,-1,9
 530 142 530 142 524 190 c 1,10,-1
 198 190 l 1,11,12
 172 144 172 144 146 97 c 128,-1,13
 120 50 120 50 94 0 c 1,14,-1
 20 0 l 1,15,16
 117 175 117 175 222 345 c 128,-1,17
 327 515 327 515 427 664 c 1,18,19
 395 691 395 691 395 737 c 0,20,21
 395 780 395 780 423.5 806 c 128,-1,22
 452 832 452 832 491 832 c 0,23,24
 510 832 510 832 527.5 825 c 128,-1,25
 545 818 545 818 558 805.5 c 128,-1,26
 571 793 571 793 578.5 775.5 c 128,-1,27
 586 758 586 758 586 737 c 0,0,1
465 615 m 1,28,29
 404 522 404 522 346 432 c 128,-1,30
 288 342 288 342 232 248 c 1,31,-1
 517 248 l 1,32,33
 506 338 506 338 493 428.5 c 128,-1,34
 480 519 480 519 465 615 c 1,28,29
548 737 m 0,35,36
 548 765 548 765 531.5 780.5 c 128,-1,37
 515 796 515 796 491 796 c 256,38,39
 467 796 467 796 450.5 780.5 c 128,-1,40
 434 765 434 765 434 737 c 0,41,42
 434 708 434 708 450.5 693 c 128,-1,43
 467 678 467 678 491 678 c 256,44,45
 515 678 515 678 531.5 693 c 128,-1,46
 548 708 548 708 548 737 c 0,35,36
EndSplineSet
EndChar

StartChar: AE
Encoding: 198 198 161
Width: 891
Flags: W
LayerCount: 2
Fore
SplineSet
515 190 m 1,0,-1
 230 190 l 1,1,2
 193 142 193 142 158.5 94.5 c 128,-1,3
 124 47 124 47 92 0 c 1,4,-1
 18 0 l 1,5,6
 88 100 88 100 156.5 189.5 c 128,-1,7
 225 279 225 279 295 363 c 128,-1,8
 365 447 365 447 438 528 c 128,-1,9
 511 609 511 609 592 693 c 1,10,-1
 1003 693 l 1,11,-1
 990 634 l 1,12,-1
 689 634 l 1,13,-1
 630 393 l 1,14,-1
 896 393 l 1,15,-1
 883 335 l 1,16,-1
 619 335 l 1,17,-1
 550 59 l 1,18,-1
 874 59 l 1,19,-1
 862 0 l 1,20,-1
 470 0 l 1,21,-1
 515 190 l 1,0,-1
624 644 m 1,22,23
 594 614 594 614 554 572 c 128,-1,24
 514 530 514 530 468.5 478.5 c 128,-1,25
 423 427 423 427 374 368.5 c 128,-1,26
 325 310 325 310 276 248 c 1,27,-1
 529 248 l 1,28,-1
 624 644 l 1,22,23
EndSplineSet
EndChar

StartChar: Ccedilla
Encoding: 199 199 162
Width: 610
Flags: W
LayerCount: 2
Fore
SplineSet
264 -132 m 1,0,1
 286 -141 286 -141 313 -141 c 0,2,3
 336 -141 336 -141 350 -134 c 128,-1,4
 364 -127 364 -127 364 -110 c 0,5,6
 364 -95 364 -95 354.5 -86 c 128,-1,7
 345 -77 345 -77 317 -66 c 1,8,9
 322 -55 322 -55 331.5 -40.5 c 128,-1,10
 341 -26 341 -26 351 -13 c 1,11,12
 303 -8 303 -8 264 10 c 128,-1,13
 225 28 225 28 197 60.5 c 128,-1,14
 169 93 169 93 153.5 140.5 c 128,-1,15
 138 188 138 188 138 253 c 0,16,17
 138 360 138 360 171 444.5 c 128,-1,18
 204 529 204 529 260 587.5 c 128,-1,19
 316 646 316 646 389 677 c 128,-1,20
 462 708 462 708 542 708 c 0,21,22
 589 708 589 708 629.5 698 c 128,-1,23
 670 688 670 688 712 665 c 1,24,-1
 681 603 l 1,25,26
 609 647 609 647 528 647 c 0,27,28
 465 647 465 647 407.5 619.5 c 128,-1,29
 350 592 350 592 306 541 c 128,-1,30
 262 490 262 490 236 417.5 c 128,-1,31
 210 345 210 345 210 255 c 0,32,33
 210 153 210 153 254 99.5 c 128,-1,34
 298 46 298 46 389 46 c 0,35,36
 429 46 429 46 460 51 c 128,-1,37
 491 56 491 56 513.5 63 c 128,-1,38
 536 70 536 70 551.5 77.5 c 128,-1,39
 567 85 567 85 578 91 c 1,40,-1
 587 31 l 1,41,42
 548 10 548 10 497.5 -2 c 128,-1,43
 447 -14 447 -14 398 -15 c 1,44,45
 390 -25 390 -25 383 -38 c 1,46,47
 406 -51 406 -51 416.5 -64.5 c 128,-1,48
 427 -78 427 -78 427 -102 c 0,49,50
 427 -143 427 -143 395.5 -165 c 128,-1,51
 364 -187 364 -187 316 -187 c 0,52,53
 299 -187 299 -187 282.5 -185 c 128,-1,54
 266 -183 266 -183 246 -175 c 1,55,-1
 264 -132 l 1,0,1
EndSplineSet
EndChar

StartChar: Eth
Encoding: 208 208 171
Width: 692
Flags: W
LayerCount: 2
Fore
SplineSet
173 335 m 1,0,-1
 93 335 l 1,1,-1
 106 390 l 1,2,-1
 186 390 l 1,3,-1
 255 680 l 1,4,5
 304 691 304 691 344 695 c 128,-1,6
 384 699 384 699 423 699 c 0,7,8
 567 699 567 699 645.5 631.5 c 128,-1,9
 724 564 724 564 724 426 c 0,10,11
 724 347 724 347 700 269.5 c 128,-1,12
 676 192 676 192 621 131 c 128,-1,13
 566 70 566 70 477.5 32 c 128,-1,14
 389 -6 389 -6 259 -6 c 0,15,16
 239 -6 239 -6 216.5 -4.5 c 128,-1,17
 194 -3 194 -3 172.5 -1 c 128,-1,18
 151 1 151 1 131 4.5 c 128,-1,19
 111 8 111 8 96 13 c 1,20,-1
 173 335 l 1,0,-1
254 390 m 1,21,-1
 385 390 l 1,22,-1
 372 335 l 1,23,-1
 241 335 l 1,24,-1
 175 60 l 1,25,26
 200 56 200 56 223 54.5 c 128,-1,27
 246 53 246 53 269 53 c 0,28,29
 358 53 358 53 429 79.5 c 128,-1,30
 500 106 500 106 549.5 155 c 128,-1,31
 599 204 599 204 625.5 274 c 128,-1,32
 652 344 652 344 652 430 c 0,33,34
 652 488 652 488 633 528.5 c 128,-1,35
 614 569 614 569 581.5 594 c 128,-1,36
 549 619 549 619 506 630 c 128,-1,37
 463 641 463 641 414 641 c 0,38,39
 389 641 389 641 363.5 639 c 128,-1,40
 338 637 338 637 312 633 c 1,41,-1
 254 390 l 1,21,-1
EndSplineSet
EndChar

StartChar: multiply
Encoding: 215 215 178
Width: 564
Flags: W
LayerCount: 2
Fore
SplineSet
166 103 m 1,0,-1
 133 146 l 1,1,-1
 311 290 l 1,2,-1
 195 443 l 1,3,-1
 238 478 l 1,4,-1
 353 326 l 1,5,-1
 542 478 l 1,6,-1
 576 436 l 1,7,-1
 386 285 l 1,8,-1
 499 137 l 1,9,-1
 456 103 l 1,10,-1
 345 249 l 1,11,-1
 166 103 l 1,0,-1
EndSplineSet
EndChar

StartChar: Oslash
Encoding: 216 216 179
Width: 748
Flags: W
LayerCount: 2
Fore
SplineSet
138 258 m 0,0,1
 138 361 138 361 172 444.5 c 128,-1,2
 206 528 206 528 262 586.5 c 128,-1,3
 318 645 318 645 388.5 676.5 c 128,-1,4
 459 708 459 708 533 708 c 0,5,6
 578 708 578 708 618.5 694.5 c 128,-1,7
 659 681 659 681 692 654 c 1,8,-1
 755 726 l 1,9,-1
 797 690 l 1,10,-1
 730 613 l 1,11,12
 753 580 753 580 766.5 536.5 c 128,-1,13
 780 493 780 493 780 436 c 0,14,15
 780 332 780 332 746 248.5 c 128,-1,16
 712 165 712 165 656 106.5 c 128,-1,17
 600 48 600 48 529 16.5 c 128,-1,18
 458 -15 458 -15 385 -15 c 0,19,20
 340 -15 340 -15 299.5 -2 c 128,-1,21
 259 11 259 11 226 38 c 1,22,-1
 167 -29 l 1,23,-1
 124 8 l 1,24,-1
 187 80 l 1,25,26
 164 113 164 113 151 157 c 128,-1,27
 138 201 138 201 138 258 c 0,0,1
708 446 m 0,28,29
 708 512 708 512 683 559 c 1,30,-1
 270 88 l 1,31,32
 318 46 318 46 391 46 c 0,33,34
 452 46 452 46 509 72.5 c 128,-1,35
 566 99 566 99 610 150 c 128,-1,36
 654 201 654 201 681 275.5 c 128,-1,37
 708 350 708 350 708 446 c 0,28,29
210 247 m 0,38,39
 210 179 210 179 234 134 c 1,40,-1
 648 604 l 1,41,42
 624 626 624 626 593 636.5 c 128,-1,43
 562 647 562 647 527 647 c 0,44,45
 466 647 466 647 409 620.5 c 128,-1,46
 352 594 352 594 307.5 543 c 128,-1,47
 263 492 263 492 236.5 417.5 c 128,-1,48
 210 343 210 343 210 247 c 0,38,39
EndSplineSet
EndChar

StartChar: Thorn
Encoding: 222 222 185
Width: 528
Flags: W
LayerCount: 2
Fore
SplineSet
250 693 m 1,0,-1
 318 693 l 1,1,-1
 289 572 l 1,2,3
 310 574 310 574 327.5 574.5 c 128,-1,4
 345 575 345 575 367 575 c 0,5,6
 489 575 489 575 549.5 532.5 c 128,-1,7
 610 490 610 490 610 393 c 0,8,9
 610 282 610 282 521 215.5 c 128,-1,10
 432 149 432 149 255 149 c 2,11,-1
 186 149 l 1,12,-1
 151 0 l 1,13,-1
 83 0 l 1,14,-1
 250 693 l 1,0,-1
269 204 m 2,15,16
 342 204 342 204 393.5 218 c 128,-1,17
 445 232 445 232 477.5 257 c 128,-1,18
 510 282 510 282 525 316 c 128,-1,19
 540 350 540 350 540 390 c 0,20,21
 540 457 540 457 498 487.5 c 128,-1,22
 456 518 456 518 371 518 c 0,23,24
 324 518 324 518 301 516 c 128,-1,25
 278 514 278 514 274 513 c 2,26,-1
 200 204 l 1,27,-1
 269 204 l 2,15,16
EndSplineSet
EndChar

StartChar: germandbls
Encoding: 223 223 186
Width: 589
Flags: W
LayerCount: 2
Fore
SplineSet
171 102 m 2,0,1
 159 54 159 54 147.5 13.5 c 128,-1,2
 136 -27 136 -27 121.5 -62 c 128,-1,3
 107 -97 107 -97 88 -128 c 128,-1,4
 69 -159 69 -159 43 -189 c 1,5,-1
 -14 -180 l 1,6,7
 11 -146 11 -146 28.5 -117.5 c 128,-1,8
 46 -89 46 -89 58 -61 c 128,-1,9
 70 -33 70 -33 79 -4.5 c 128,-1,10
 88 24 88 24 96 58 c 2,11,-1
 214 547 l 2,12,13
 229 610 229 610 253 653.5 c 128,-1,14
 277 697 277 697 308.5 724 c 128,-1,15
 340 751 340 751 378 763.5 c 128,-1,16
 416 776 416 776 458 776 c 0,17,18
 530 776 530 776 569 740.5 c 128,-1,19
 608 705 608 705 608 644 c 0,20,21
 608 609 608 609 595 580.5 c 128,-1,22
 582 552 582 552 563 528 c 128,-1,23
 544 504 544 504 521.5 484.5 c 128,-1,24
 499 465 499 465 480 447 c 128,-1,25
 461 429 461 429 448 412.5 c 128,-1,26
 435 396 435 396 435 379 c 0,27,28
 435 359 435 359 446.5 345 c 128,-1,29
 458 331 458 331 475 319.5 c 128,-1,30
 492 308 492 308 512 295.5 c 128,-1,31
 532 283 532 283 549 265.5 c 128,-1,32
 566 248 566 248 577.5 222.5 c 128,-1,33
 589 197 589 197 589 160 c 0,34,35
 589 116 589 116 572 83.5 c 128,-1,36
 555 51 555 51 527 30 c 128,-1,37
 499 9 499 9 462.5 -1.5 c 128,-1,38
 426 -12 426 -12 386 -12 c 0,39,40
 350 -12 350 -12 313 -4.5 c 128,-1,41
 276 3 276 3 244 22 c 1,42,-1
 272 81 l 1,43,44
 294 67 294 67 325 57.5 c 128,-1,45
 356 48 356 48 388 48 c 0,46,47
 414 48 414 48 438.5 54 c 128,-1,48
 463 60 463 60 482 73 c 128,-1,49
 501 86 501 86 512.5 106 c 128,-1,50
 524 126 524 126 524 154 c 0,51,52
 524 184 524 184 512.5 204 c 128,-1,53
 501 224 501 224 484 239 c 128,-1,54
 467 254 467 254 446.5 266.5 c 128,-1,55
 426 279 426 279 409 293.5 c 128,-1,56
 392 308 392 308 380.5 326 c 128,-1,57
 369 344 369 344 369 370 c 0,58,59
 369 399 369 399 382 421.5 c 128,-1,60
 395 444 395 444 414 464 c 128,-1,61
 433 484 433 484 455.5 503 c 128,-1,62
 478 522 478 522 497 542.5 c 128,-1,63
 516 563 516 563 529 587 c 128,-1,64
 542 611 542 611 542 642 c 0,65,66
 542 679 542 679 520.5 699 c 128,-1,67
 499 719 499 719 459 719 c 0,68,69
 430 719 430 719 402.5 710 c 128,-1,70
 375 701 375 701 351.5 681 c 128,-1,71
 328 661 328 661 309 629.5 c 128,-1,72
 290 598 290 598 280 554 c 2,73,-1
 171 102 l 2,0,1
EndSplineSet
EndChar

StartChar: ae
Encoding: 230 230 193
Width: 773
Flags: W
LayerCount: 2
Fore
SplineSet
292 529 m 0,0,1
 366 529 366 529 407.5 498.5 c 128,-1,2
 449 468 449 468 465 417 c 1,3,4
 503 473 503 473 560 501 c 128,-1,5
 617 529 617 529 674 529 c 0,6,7
 703 529 703 529 729 521 c 128,-1,8
 755 513 755 513 774.5 496.5 c 128,-1,9
 794 480 794 480 805.5 455 c 128,-1,10
 817 430 817 430 817 396 c 0,11,12
 817 337 817 337 795 301 c 128,-1,13
 773 265 773 265 728 244 c 128,-1,14
 683 223 683 223 616 214 c 128,-1,15
 549 205 549 205 459 202 c 1,16,17
 459 197 459 197 458.5 192 c 128,-1,18
 458 187 458 187 458 183 c 0,19,20
 458 139 458 139 469 112 c 128,-1,21
 480 85 480 85 499 71 c 128,-1,22
 518 57 518 57 543.5 52.5 c 128,-1,23
 569 48 569 48 598 48 c 0,24,25
 660 48 660 48 733 83 c 1,26,-1
 740 23 l 1,27,28
 710 9 710 9 667 -1.5 c 128,-1,29
 624 -12 624 -12 579 -12 c 0,30,31
 504 -12 504 -12 463 18 c 128,-1,32
 422 48 422 48 405 99 c 1,33,34
 370 49 370 49 317.5 18.5 c 128,-1,35
 265 -12 265 -12 196 -12 c 0,36,37
 167 -12 167 -12 141 -3.5 c 128,-1,38
 115 5 115 5 95.5 21.5 c 128,-1,39
 76 38 76 38 65 63 c 128,-1,40
 54 88 54 88 54 121 c 0,41,42
 54 179 54 179 76.5 215.5 c 128,-1,43
 99 252 99 252 144 273 c 128,-1,44
 189 294 189 294 256.5 303.5 c 128,-1,45
 324 313 324 313 414 317 c 1,46,47
 414 322 414 322 414.5 326 c 128,-1,48
 415 330 415 330 415 334 c 0,49,50
 415 378 415 378 404 405 c 128,-1,51
 393 432 393 432 373.5 446.5 c 128,-1,52
 354 461 354 461 328 466 c 128,-1,53
 302 471 302 471 273 471 c 0,54,55
 211 471 211 471 138 436 c 1,56,-1
 131 494 l 1,57,58
 161 508 161 508 204 518.5 c 128,-1,59
 247 529 247 529 292 529 c 0,0,1
751 392 m 0,60,61
 751 430 751 430 727.5 450 c 128,-1,62
 704 470 704 470 665 470 c 0,63,64
 635 470 635 470 605 458 c 128,-1,65
 575 446 575 446 548 420.5 c 128,-1,66
 521 395 521 395 500 355.5 c 128,-1,67
 479 316 479 316 469 261 c 1,68,69
 554 262 554 262 609 271 c 128,-1,70
 664 280 664 280 695.5 296 c 128,-1,71
 727 312 727 312 739 336 c 128,-1,72
 751 360 751 360 751 392 c 0,60,61
120 125 m 0,73,74
 120 87 120 87 143.5 67 c 128,-1,75
 167 47 167 47 206 47 c 0,76,77
 236 47 236 47 267 59 c 128,-1,78
 298 71 298 71 325 96 c 128,-1,79
 352 121 352 121 372.5 160.5 c 128,-1,80
 393 200 393 200 404 254 c 1,81,82
 318 252 318 252 262.5 243.5 c 128,-1,83
 207 235 207 235 175.5 219 c 128,-1,84
 144 203 144 203 132 179.5 c 128,-1,85
 120 156 120 156 120 125 c 0,73,74
EndSplineSet
Substitution2: "'case' Case-Sensitive Forms lookup 19 subtable" AE
EndChar

StartChar: ccedilla
Encoding: 231 231 194
Width: 455
Flags: W
LayerCount: 2
Fore
SplineSet
154 -132 m 1,0,1
 176 -141 176 -141 203 -141 c 0,2,3
 226 -141 226 -141 240 -134 c 128,-1,4
 254 -127 254 -127 254 -110 c 0,5,6
 254 -95 254 -95 244.5 -86 c 128,-1,7
 235 -77 235 -77 207 -66 c 1,8,9
 213 -54 213 -54 223 -38.5 c 128,-1,10
 233 -23 233 -23 244 -9 c 1,11,12
 171 1 171 1 134.5 51.5 c 128,-1,13
 98 102 98 102 98 183 c 0,14,15
 98 251 98 251 119 313.5 c 128,-1,16
 140 376 140 376 180.5 424 c 128,-1,17
 221 472 221 472 280 500.5 c 128,-1,18
 339 529 339 529 414 529 c 0,19,20
 466 529 466 529 517 512 c 1,21,-1
 490 453 l 1,22,23
 467 462 467 462 444.5 465.5 c 128,-1,24
 422 469 422 469 401 469 c 0,25,26
 348 469 348 469 304.5 446.5 c 128,-1,27
 261 424 261 424 230 385.5 c 128,-1,28
 199 347 199 347 182 296.5 c 128,-1,29
 165 246 165 246 165 190 c 0,30,31
 165 124 165 124 195.5 86 c 128,-1,32
 226 48 226 48 293 48 c 0,33,34
 314 48 314 48 335.5 52 c 128,-1,35
 357 56 357 56 375 61.5 c 128,-1,36
 393 67 393 67 407 73 c 128,-1,37
 421 79 421 79 428 84 c 1,38,-1
 435 25 l 1,39,40
 416 13 416 13 377 1.5 c 128,-1,41
 338 -10 338 -10 290 -12 c 1,42,43
 285 -19 285 -19 280.5 -26 c 128,-1,44
 276 -33 276 -33 273 -38 c 1,45,46
 296 -51 296 -51 306.5 -64.5 c 128,-1,47
 317 -78 317 -78 317 -102 c 0,48,49
 317 -143 317 -143 285.5 -165 c 128,-1,50
 254 -187 254 -187 206 -187 c 0,51,52
 189 -187 189 -187 172.5 -185 c 128,-1,53
 156 -183 156 -183 136 -175 c 1,54,-1
 154 -132 l 1,0,1
EndSplineSet
Substitution2: "'case' Case-Sensitive Forms lookup 19 subtable" Ccedilla
EndChar

StartChar: eth
Encoding: 240 240 203
Width: 562
Flags: W
LayerCount: 2
Fore
SplineSet
550 627 m 1,0,1
 591 536 591 536 591 426 c 0,2,3
 591 389 591 389 585 342.5 c 128,-1,4
 579 296 579 296 565 247 c 128,-1,5
 551 198 551 198 528 151.5 c 128,-1,6
 505 105 505 105 470.5 68.5 c 128,-1,7
 436 32 436 32 389 10 c 128,-1,8
 342 -12 342 -12 280 -12 c 0,9,10
 235 -12 235 -12 201 3 c 128,-1,11
 167 18 167 18 144 45 c 128,-1,12
 121 72 121 72 109.5 108.5 c 128,-1,13
 98 145 98 145 98 188 c 0,14,15
 98 257 98 257 121.5 312.5 c 128,-1,16
 145 368 145 368 183.5 407 c 128,-1,17
 222 446 222 446 271.5 467 c 128,-1,18
 321 488 321 488 374 488 c 0,19,20
 420 488 420 488 454 477.5 c 128,-1,21
 488 467 488 467 523 440 c 1,22,23
 522 481 522 481 513.5 523.5 c 128,-1,24
 505 566 505 566 487 607 c 1,25,-1
 355 565 l 1,26,-1
 348 617 l 1,27,-1
 461 653 l 1,28,29
 444 678 444 678 423 700 c 128,-1,30
 402 722 402 722 376 740 c 1,31,-1
 430 776 l 1,32,33
 459 756 459 756 483 730.5 c 128,-1,34
 507 705 507 705 526 673 c 1,35,-1
 657 715 l 1,36,-1
 664 663 l 1,37,-1
 550 627 l 1,0,1
290 47 m 0,38,39
 345 47 345 47 385.5 74.5 c 128,-1,40
 426 102 426 102 454 147 c 128,-1,41
 482 192 482 192 497.5 249 c 128,-1,42
 513 306 513 306 519 365 c 1,43,44
 488 399 488 399 456 414 c 128,-1,45
 424 429 424 429 374 429 c 0,46,47
 325 429 325 429 286.5 411 c 128,-1,48
 248 393 248 393 221 361 c 128,-1,49
 194 329 194 329 180 286 c 128,-1,50
 166 243 166 243 166 194 c 0,51,52
 166 163 166 163 173.5 136 c 128,-1,53
 181 109 181 109 196 89.5 c 128,-1,54
 211 70 211 70 234.5 58.5 c 128,-1,55
 258 47 258 47 290 47 c 0,38,39
EndSplineSet
Substitution2: "'case' Case-Sensitive Forms lookup 19 subtable" Eth
EndChar

StartChar: divide
Encoding: 247 247 210
Width: 564
Flags: W
LayerCount: 2
Fore
SplineSet
295 56 m 0,0,1
 275 56 275 56 265 70 c 128,-1,2
 255 84 255 84 260 105 c 0,3,4
 265 127 265 127 282 141 c 128,-1,5
 299 155 299 155 319 155 c 0,6,7
 340 155 340 155 350 141 c 128,-1,8
 360 127 360 127 355 105 c 0,9,10
 350 84 350 84 333 70 c 128,-1,11
 316 56 316 56 295 56 c 0,0,1
386 432 m 0,12,13
 366 432 366 432 356 446 c 128,-1,14
 346 460 346 460 351 482 c 0,15,16
 356 503 356 503 373 517 c 128,-1,17
 390 531 390 531 410 531 c 0,18,19
 431 531 431 531 441 517 c 128,-1,20
 451 503 451 503 446 482 c 0,21,22
 441 460 441 460 424 446 c 128,-1,23
 407 432 407 432 386 432 c 0,12,13
134 322 m 1,24,-1
 586 322 l 1,25,-1
 573 266 l 1,26,-1
 121 266 l 1,27,-1
 134 322 l 1,24,-1
EndSplineSet
EndChar

StartChar: oslash
Encoding: 248 248 211
Width: 526
Flags: W
LayerCount: 2
Fore
SplineSet
558 355 m 0,0,1
 558 261 558 261 531.5 192 c 128,-1,2
 505 123 505 123 463.5 77.5 c 128,-1,3
 422 32 422 32 371.5 10 c 128,-1,4
 321 -12 321 -12 272 -12 c 0,5,6
 242 -12 242 -12 214 -4 c 128,-1,7
 186 4 186 4 163 21 c 1,8,-1
 114 -35 l 1,9,-1
 75 -2 l 1,10,-1
 128 58 l 1,11,12
 114 78 114 78 106 104 c 128,-1,13
 98 130 98 130 98 162 c 0,14,15
 98 256 98 256 124.5 325 c 128,-1,16
 151 394 151 394 192.5 439 c 128,-1,17
 234 484 234 484 284.5 506 c 128,-1,18
 335 528 335 528 384 528 c 0,19,20
 419 528 419 528 450 517 c 128,-1,21
 481 506 481 506 505 485 c 1,22,-1
 559 546 l 1,23,-1
 598 514 l 1,24,-1
 536 444 l 1,25,26
 558 406 558 406 558 355 c 0,0,1
164 166 m 0,27,28
 164 149 164 149 166.5 135.5 c 128,-1,29
 169 122 169 122 174 110 c 1,30,-1
 462 436 l 1,31,32
 430 469 430 469 380 469 c 0,33,34
 344 469 344 469 306 450.5 c 128,-1,35
 268 432 268 432 236.5 394.5 c 128,-1,36
 205 357 205 357 184.5 300 c 128,-1,37
 164 243 164 243 164 166 c 0,27,28
492 350 m 0,38,39
 492 370 492 370 487 388 c 1,40,-1
 206 69 l 1,41,42
 234 47 234 47 276 47 c 0,43,44
 312 47 312 47 350 65.5 c 128,-1,45
 388 84 388 84 419.5 121.5 c 128,-1,46
 451 159 451 159 471.5 216 c 128,-1,47
 492 273 492 273 492 350 c 0,38,39
EndSplineSet
Substitution2: "'case' Case-Sensitive Forms lookup 19 subtable" Oslash
EndChar

StartChar: thorn
Encoding: 254 254 217
Width: 519
Flags: W
LayerCount: 2
Fore
SplineSet
273 517 m 1,0,1
 321 529 321 529 369 529 c 0,2,3
 461 529 461 529 506 481 c 128,-1,4
 551 433 551 433 551 339 c 0,5,6
 551 270 551 270 529 207 c 128,-1,7
 507 144 507 144 464.5 96 c 128,-1,8
 422 48 422 48 360.5 19.5 c 128,-1,9
 299 -9 299 -9 220 -9 c 0,10,11
 181 -9 181 -9 148 0 c 1,12,-1
 104 -185 l 1,13,-1
 38 -185 l 1,14,-1
 176 388 l 1,15,-1
 202 496 l 1,16,-1
 266 764 l 1,17,-1
 334 776 l 1,18,-1
 273 517 l 1,0,1
164 60 m 1,19,20
 195 51 195 51 227 51 c 0,21,22
 289 51 289 51 337 74.5 c 128,-1,23
 385 98 385 98 418 136.5 c 128,-1,24
 451 175 451 175 468 225 c 128,-1,25
 485 275 485 275 485 329 c 0,26,27
 485 404 485 404 452 438.5 c 128,-1,28
 419 473 419 473 353 473 c 0,29,30
 330 473 330 473 306.5 469 c 128,-1,31
 283 465 283 465 258 458 c 1,32,-1
 164 60 l 1,19,20
EndSplineSet
Substitution2: "'case' Case-Sensitive Forms lookup 19 subtable" Thorn
EndChar

StartChar: Aogonek
Encoding: 260 260 223
Width: 622
Flags: W
LayerCount: 2
Fore
SplineSet
546 0 m 1,0,1
 541 48 541 48 535.5 95 c 128,-1,2
 530 142 530 142 524 190 c 1,3,-1
 198 190 l 1,4,5
 172 144 172 144 146 97 c 128,-1,6
 120 50 120 50 94 0 c 1,7,-1
 20 0 l 1,8,9
 123 186 123 186 232 362 c 128,-1,10
 341 538 341 538 446 693 c 1,11,-1
 519 693 l 1,12,13
 544 547 544 547 568.5 377.5 c 128,-1,14
 593 208 593 208 616 0 c 1,15,16
 560 -36 560 -36 538 -61.5 c 128,-1,17
 516 -87 516 -87 516 -107 c 0,18,19
 516 -119 516 -119 524.5 -125 c 128,-1,20
 533 -131 533 -131 545.5 -133 c 128,-1,21
 558 -135 558 -135 571 -133.5 c 128,-1,22
 584 -132 584 -132 593 -130 c 1,23,-1
 586 -179 l 1,24,25
 572 -182 572 -182 559.5 -184 c 128,-1,26
 547 -186 547 -186 533 -186 c 0,27,28
 517 -186 517 -186 503 -183 c 128,-1,29
 489 -180 489 -180 478 -172.5 c 128,-1,30
 467 -165 467 -165 460.5 -153 c 128,-1,31
 454 -141 454 -141 454 -122 c 0,32,33
 454 -104 454 -104 463 -87 c 128,-1,34
 472 -70 472 -70 485.5 -54.5 c 128,-1,35
 499 -39 499 -39 516 -25 c 128,-1,36
 533 -11 533 -11 549 0 c 1,37,-1
 546 0 l 1,0,1
465 615 m 1,38,39
 404 522 404 522 346 432 c 128,-1,40
 288 342 288 342 232 248 c 1,41,-1
 517 248 l 1,42,43
 506 338 506 338 493 428.5 c 128,-1,44
 480 519 480 519 465 615 c 1,38,39
EndSplineSet
EndChar

StartChar: aogonek
Encoding: 261 261 224
Width: 522
Flags: W
LayerCount: 2
Fore
SplineSet
331 -122 m 0,0,1
 331 -104 331 -104 340 -87 c 128,-1,2
 349 -70 349 -70 362.5 -54.5 c 128,-1,3
 376 -39 376 -39 393 -25 c 128,-1,4
 410 -11 410 -11 426 0 c 1,5,6
 415 23 415 23 412 53 c 1,7,8
 377 19 377 19 338.5 3 c 128,-1,9
 300 -13 300 -13 259 -13 c 0,10,11
 227 -13 227 -13 198 -2 c 128,-1,12
 169 9 169 9 147 32 c 128,-1,13
 125 55 125 55 111.5 91.5 c 128,-1,14
 98 128 98 128 98 178 c 0,15,16
 98 258 98 258 124 323 c 128,-1,17
 150 388 150 388 196.5 433.5 c 128,-1,18
 243 479 243 479 306.5 504 c 128,-1,19
 370 529 370 529 445 529 c 0,20,21
 507 529 507 529 564 508 c 1,22,-1
 487 197 l 2,23,24
 481 172 481 172 477 150 c 128,-1,25
 473 128 473 128 473 108 c 0,26,27
 473 81 473 81 478 57 c 128,-1,28
 483 33 483 33 496 4 c 1,29,30
 440 -32 440 -32 416.5 -59.5 c 128,-1,31
 393 -87 393 -87 393 -107 c 0,32,33
 393 -119 393 -119 401.5 -125 c 128,-1,34
 410 -131 410 -131 422.5 -133 c 128,-1,35
 435 -135 435 -135 448 -133.5 c 128,-1,36
 461 -132 461 -132 470 -130 c 1,37,-1
 463 -179 l 1,38,39
 449 -182 449 -182 436.5 -184 c 128,-1,40
 424 -186 424 -186 410 -186 c 0,41,42
 394 -186 394 -186 380 -183 c 128,-1,43
 366 -180 366 -180 355 -172.5 c 128,-1,44
 344 -165 344 -165 337.5 -153 c 128,-1,45
 331 -141 331 -141 331 -122 c 0,0,1
487 461 m 1,46,47
 469 465 469 465 454 467 c 128,-1,48
 439 469 439 469 423 469 c 0,49,50
 361 469 361 469 313 445 c 128,-1,51
 265 421 265 421 232 382 c 128,-1,52
 199 343 199 343 181.5 293 c 128,-1,53
 164 243 164 243 164 191 c 0,54,55
 164 150 164 150 172 122.5 c 128,-1,56
 180 95 180 95 194 78.5 c 128,-1,57
 208 62 208 62 226.5 54.5 c 128,-1,58
 245 47 245 47 266 47 c 0,59,60
 307 47 307 47 343 66.5 c 128,-1,61
 379 86 379 86 411 122 c 1,62,63
 411 149 411 149 419 184 c 128,-1,64
 427 219 427 219 434 247 c 2,65,-1
 487 461 l 1,46,47
EndSplineSet
Substitution2: "'case' Case-Sensitive Forms lookup 19 subtable" Aogonek
EndChar

StartChar: dcroat
Encoding: 273 273 236
Width: 540
Flags: W
LayerCount: 2
Fore
SplineSet
434 -6 m 1,0,1
 429 4 429 4 424 20.5 c 128,-1,2
 419 37 419 37 417 53 c 1,3,4
 408 43 408 43 393.5 31.5 c 128,-1,5
 379 20 379 20 359 10.5 c 128,-1,6
 339 1 339 1 314 -5.5 c 128,-1,7
 289 -12 289 -12 259 -12 c 0,8,9
 216 -12 216 -12 185.5 3.5 c 128,-1,10
 155 19 155 19 135.5 45 c 128,-1,11
 116 71 116 71 107 106.5 c 128,-1,12
 98 142 98 142 98 181 c 0,13,14
 98 244 98 244 118.5 306 c 128,-1,15
 139 368 139 368 181.5 417.5 c 128,-1,16
 224 467 224 467 289 498 c 128,-1,17
 354 529 354 529 442 529 c 0,18,19
 474 529 474 529 507 523 c 1,20,-1
 530 623 l 1,21,-1
 376 623 l 1,22,-1
 388 675 l 1,23,-1
 543 675 l 1,24,-1
 564 764 l 1,25,-1
 632 776 l 1,26,-1
 607 675 l 1,27,-1
 687 675 l 1,28,-1
 675 623 l 1,29,-1
 595 623 l 1,30,-1
 488 179 l 2,31,32
 483 161 483 161 480.5 144 c 128,-1,33
 478 127 478 127 478 111 c 0,34,35
 478 82 478 82 483 56 c 128,-1,36
 488 30 488 30 501 4 c 1,37,-1
 434 -6 l 1,0,1
493 464 m 1,38,39
 479 466 479 466 462 467.5 c 128,-1,40
 445 469 445 469 431 469 c 0,41,42
 361 469 361 469 310.5 443.5 c 128,-1,43
 260 418 260 418 227.5 377.5 c 128,-1,44
 195 337 195 337 179.5 287.5 c 128,-1,45
 164 238 164 238 164 190 c 0,46,47
 164 160 164 160 169.5 134.5 c 128,-1,48
 175 109 175 109 187 89.5 c 128,-1,49
 199 70 199 70 218 59 c 128,-1,50
 237 48 237 48 264 48 c 0,51,52
 289 48 289 48 311.5 55 c 128,-1,53
 334 62 334 62 353.5 72.5 c 128,-1,54
 373 83 373 83 389 96 c 128,-1,55
 405 109 405 109 416 121 c 1,56,57
 416 147 416 147 423 179.5 c 128,-1,58
 430 212 430 212 439 247 c 2,59,-1
 493 464 l 1,38,39
EndSplineSet
Substitution2: "'case' Case-Sensitive Forms lookup 19 subtable" Dcroat
EndChar

StartChar: Eogonek
Encoding: 280 280 243
Width: 524
Flags: W
LayerCount: 2
Fore
SplineSet
249 693 m 1,0,-1
 636 693 l 1,1,-1
 623 634 l 1,2,-1
 302 634 l 1,3,-1
 243 393 l 1,4,-1
 529 393 l 1,5,-1
 516 335 l 1,6,-1
 232 335 l 1,7,-1
 163 59 l 1,8,-1
 507 59 l 1,9,-1
 495 0 l 1,10,11
 439 -36 439 -36 417 -61.5 c 128,-1,12
 395 -87 395 -87 395 -107 c 0,13,14
 395 -119 395 -119 403.5 -125 c 128,-1,15
 412 -131 412 -131 424.5 -133 c 128,-1,16
 437 -135 437 -135 450 -133.5 c 128,-1,17
 463 -132 463 -132 472 -130 c 1,18,-1
 465 -179 l 1,19,20
 451 -182 451 -182 438.5 -184 c 128,-1,21
 426 -186 426 -186 412 -186 c 0,22,23
 396 -186 396 -186 382 -183 c 128,-1,24
 368 -180 368 -180 357 -172.5 c 128,-1,25
 346 -165 346 -165 339.5 -153 c 128,-1,26
 333 -141 333 -141 333 -122 c 0,27,28
 333 -104 333 -104 342 -87 c 128,-1,29
 351 -70 351 -70 364.5 -54.5 c 128,-1,30
 378 -39 378 -39 395 -25 c 128,-1,31
 412 -11 412 -11 428 0 c 1,32,-1
 83 0 l 1,33,-1
 249 693 l 1,0,-1
EndSplineSet
EndChar

StartChar: eogonek
Encoding: 281 281 244
Width: 488
Flags: W
LayerCount: 2
Fore
SplineSet
261 -122 m 0,0,1
 261 -106 261 -106 268.5 -90 c 128,-1,2
 276 -74 276 -74 287.5 -59.5 c 128,-1,3
 299 -45 299 -45 314 -32 c 128,-1,4
 329 -19 329 -19 344 -8 c 1,5,6
 332 -10 332 -10 319.5 -11 c 128,-1,7
 307 -12 307 -12 295 -12 c 0,8,9
 240 -12 240 -12 202.5 2 c 128,-1,10
 165 16 165 16 141.5 41 c 128,-1,11
 118 66 118 66 108 101 c 128,-1,12
 98 136 98 136 98 178 c 0,13,14
 98 242 98 242 117.5 305 c 128,-1,15
 137 368 137 368 175 418 c 128,-1,16
 213 468 213 468 268.5 498.5 c 128,-1,17
 324 529 324 529 395 529 c 0,18,19
 465 529 465 529 502.5 492.5 c 128,-1,20
 540 456 540 456 540 396 c 0,21,22
 540 337 540 337 512.5 300.5 c 128,-1,23
 485 264 485 264 435.5 243 c 128,-1,24
 386 222 386 222 316.5 213 c 128,-1,25
 247 204 247 204 162 200 c 1,26,-1
 162 186 l 2,27,28
 162 157 162 157 168 132 c 128,-1,29
 174 107 174 107 190 88.5 c 128,-1,30
 206 70 206 70 234.5 59 c 128,-1,31
 263 48 263 48 308 48 c 0,32,33
 343 48 343 48 378.5 58 c 128,-1,34
 414 68 414 68 446 88 c 1,35,-1
 453 28 l 1,36,37
 385 -20 385 -20 354 -50.5 c 128,-1,38
 323 -81 323 -81 323 -107 c 0,39,40
 323 -119 323 -119 331.5 -125 c 128,-1,41
 340 -131 340 -131 352.5 -133 c 128,-1,42
 365 -135 365 -135 378 -133.5 c 128,-1,43
 391 -132 391 -132 400 -130 c 1,44,-1
 393 -179 l 1,45,46
 379 -182 379 -182 366.5 -184 c 128,-1,47
 354 -186 354 -186 340 -186 c 0,48,49
 324 -186 324 -186 310 -183 c 128,-1,50
 296 -180 296 -180 285 -172.5 c 128,-1,51
 274 -165 274 -165 267.5 -153 c 128,-1,52
 261 -141 261 -141 261 -122 c 0,0,1
389 470 m 0,53,54
 348 470 348 470 313 453.5 c 128,-1,55
 278 437 278 437 249.5 408.5 c 128,-1,56
 221 380 221 380 201 342.5 c 128,-1,57
 181 305 181 305 171 263 c 1,58,59
 257 264 257 264 315 273 c 128,-1,60
 373 282 373 282 408.5 297.5 c 128,-1,61
 444 313 444 313 459 336.5 c 128,-1,62
 474 360 474 360 474 392 c 0,63,64
 474 431 474 431 450.5 450.5 c 128,-1,65
 427 470 427 470 389 470 c 0,53,54
EndSplineSet
Substitution2: "'case' Case-Sensitive Forms lookup 19 subtable" Eogonek
EndChar

StartChar: Hbar
Encoding: 294 294 257
Width: 675
Flags: W
LayerCount: 2
Fore
SplineSet
220 532 m 1,0,-1
 139 532 l 1,1,-1
 152 586 l 1,2,-1
 233 586 l 1,3,-1
 259 693 l 1,4,-1
 327 693 l 1,5,-1
 300 586 l 1,6,-1
 658 586 l 1,7,-1
 684 693 l 1,8,-1
 752 693 l 1,9,-1
 726 586 l 1,10,-1
 804 586 l 1,11,-1
 791 532 l 1,12,-1
 713 532 l 1,13,-1
 587 0 l 1,14,-1
 519 0 l 1,15,-1
 599 333 l 1,16,-1
 241 333 l 1,17,-1
 161 0 l 1,18,-1
 93 0 l 1,19,-1
 220 532 l 1,0,-1
612 392 m 1,20,-1
 645 532 l 1,21,-1
 287 532 l 1,22,-1
 253 392 l 1,23,-1
 612 392 l 1,20,-1
EndSplineSet
EndChar

StartChar: hbar
Encoding: 295 295 258
Width: 545
Flags: W
LayerCount: 2
Fore
SplineSet
465 623 m 1,0,-1
 296 623 l 1,1,-1
 267 503 l 1,2,3
 330 529 330 529 386 529 c 0,4,5
 420 529 420 529 449 519 c 128,-1,6
 478 509 478 509 500 489 c 128,-1,7
 522 469 522 469 534.5 438.5 c 128,-1,8
 547 408 547 408 547 366 c 0,9,10
 547 340 547 340 543 312.5 c 128,-1,11
 539 285 539 285 532 257 c 2,12,-1
 470 0 l 1,13,-1
 405 0 l 1,14,-1
 460 230 l 2,15,16
 468 263 468 263 475 297 c 128,-1,17
 482 331 482 331 482 362 c 0,18,19
 482 392 482 392 472.5 412.5 c 128,-1,20
 463 433 463 433 447.5 445.5 c 128,-1,21
 432 458 432 458 411 463.5 c 128,-1,22
 390 469 390 469 367 469 c 0,23,24
 338 469 338 469 308.5 463 c 128,-1,25
 279 457 279 457 253 448 c 1,26,-1
 148 0 l 1,27,-1
 83 0 l 1,28,-1
 231 623 l 1,29,-1
 166 623 l 1,30,-1
 178 675 l 1,31,-1
 244 675 l 1,32,-1
 265 764 l 1,33,-1
 333 776 l 1,34,-1
 308 675 l 1,35,-1
 477 675 l 1,36,-1
 465 623 l 1,0,-1
EndSplineSet
Substitution2: "'case' Case-Sensitive Forms lookup 19 subtable" Hbar
EndChar

StartChar: Iogonek
Encoding: 302 302 265
Width: 230
Flags: W
LayerCount: 2
Fore
SplineSet
249 693 m 1,0,-1
 317 693 l 1,1,-1
 152 0 l 1,2,3
 96 -36 96 -36 74 -61.5 c 128,-1,4
 52 -87 52 -87 52 -107 c 0,5,6
 52 -119 52 -119 60.5 -125 c 128,-1,7
 69 -131 69 -131 81.5 -133 c 128,-1,8
 94 -135 94 -135 107 -133.5 c 128,-1,9
 120 -132 120 -132 129 -130 c 1,10,-1
 122 -179 l 1,11,12
 108 -182 108 -182 95.5 -184 c 128,-1,13
 83 -186 83 -186 69 -186 c 0,14,15
 53 -186 53 -186 39 -183 c 128,-1,16
 25 -180 25 -180 14 -172.5 c 128,-1,17
 3 -165 3 -165 -3.5 -153 c 128,-1,18
 -10 -141 -10 -141 -10 -122 c 0,19,20
 -10 -104 -10 -104 -1 -87 c 128,-1,21
 8 -70 8 -70 21.5 -54.5 c 128,-1,22
 35 -39 35 -39 52 -25 c 128,-1,23
 69 -11 69 -11 85 0 c 1,24,-1
 83 0 l 1,25,-1
 249 693 l 1,0,-1
EndSplineSet
EndChar

StartChar: iogonek
Encoding: 303 303 266
Width: 235
Flags: W
LayerCount: 2
Fore
SplineSet
-14 -122 m 0,0,1
 -14 -104 -14 -104 -5 -87 c 128,-1,2
 4 -70 4 -70 18.5 -54.5 c 128,-1,3
 33 -39 33 -39 50 -25 c 128,-1,4
 67 -11 67 -11 83 0 c 1,5,-1
 208 517 l 1,6,-1
 273 517 l 1,7,-1
 148 0 l 1,8,9
 92 -36 92 -36 70 -61.5 c 128,-1,10
 48 -87 48 -87 48 -107 c 0,11,12
 48 -119 48 -119 56.5 -125 c 128,-1,13
 65 -131 65 -131 77.5 -133 c 128,-1,14
 90 -135 90 -135 103 -133.5 c 128,-1,15
 116 -132 116 -132 125 -130 c 1,16,-1
 118 -179 l 1,17,18
 104 -182 104 -182 91.5 -184 c 128,-1,19
 79 -186 79 -186 65 -186 c 0,20,21
 49 -186 49 -186 35 -183 c 128,-1,22
 21 -180 21 -180 10 -172.5 c 128,-1,23
 -1 -165 -1 -165 -7.5 -153 c 128,-1,24
 -14 -141 -14 -141 -14 -122 c 0,0,1
234 668 m 0,25,26
 234 694 234 694 248.5 707.5 c 128,-1,27
 263 721 263 721 280 721 c 0,28,29
 300 721 300 721 311 708.5 c 128,-1,30
 322 696 322 696 322 676 c 0,31,32
 322 652 322 652 306 639 c 128,-1,33
 290 626 290 626 274 626 c 0,34,35
 254 626 254 626 244 637.5 c 128,-1,36
 234 649 234 649 234 668 c 0,25,26
EndSplineSet
Substitution2: "'case' Case-Sensitive Forms lookup 19 subtable" Iogonek
EndChar

StartChar: dotlessi
Encoding: 305 305 268
Width: 235
Flags: W
LayerCount: 2
Fore
SplineSet
208 517 m 1,0,-1
 273 517 l 1,1,-1
 148 0 l 1,2,-1
 83 0 l 1,3,-1
 208 517 l 1,0,-1
EndSplineSet
EndChar

StartChar: kgreenlandic
Encoding: 312 312 277
Width: 504
Flags: W
LayerCount: 2
Fore
SplineSet
208 517 m 1,0,-1
 273 517 l 1,1,-1
 220 298 l 1,2,3
 256 322 256 322 295 352.5 c 128,-1,4
 334 383 334 383 370 413.5 c 128,-1,5
 406 444 406 444 435 471.5 c 128,-1,6
 464 499 464 499 480 517 c 1,7,-1
 559 517 l 1,8,9
 541 494 541 494 506 460.5 c 128,-1,10
 471 427 471 427 430.5 392.5 c 128,-1,11
 390 358 390 358 352 328.5 c 128,-1,12
 314 299 314 299 290 285 c 1,13,14
 324 259 324 259 358.5 224 c 128,-1,15
 393 189 393 189 422.5 150.5 c 128,-1,16
 452 112 452 112 475 73 c 128,-1,17
 498 34 498 34 510 0 c 1,18,-1
 440 0 l 1,19,20
 396 94 396 94 336 161.5 c 128,-1,21
 276 229 276 229 214 271 c 1,22,-1
 148 0 l 1,23,-1
 83 0 l 1,24,-1
 208 517 l 1,0,-1
EndSplineSet
Substitution2: "'case' Case-Sensitive Forms lookup 19 subtable" kgreenlandic.case
EndChar

StartChar: Lslash
Encoding: 321 321 286
Width: 507
Flags: W
LayerCount: 2
Fore
SplineSet
187 298 m 1,0,-1
 100 259 l 1,1,-1
 86 315 l 1,2,-1
 203 368 l 1,3,-1
 281 693 l 1,4,-1
 349 693 l 1,5,-1
 279 402 l 1,6,-1
 406 459 l 1,7,-1
 420 403 l 1,8,-1
 262 332 l 1,9,-1
 197 58 l 1,10,-1
 504 58 l 1,11,-1
 491 0 l 1,12,-1
 116 0 l 1,13,-1
 187 298 l 1,0,-1
EndSplineSet
EndChar

StartChar: lslash
Encoding: 322 322 287
Width: 286
Flags: W
LayerCount: 2
Fore
SplineSet
161 348 m 1,0,-1
 89 316 l 1,1,-1
 77 363 l 1,2,-1
 175 407 l 1,3,-1
 261 764 l 1,4,-1
 328 776 l 1,5,-1
 248 439 l 1,6,-1
 333 478 l 1,7,-1
 344 431 l 1,8,-1
 234 381 l 1,9,-1
 204 255 l 2,10,11
 196 221 196 221 188.5 190.5 c 128,-1,12
 181 160 181 160 181 134 c 0,13,14
 181 102 181 102 198 80.5 c 128,-1,15
 215 59 215 59 265 49 c 1,16,-1
 249 -9 l 1,17,18
 211 -7 211 -7 185.5 4 c 128,-1,19
 160 15 160 15 145 32.5 c 128,-1,20
 130 50 130 50 124 73.5 c 128,-1,21
 118 97 118 97 118 125 c 0,22,23
 118 149 118 149 122 175.5 c 128,-1,24
 126 202 126 202 133 231 c 2,25,-1
 161 348 l 1,0,-1
EndSplineSet
Substitution2: "'case' Case-Sensitive Forms lookup 19 subtable" Lslash
EndChar

StartChar: Eng
Encoding: 330 330 296
Width: 669
Flags: W
LayerCount: 2
Fore
SplineSet
525 0 m 1,0,1
 507 61 507 61 480 142.5 c 128,-1,2
 453 224 453 224 421.5 308 c 128,-1,3
 390 392 390 392 357 469.5 c 128,-1,4
 324 547 324 547 294 601 c 1,5,-1
 150 0 l 1,6,-1
 83 0 l 1,7,-1
 249 693 l 1,8,-1
 316 693 l 1,9,10
 353 629 353 629 389.5 550 c 128,-1,11
 426 471 426 471 458.5 390.5 c 128,-1,12
 491 310 491 310 515.5 236 c 128,-1,13
 540 162 540 162 553 109 c 1,14,-1
 689 693 l 1,15,-1
 756 693 l 1,16,-1
 589 -9 l 2,17,18
 578 -54 578 -54 568.5 -87.5 c 128,-1,19
 559 -121 559 -121 542 -143 c 128,-1,20
 525 -165 525 -165 495 -176 c 128,-1,21
 465 -187 465 -187 413 -187 c 0,22,23
 408 -187 408 -187 400.5 -185.5 c 128,-1,24
 393 -184 393 -184 386 -182.5 c 128,-1,25
 379 -181 379 -181 374.5 -179 c 128,-1,26
 370 -177 370 -177 371 -176 c 2,27,-1
 384 -130 l 2,28,29
 387 -132 387 -132 398 -135 c 128,-1,30
 409 -138 409 -138 426 -138 c 0,31,32
 453 -138 453 -138 469.5 -128.5 c 128,-1,33
 486 -119 486 -119 495.5 -101 c 128,-1,34
 505 -83 505 -83 511 -57.5 c 128,-1,35
 517 -32 517 -32 525 0 c 1,0,1
EndSplineSet
EndChar

StartChar: eng
Encoding: 331 331 297
Width: 546
Flags: W
LayerCount: 2
Fore
SplineSet
274 -132 m 2,0,1
 276 -134 276 -134 285.5 -136.5 c 128,-1,2
 295 -139 295 -139 308 -139 c 0,3,4
 330 -139 330 -139 345 -131 c 128,-1,5
 360 -123 360 -123 370 -108.5 c 128,-1,6
 380 -94 380 -94 387 -73 c 128,-1,7
 394 -52 394 -52 400 -26 c 2,8,-1
 461 230 l 2,9,10
 470 265 470 265 478 299.5 c 128,-1,11
 486 334 486 334 486 365 c 0,12,13
 486 414 486 414 459 442 c 128,-1,14
 432 470 432 470 362 470 c 0,15,16
 333 470 333 470 304 465.5 c 128,-1,17
 275 461 275 461 258 456 c 1,18,-1
 148 0 l 1,19,-1
 83 0 l 1,20,-1
 202 499 l 1,21,22
 227 507 227 507 255.5 512.5 c 128,-1,23
 284 518 284 518 310 521 c 128,-1,24
 336 524 336 524 357 525.5 c 128,-1,25
 378 527 378 527 389 527 c 0,26,27
 434 527 434 527 464.5 515 c 128,-1,28
 495 503 495 503 513.5 481.5 c 128,-1,29
 532 460 532 460 540.5 431 c 128,-1,30
 549 402 549 402 549 368 c 0,31,32
 549 342 549 342 544.5 314 c 128,-1,33
 540 286 540 286 533 257 c 2,34,-1
 469 -10 l 2,35,36
 459 -46 459 -46 452 -78 c 128,-1,37
 445 -110 445 -110 428.5 -134 c 128,-1,38
 412 -158 412 -158 380.5 -172.5 c 128,-1,39
 349 -187 349 -187 289 -187 c 0,40,41
 285 -187 285 -187 271.5 -184.5 c 128,-1,42
 258 -182 258 -182 257 -178 c 2,43,-1
 274 -132 l 2,0,1
EndSplineSet
Substitution2: "'case' Case-Sensitive Forms lookup 19 subtable" Eng
EndChar

StartChar: Scedilla
Encoding: 350 350 314
Width: 487
Flags: W
LayerCount: 2
Fore
SplineSet
123 -132 m 1,0,1
 145 -141 145 -141 172 -141 c 0,2,3
 195 -141 195 -141 209 -134 c 128,-1,4
 223 -127 223 -127 223 -110 c 0,5,6
 223 -95 223 -95 213.5 -86 c 128,-1,7
 204 -77 204 -77 176 -66 c 1,8,9
 181 -55 181 -55 190.5 -41.5 c 128,-1,10
 200 -28 200 -28 209 -14 c 1,11,12
 166 -12 166 -12 124.5 0 c 128,-1,13
 83 12 83 12 48 34 c 1,14,-1
 83 93 l 1,15,16
 112 71 112 71 153.5 57.5 c 128,-1,17
 195 44 195 44 240 44 c 0,18,19
 276 44 276 44 309.5 52.5 c 128,-1,20
 343 61 343 61 369.5 79.5 c 128,-1,21
 396 98 396 98 412 126.5 c 128,-1,22
 428 155 428 155 428 195 c 256,23,24
 428 235 428 235 409 260 c 128,-1,25
 390 285 390 285 361.5 303 c 128,-1,26
 333 321 333 321 299.5 336.5 c 128,-1,27
 266 352 266 352 237.5 374 c 128,-1,28
 209 396 209 396 190 427.5 c 128,-1,29
 171 459 171 459 171 510 c 0,30,31
 171 546 171 546 186 581.5 c 128,-1,32
 201 617 201 617 232.5 645 c 128,-1,33
 264 673 264 673 311.5 690.5 c 128,-1,34
 359 708 359 708 424 708 c 0,35,36
 467 708 467 708 505.5 699.5 c 128,-1,37
 544 691 544 691 589 669 c 1,38,-1
 554 612 l 1,39,40
 519 633 519 633 484.5 641.5 c 128,-1,41
 450 650 450 650 412 650 c 0,42,43
 379 650 379 650 348.5 642.5 c 128,-1,44
 318 635 318 635 294 619.5 c 128,-1,45
 270 604 270 604 255.5 578.5 c 128,-1,46
 241 553 241 553 241 517 c 0,47,48
 241 477 241 477 260 452 c 128,-1,49
 279 427 279 427 308 409 c 128,-1,50
 337 391 337 391 370 375.5 c 128,-1,51
 403 360 403 360 432 338.5 c 128,-1,52
 461 317 461 317 480 284 c 128,-1,53
 499 251 499 251 499 198 c 0,54,55
 499 161 499 161 485 125 c 128,-1,56
 471 89 471 89 442 59.5 c 128,-1,57
 413 30 413 30 367 10.5 c 128,-1,58
 321 -9 321 -9 258 -13 c 1,59,60
 253 -20 253 -20 249 -26.5 c 128,-1,61
 245 -33 245 -33 242 -38 c 1,62,63
 265 -51 265 -51 275.5 -64.5 c 128,-1,64
 286 -78 286 -78 286 -102 c 0,65,66
 286 -143 286 -143 254.5 -165 c 128,-1,67
 223 -187 223 -187 175 -187 c 0,68,69
 158 -187 158 -187 141.5 -185 c 128,-1,70
 125 -183 125 -183 105 -175 c 1,71,-1
 123 -132 l 1,0,1
EndSplineSet
EndChar

StartChar: scedilla
Encoding: 351 351 315
Width: 400
Flags: W
LayerCount: 2
Fore
SplineSet
88 -132 m 1,0,1
 110 -141 110 -141 137 -141 c 0,2,3
 160 -141 160 -141 174 -134 c 128,-1,4
 188 -127 188 -127 188 -110 c 0,5,6
 188 -95 188 -95 178.5 -86 c 128,-1,7
 169 -77 169 -77 141 -66 c 1,8,9
 147 -55 147 -55 156.5 -40 c 128,-1,10
 166 -25 166 -25 176 -11 c 1,11,12
 142 -9 142 -9 109 -1 c 128,-1,13
 76 7 76 7 48 23 c 1,14,-1
 76 82 l 1,15,16
 113 62 113 62 141 55 c 128,-1,17
 169 48 169 48 204 48 c 0,18,19
 229 48 229 48 252 53.5 c 128,-1,20
 275 59 275 59 292 70 c 128,-1,21
 309 81 309 81 319 99 c 128,-1,22
 329 117 329 117 329 141 c 0,23,24
 329 167 329 167 314.5 183.5 c 128,-1,25
 300 200 300 200 278.5 212.5 c 128,-1,26
 257 225 257 225 232 236.5 c 128,-1,27
 207 248 207 248 185.5 264.5 c 128,-1,28
 164 281 164 281 149.5 305.5 c 128,-1,29
 135 330 135 330 135 368 c 0,30,31
 135 411 135 411 151 441.5 c 128,-1,32
 167 472 167 472 194 491.5 c 128,-1,33
 221 511 221 511 256 520 c 128,-1,34
 291 529 291 529 328 529 c 0,35,36
 360 529 360 529 391.5 523.5 c 128,-1,37
 423 518 423 518 452 507 c 1,38,-1
 426 449 l 1,39,40
 405 458 405 458 378 463.5 c 128,-1,41
 351 469 351 469 322 469 c 0,42,43
 298 469 298 469 275.5 464 c 128,-1,44
 253 459 253 459 235.5 448 c 128,-1,45
 218 437 218 437 207.5 419.5 c 128,-1,46
 197 402 197 402 197 376 c 256,47,48
 197 350 197 350 211.5 333.5 c 128,-1,49
 226 317 226 317 247.5 304.5 c 128,-1,50
 269 292 269 292 294 280.5 c 128,-1,51
 319 269 319 269 340.5 253 c 128,-1,52
 362 237 362 237 376.5 214 c 128,-1,53
 391 191 391 191 391 155 c 0,54,55
 391 115 391 115 377.5 85.5 c 128,-1,56
 364 56 364 56 341.5 35.5 c 128,-1,57
 319 15 319 15 288.5 4 c 128,-1,58
 258 -7 258 -7 225 -10 c 1,59,60
 220 -18 220 -18 215 -25 c 128,-1,61
 210 -32 210 -32 207 -38 c 1,62,63
 230 -51 230 -51 240.5 -64.5 c 128,-1,64
 251 -78 251 -78 251 -102 c 0,65,66
 251 -143 251 -143 219.5 -165 c 128,-1,67
 188 -187 188 -187 140 -187 c 0,68,69
 123 -187 123 -187 106.5 -185 c 128,-1,70
 90 -183 90 -183 70 -175 c 1,71,-1
 88 -132 l 1,0,1
EndSplineSet
Substitution2: "'case' Case-Sensitive Forms lookup 19 subtable" Scedilla
EndChar

StartChar: uni0162
Encoding: 354 354 316
Width: 522
Flags: W
LayerCount: 2
Fore
SplineSet
380 634 m 1,0,-1
 168 634 l 1,1,-1
 181 693 l 1,2,-1
 673 693 l 1,3,-1
 659 634 l 1,4,-1
 448 634 l 1,5,-1
 296 0 l 1,6,-1
 287 0 l 1,7,8
 279 -10 279 -10 272.5 -20 c 128,-1,9
 266 -30 266 -30 261 -38 c 1,10,11
 284 -51 284 -51 294.5 -64.5 c 128,-1,12
 305 -78 305 -78 305 -102 c 0,13,14
 305 -143 305 -143 273.5 -165 c 128,-1,15
 242 -187 242 -187 194 -187 c 0,16,17
 177 -187 177 -187 160.5 -185 c 128,-1,18
 144 -183 144 -183 124 -175 c 1,19,-1
 142 -132 l 1,20,21
 164 -141 164 -141 191 -141 c 0,22,23
 214 -141 214 -141 228 -134 c 128,-1,24
 242 -127 242 -127 242 -110 c 0,25,26
 242 -95 242 -95 232.5 -86 c 128,-1,27
 223 -77 223 -77 195 -66 c 1,28,29
 202 -52 202 -52 215 -33 c 128,-1,30
 228 -14 228 -14 239 0 c 1,31,-1
 228 0 l 1,32,-1
 380 634 l 1,0,-1
EndSplineSet
EndChar

StartChar: uni0163
Encoding: 355 355 317
Width: 377
Flags: W
LayerCount: 2
Fore
SplineSet
123 -132 m 1,0,1
 145 -141 145 -141 172 -141 c 0,2,3
 195 -141 195 -141 209 -134 c 128,-1,4
 223 -127 223 -127 223 -110 c 0,5,6
 223 -95 223 -95 213.5 -86 c 128,-1,7
 204 -77 204 -77 176 -66 c 1,8,9
 182 -54 182 -54 192 -39 c 128,-1,10
 202 -24 202 -24 212 -10 c 1,11,12
 191 -7 191 -7 173 0.5 c 128,-1,13
 155 8 155 8 141.5 22.5 c 128,-1,14
 128 37 128 37 120.5 58 c 128,-1,15
 113 79 113 79 113 109 c 0,16,17
 113 152 113 152 127 208 c 2,18,-1
 238 669 l 1,19,-1
 306 681 l 1,20,-1
 267 517 l 1,21,-1
 449 517 l 1,22,-1
 436 461 l 1,23,-1
 253 461 l 1,24,-1
 192 208 l 2,25,26
 187 190 187 190 183.5 169.5 c 128,-1,27
 180 149 180 149 180 129 c 0,28,29
 180 84 180 84 202 66 c 128,-1,30
 224 48 224 48 257 48 c 0,31,32
 289 48 289 48 312.5 55 c 128,-1,33
 336 62 336 62 362 74 c 1,34,-1
 368 15 l 1,35,36
 345 5 345 5 316.5 -2 c 128,-1,37
 288 -9 288 -9 259 -11 c 1,38,39
 254 -19 254 -19 249.5 -26 c 128,-1,40
 245 -33 245 -33 242 -38 c 1,41,42
 265 -51 265 -51 275.5 -64.5 c 128,-1,43
 286 -78 286 -78 286 -102 c 0,44,45
 286 -143 286 -143 254.5 -165 c 128,-1,46
 223 -187 223 -187 175 -187 c 0,47,48
 158 -187 158 -187 141.5 -185 c 128,-1,49
 125 -183 125 -183 105 -175 c 1,50,-1
 123 -132 l 1,0,1
EndSplineSet
Substitution2: "'case' Case-Sensitive Forms lookup 19 subtable" uni0162
EndChar

StartChar: Tbar
Encoding: 358 358 320
Width: 526
Flags: W
LayerCount: 2
Fore
SplineSet
309 331 m 1,0,-1
 186 331 l 1,1,-1
 198 383 l 1,2,-1
 322 383 l 1,3,-1
 382 634 l 1,4,-1
 170 634 l 1,5,-1
 183 693 l 1,6,-1
 675 693 l 1,7,-1
 661 634 l 1,8,-1
 450 634 l 1,9,-1
 390 383 l 1,10,-1
 524 383 l 1,11,-1
 512 331 l 1,12,-1
 377 331 l 1,13,-1
 298 0 l 1,14,-1
 230 0 l 1,15,-1
 309 331 l 1,0,-1
EndSplineSet
EndChar

StartChar: tbar
Encoding: 359 359 321
Width: 377
Flags: W
LayerCount: 2
Fore
SplineSet
238 669 m 1,0,-1
 306 681 l 1,1,-1
 267 517 l 1,2,-1
 449 517 l 1,3,-1
 436 461 l 1,4,-1
 253 461 l 1,5,-1
 213 297 l 1,6,-1
 398 297 l 1,7,-1
 386 245 l 1,8,-1
 201 245 l 1,9,-1
 192 208 l 2,10,11
 187 190 187 190 183.5 169.5 c 128,-1,12
 180 149 180 149 180 129 c 0,13,14
 180 84 180 84 202 66 c 128,-1,15
 224 48 224 48 257 48 c 0,16,17
 289 48 289 48 312.5 55 c 128,-1,18
 336 62 336 62 362 74 c 1,19,-1
 368 15 l 1,20,21
 341 4 341 4 307.5 -4 c 128,-1,22
 274 -12 274 -12 241 -12 c 0,23,24
 215 -12 215 -12 192 -6 c 128,-1,25
 169 0 169 0 151.5 14 c 128,-1,26
 134 28 134 28 123.5 51 c 128,-1,27
 113 74 113 74 113 109 c 0,28,29
 113 152 113 152 127 208 c 2,30,-1
 238 669 l 1,0,-1
EndSplineSet
Substitution2: "'case' Case-Sensitive Forms lookup 19 subtable" Tbar
EndChar

StartChar: Uogonek
Encoding: 370 370 332
Width: 648
Flags: W
LayerCount: 2
Fore
SplineSet
250 693 m 1,0,-1
 318 693 l 1,1,-1
 217 274 l 2,2,3
 212 251 212 251 208.5 228.5 c 128,-1,4
 205 206 205 206 205 185 c 0,5,6
 205 155 205 155 212 129.5 c 128,-1,7
 219 104 219 104 236 85 c 128,-1,8
 253 66 253 66 280 55 c 128,-1,9
 307 44 307 44 348 44 c 0,10,11
 394 44 394 44 429 57 c 128,-1,12
 464 70 464 70 490.5 97.5 c 128,-1,13
 517 125 517 125 536 168 c 128,-1,14
 555 211 555 211 570 271 c 2,15,-1
 672 693 l 1,16,-1
 740 693 l 1,17,-1
 636 261 l 2,18,19
 607 140 607 140 556 75.5 c 128,-1,20
 505 11 505 11 420 -8 c 1,21,22
 372 -40 372 -40 352.5 -64 c 128,-1,23
 333 -88 333 -88 333 -107 c 0,24,25
 333 -119 333 -119 341.5 -125 c 128,-1,26
 350 -131 350 -131 362.5 -133 c 128,-1,27
 375 -135 375 -135 388 -133.5 c 128,-1,28
 401 -132 401 -132 410 -130 c 1,29,-1
 403 -179 l 1,30,31
 389 -182 389 -182 376.5 -184 c 128,-1,32
 364 -186 364 -186 350 -186 c 0,33,34
 334 -186 334 -186 320 -183 c 128,-1,35
 306 -180 306 -180 295 -172.5 c 128,-1,36
 284 -165 284 -165 277.5 -153 c 128,-1,37
 271 -141 271 -141 271 -122 c 0,38,39
 271 -93 271 -93 293.5 -65.5 c 128,-1,40
 316 -38 316 -38 344 -16 c 1,41,-1
 342 -16 l 2,42,43
 289 -16 289 -16 250.5 -1.5 c 128,-1,44
 212 13 212 13 187 39 c 128,-1,45
 162 65 162 65 150 101 c 128,-1,46
 138 137 138 137 138 180 c 0,47,48
 138 224 138 224 150 272 c 2,49,-1
 250 693 l 1,0,-1
EndSplineSet
EndChar

StartChar: uogonek
Encoding: 371 371 333
Width: 522
Flags: W
LayerCount: 2
Fore
SplineSet
248 -12 m 0,0,1
 205 -12 205 -12 176 -1 c 128,-1,2
 147 10 147 10 130 29.5 c 128,-1,3
 113 49 113 49 105.5 75.5 c 128,-1,4
 98 102 98 102 98 133 c 0,5,6
 98 162 98 162 103 194.5 c 128,-1,7
 108 227 108 227 116 260 c 2,8,-1
 178 517 l 1,9,-1
 243 517 l 1,10,-1
 188 289 l 2,11,12
 180 254 180 254 170.5 215.5 c 128,-1,13
 161 177 161 177 161 142 c 0,14,15
 161 122 161 122 165.5 105 c 128,-1,16
 170 88 170 88 181 75 c 128,-1,17
 192 62 192 62 210 55 c 128,-1,18
 228 48 228 48 256 48 c 0,19,20
 304 48 304 48 340.5 67 c 128,-1,21
 377 86 377 86 409 122 c 1,22,23
 409 149 409 149 417 184 c 128,-1,24
 425 219 425 219 432 247 c 2,25,-1
 499 517 l 1,26,-1
 564 517 l 1,27,-1
 485 197 l 2,28,29
 479 172 479 172 475 150 c 128,-1,30
 471 128 471 128 471 108 c 0,31,32
 471 81 471 81 476 57 c 128,-1,33
 481 33 481 33 494 4 c 1,34,35
 438 -32 438 -32 413.5 -59.5 c 128,-1,36
 389 -87 389 -87 389 -107 c 0,37,38
 389 -119 389 -119 397.5 -125 c 128,-1,39
 406 -131 406 -131 418.5 -133 c 128,-1,40
 431 -135 431 -135 444 -133.5 c 128,-1,41
 457 -132 457 -132 466 -130 c 1,42,-1
 459 -179 l 1,43,44
 445 -182 445 -182 432.5 -184 c 128,-1,45
 420 -186 420 -186 406 -186 c 0,46,47
 390 -186 390 -186 376 -183 c 128,-1,48
 362 -180 362 -180 351 -172.5 c 128,-1,49
 340 -165 340 -165 333.5 -153 c 128,-1,50
 327 -141 327 -141 327 -122 c 0,51,52
 327 -104 327 -104 336 -87 c 128,-1,53
 345 -70 345 -70 359 -54 c 128,-1,54
 373 -38 373 -38 390 -24 c 128,-1,55
 407 -10 407 -10 423 1 c 1,56,57
 413 26 413 26 410 53 c 1,58,59
 375 19 375 19 335.5 3.5 c 128,-1,60
 296 -12 296 -12 248 -12 c 0,0,1
EndSplineSet
Substitution2: "'case' Case-Sensitive Forms lookup 19 subtable" Uogonek
EndChar

StartChar: longs
Encoding: 383 383 344
Width: 245
Flags: W
LayerCount: 2
Fore
SplineSet
171 102 m 2,0,1
 159 54 159 54 147.5 13.5 c 128,-1,2
 136 -27 136 -27 121.5 -62 c 128,-1,3
 107 -97 107 -97 88 -128 c 128,-1,4
 69 -159 69 -159 43 -189 c 1,5,-1
 -14 -180 l 1,6,7
 11 -146 11 -146 28.5 -117.5 c 128,-1,8
 46 -89 46 -89 58 -61 c 128,-1,9
 70 -33 70 -33 79 -4.5 c 128,-1,10
 88 24 88 24 96 58 c 2,11,-1
 220 573 l 2,12,13
 234 633 234 633 257.5 672 c 128,-1,14
 281 711 281 711 310.5 734 c 128,-1,15
 340 757 340 757 374 766.5 c 128,-1,16
 408 776 408 776 443 776 c 0,17,18
 477 776 477 776 501.5 770 c 128,-1,19
 526 764 526 764 547 756 c 1,20,-1
 516 704 l 1,21,22
 495 711 495 711 476.5 715 c 128,-1,23
 458 719 458 719 433 719 c 0,24,25
 407 719 407 719 385 712 c 128,-1,26
 363 705 363 705 344 688 c 128,-1,27
 325 671 325 671 310 642.5 c 128,-1,28
 295 614 295 614 285 571 c 2,29,-1
 171 102 l 2,0,1
EndSplineSet
Substitution2: "'case' Case-Sensitive Forms lookup 18 subtable" S
EndChar

StartChar: dotlessj
Encoding: 567 567 349
Width: 235
Flags: W
LayerCount: 2
Fore
SplineSet
-86 -115 m 1,0,1
 -70 -123 -70 -123 -55.5 -127 c 128,-1,2
 -41 -131 -41 -131 -22 -131 c 0,3,4
 5 -131 5 -131 24 -120 c 128,-1,5
 43 -109 43 -109 57.5 -89.5 c 128,-1,6
 72 -70 72 -70 81.5 -43 c 128,-1,7
 91 -16 91 -16 99 16 c 2,8,-1
 218 517 l 1,9,-1
 283 517 l 1,10,-1
 166 28 l 2,11,12
 153 -26 153 -26 137.5 -66.5 c 128,-1,13
 122 -107 122 -107 99.5 -134 c 128,-1,14
 77 -161 77 -161 45.5 -174.5 c 128,-1,15
 14 -188 14 -188 -30 -188 c 0,16,17
 -55 -188 -55 -188 -72.5 -182.5 c 128,-1,18
 -90 -177 -90 -177 -101 -170 c 1,19,-1
 -86 -115 l 1,0,1
EndSplineSet
Substitution2: "'case' Case-Sensitive Forms lookup 18 subtable" J
EndChar

StartChar: apostrophe
Encoding: 700 700 350
Width: 236
Flags: W
LayerCount: 2
Fore
SplineSet
188 586 m 1,0,1
 206 609 206 609 221.5 634.5 c 128,-1,2
 237 660 237 660 248.5 685.5 c 128,-1,3
 260 711 260 711 266.5 734.5 c 128,-1,4
 273 758 273 758 274 776 c 1,5,-1
 347 776 l 1,6,7
 336 723 336 723 306.5 673 c 128,-1,8
 277 623 277 623 232 569 c 1,9,-1
 188 586 l 1,0,1
EndSplineSet
EndChar

StartChar: caron
Encoding: 711 711 351
Width: 336
Flags: W
LayerCount: 2
Fore
SplineSet
442 763 m 1,0,-1
 468 730 l 1,1,-1
 299 583 l 1,2,-1
 200 730 l 1,3,-1
 234 763 l 1,4,-1
 315 667 l 1,5,-1
 442 763 l 1,0,-1
EndSplineSet
EndChar

StartChar: breve
Encoding: 728 728 353
Width: 336
Flags: W
LayerCount: 2
Fore
SplineSet
222 746 m 1,0,-1
 264 746 l 1,1,2
 263 741 263 741 263 737 c 128,-1,3
 263 733 263 733 263 729 c 0,4,5
 263 701 263 701 278.5 685 c 128,-1,6
 294 669 294 669 325 669 c 0,7,8
 352 669 352 669 369.5 678.5 c 128,-1,9
 387 688 387 688 398 700.5 c 128,-1,10
 409 713 409 713 414.5 726 c 128,-1,11
 420 739 420 739 422 746 c 1,12,-1
 464 746 l 1,13,14
 456 677 456 677 416.5 645 c 128,-1,15
 377 613 377 613 316 613 c 0,16,17
 267 613 267 613 242.5 641.5 c 128,-1,18
 218 670 218 670 218 713 c 0,19,20
 218 720 218 720 219 728.5 c 128,-1,21
 220 737 220 737 222 746 c 1,0,-1
EndSplineSet
EndChar

StartChar: dotaccent
Encoding: 729 729 354
Width: 336
Flags: W
LayerCount: 2
Fore
SplineSet
316 621 m 256,0,1
 290 621 290 621 279 635 c 128,-1,2
 268 649 268 649 268 667 c 0,3,4
 268 688 268 688 282.5 707 c 128,-1,5
 297 726 297 726 323 726 c 256,6,7
 349 726 349 726 360 712 c 128,-1,8
 371 698 371 698 371 680 c 0,9,10
 371 659 371 659 356.5 640 c 128,-1,11
 342 621 342 621 316 621 c 256,0,1
EndSplineSet
EndChar

StartChar: ring
Encoding: 730 730 355
Width: 336
Flags: W
LayerCount: 2
Fore
SplineSet
409 676 m 0,0,1
 409 654 409 654 401.5 636.5 c 128,-1,2
 394 619 394 619 381 606.5 c 128,-1,3
 368 594 368 594 350.5 587 c 128,-1,4
 333 580 333 580 314 580 c 0,5,6
 275 580 275 580 246.5 606 c 128,-1,7
 218 632 218 632 218 676 c 0,8,9
 218 719 218 719 246.5 745 c 128,-1,10
 275 771 275 771 314 771 c 0,11,12
 333 771 333 771 350.5 764 c 128,-1,13
 368 757 368 757 381 744.5 c 128,-1,14
 394 732 394 732 401.5 714.5 c 128,-1,15
 409 697 409 697 409 676 c 0,0,1
371 676 m 0,16,17
 371 704 371 704 354.5 719.5 c 128,-1,18
 338 735 338 735 314 735 c 256,19,20
 290 735 290 735 273.5 719.5 c 128,-1,21
 257 704 257 704 257 676 c 0,22,23
 257 647 257 647 273.5 632 c 128,-1,24
 290 617 290 617 314 617 c 256,25,26
 338 617 338 617 354.5 632 c 128,-1,27
 371 647 371 647 371 676 c 0,16,17
EndSplineSet
EndChar

StartChar: ogonek
Encoding: 731 731 356
Width: 336
Flags: W
LayerCount: 2
Fore
SplineSet
49 -122 m 0,0,1
 49 -104 49 -104 58.5 -86 c 128,-1,2
 68 -68 68 -68 83 -52 c 128,-1,3
 98 -36 98 -36 115.5 -21.5 c 128,-1,4
 133 -7 133 -7 150 4 c 1,5,-1
 217 4 l 1,6,7
 158 -34 158 -34 134.5 -60.5 c 128,-1,8
 111 -87 111 -87 111 -107 c 0,9,10
 111 -119 111 -119 119.5 -125 c 128,-1,11
 128 -131 128 -131 140.5 -133 c 128,-1,12
 153 -135 153 -135 166 -133.5 c 128,-1,13
 179 -132 179 -132 188 -130 c 1,14,-1
 181 -179 l 1,15,16
 167 -182 167 -182 154.5 -184 c 128,-1,17
 142 -186 142 -186 128 -186 c 0,18,19
 112 -186 112 -186 98 -183 c 128,-1,20
 84 -180 84 -180 73 -172.5 c 128,-1,21
 62 -165 62 -165 55.5 -153 c 128,-1,22
 49 -141 49 -141 49 -122 c 0,0,1
EndSplineSet
EndChar

StartChar: hungarumlaut
Encoding: 733 733 357
Width: 336
Flags: W
LayerCount: 2
Fore
SplineSet
188 582 m 1,0,-1
 158 615 l 1,1,-1
 301 773 l 1,2,-1
 346 725 l 1,3,-1
 188 582 l 1,0,-1
345 582 m 1,4,-1
 315 615 l 1,5,-1
 458 773 l 1,6,-1
 503 725 l 1,7,-1
 345 582 l 1,4,-1
EndSplineSet
EndChar

StartChar: fraction
Encoding: 8260 8260 366
Width: 171
Flags: W
LayerCount: 2
Fore
SplineSet
421 693 m 1,0,-1
 491 693 l 1,1,-1
 -70 0 l 1,2,-1
 -140 0 l 1,3,-1
 421 693 l 1,0,-1
EndSplineSet
EndChar

StartChar: zerosuperior
Encoding: 8304 8304 367
Width: 363
Flags: W
LayerCount: 2
Fore
SplineSet
145 432 m 0,0,1
 145 498 145 498 163 549.5 c 128,-1,2
 181 601 181 601 209 636 c 128,-1,3
 237 671 237 671 271.5 689.5 c 128,-1,4
 306 708 306 708 339 708 c 0,5,6
 360 708 360 708 380.5 700.5 c 128,-1,7
 401 693 401 693 417 678 c 128,-1,8
 433 663 433 663 443 639.5 c 128,-1,9
 453 616 453 616 453 584 c 0,10,11
 453 518 453 518 435 466.5 c 128,-1,12
 417 415 417 415 389 380 c 128,-1,13
 361 345 361 345 326.5 326.5 c 128,-1,14
 292 308 292 308 259 308 c 0,15,16
 238 308 238 308 217.5 315.5 c 128,-1,17
 197 323 197 323 181 338 c 128,-1,18
 165 353 165 353 155 376.5 c 128,-1,19
 145 400 145 400 145 432 c 0,0,1
396 573 m 0,20,21
 396 615 396 615 382 637 c 128,-1,22
 368 659 368 659 333 659 c 256,23,24
 298 659 298 659 273.5 635 c 128,-1,25
 249 611 249 611 233 576.5 c 128,-1,26
 217 542 217 542 209.5 505 c 128,-1,27
 202 468 202 468 202 443 c 0,28,29
 202 401 202 401 216 379 c 128,-1,30
 230 357 230 357 265 357 c 0,31,32
 299 357 299 357 324 381 c 128,-1,33
 349 405 349 405 365 439.5 c 128,-1,34
 381 474 381 474 388.5 510.5 c 128,-1,35
 396 547 396 547 396 573 c 0,20,21
EndSplineSet
Substitution2: "Single Substitution lookup 27 subtable" zeroinferior
Substitution2: "'sinf' Scientific Inferiors lookup 13 subtable" zero.sinf
Substitution2: "'subs' Subscript lookup 12 subtable" zero.sinf
Substitution2: "'sups' Superscript lookup 11 subtable" zero.sups
Substitution2: "'dnom' Denominators lookup 10 subtable" zeroinferior
EndChar

StartChar: foursuperior
Encoding: 8308 8308 368
Width: 363
Flags: W
LayerCount: 2
Fore
SplineSet
137 413 m 1,0,-1
 145 446 l 1,1,2
 161 471 161 471 190 506 c 128,-1,3
 219 541 219 541 254 577 c 128,-1,4
 289 613 289 613 327 645.5 c 128,-1,5
 365 678 365 678 398 699 c 1,6,-1
 445 699 l 1,7,-1
 387 457 l 1,8,-1
 435 457 l 1,9,-1
 424 413 l 1,10,-1
 377 413 l 1,11,-1
 354 317 l 1,12,-1
 301 317 l 1,13,-1
 323 413 l 1,14,-1
 137 413 l 1,0,-1
335 457 m 1,15,-1
 378 637 l 1,16,17
 332 601 332 601 286.5 553.5 c 128,-1,18
 241 506 241 506 204 457 c 1,19,-1
 335 457 l 1,15,-1
EndSplineSet
Substitution2: "Single Substitution lookup 27 subtable" fourinferior
Substitution2: "'sinf' Scientific Inferiors lookup 13 subtable" four.sinf
Substitution2: "'subs' Subscript lookup 12 subtable" four.sinf
Substitution2: "'sups' Superscript lookup 11 subtable" four.sups
Substitution2: "'dnom' Denominators lookup 10 subtable" fourinferior
EndChar

StartChar: fivesuperior
Encoding: 8309 8309 369
Width: 363
Flags: W
LayerCount: 2
Fore
SplineSet
151 377 m 1,0,1
 171 366 171 366 196.5 360.5 c 128,-1,2
 222 355 222 355 248 355 c 0,3,4
 270 355 270 355 291 359.5 c 128,-1,5
 312 364 312 364 328 374 c 128,-1,6
 344 384 344 384 353.5 400 c 128,-1,7
 363 416 363 416 363 438 c 0,8,9
 363 453 363 453 357.5 465.5 c 128,-1,10
 352 478 352 478 335 487.5 c 128,-1,11
 318 497 318 497 285.5 502.5 c 128,-1,12
 253 508 253 508 199 509 c 1,13,14
 216 554 216 554 232 599.5 c 128,-1,15
 248 645 248 645 263 699 c 1,16,-1
 463 699 l 1,17,-1
 450 651 l 1,18,-1
 298 651 l 1,19,20
 292 630 292 630 282 601 c 128,-1,21
 272 572 272 572 263 552 c 1,22,23
 342 547 342 547 379.5 523 c 128,-1,24
 417 499 417 499 417 442 c 0,25,26
 417 406 417 406 402 380.5 c 128,-1,27
 387 355 387 355 362 339.5 c 128,-1,28
 337 324 337 324 304.5 316.5 c 128,-1,29
 272 309 272 309 238 309 c 0,30,31
 171 309 171 309 130 331 c 1,32,-1
 151 377 l 1,0,1
EndSplineSet
Substitution2: "Single Substitution lookup 27 subtable" fiveinferior
Substitution2: "'sinf' Scientific Inferiors lookup 13 subtable" five.sinf
Substitution2: "'subs' Subscript lookup 12 subtable" five.sinf
Substitution2: "'sups' Superscript lookup 11 subtable" five.sups
Substitution2: "'dnom' Denominators lookup 10 subtable" fiveinferior
EndChar

StartChar: sixsuperior
Encoding: 8310 8310 370
Width: 363
Flags: W
LayerCount: 2
Fore
SplineSet
449 655 m 1,0,1
 367 654 367 654 312.5 620.5 c 128,-1,2
 258 587 258 587 233 533 c 1,3,4
 256 543 256 543 281 549 c 128,-1,5
 306 555 306 555 329 555 c 0,6,7
 356 555 356 555 375.5 546.5 c 128,-1,8
 395 538 395 538 408 523.5 c 128,-1,9
 421 509 421 509 427 490.5 c 128,-1,10
 433 472 433 472 433 452 c 0,11,12
 433 417 433 417 421 390.5 c 128,-1,13
 409 364 409 364 388.5 345.5 c 128,-1,14
 368 327 368 327 340.5 317.5 c 128,-1,15
 313 308 313 308 282 308 c 0,16,17
 257 308 257 308 234.5 315 c 128,-1,18
 212 322 212 322 195.5 337.5 c 128,-1,19
 179 353 179 353 169.5 377 c 128,-1,20
 160 401 160 401 160 436 c 0,21,22
 160 497 160 497 183 546 c 128,-1,23
 206 595 206 595 246 629.5 c 128,-1,24
 286 664 286 664 339.5 682.5 c 128,-1,25
 393 701 393 701 453 703 c 1,26,-1
 449 655 l 1,0,1
313 511 m 0,27,28
 287 511 287 511 262.5 504 c 128,-1,29
 238 497 238 497 218 489 c 1,30,31
 216 477 216 477 214.5 464 c 128,-1,32
 213 451 213 451 213 437 c 256,33,34
 213 423 213 423 216.5 408 c 128,-1,35
 220 393 220 393 228 381 c 128,-1,36
 236 369 236 369 249.5 361.5 c 128,-1,37
 263 354 263 354 283 354 c 0,38,39
 306 354 306 354 323.5 362 c 128,-1,40
 341 370 341 370 353 382.5 c 128,-1,41
 365 395 365 395 371 411.5 c 128,-1,42
 377 428 377 428 377 446 c 0,43,44
 377 511 377 511 313 511 c 0,27,28
EndSplineSet
Substitution2: "Single Substitution lookup 27 subtable" sixinferior
Substitution2: "'sinf' Scientific Inferiors lookup 13 subtable" six.sinf
Substitution2: "'subs' Subscript lookup 12 subtable" six.sinf
Substitution2: "'sups' Superscript lookup 11 subtable" six.sups
Substitution2: "'dnom' Denominators lookup 10 subtable" sixinferior
EndChar

StartChar: sevensuperior
Encoding: 8311 8311 371
Width: 363
Flags: W
LayerCount: 2
Fore
SplineSet
190 317 m 1,0,1
 205 362 205 362 228.5 408.5 c 128,-1,2
 252 455 252 455 281 499 c 128,-1,3
 310 543 310 543 342 581.5 c 128,-1,4
 374 620 374 620 405 649 c 1,5,-1
 212 649 l 1,6,-1
 224 699 l 1,7,-1
 490 699 l 1,8,-1
 481 660 l 1,9,10
 459 642 459 642 427 608.5 c 128,-1,11
 395 575 395 575 361 530 c 128,-1,12
 327 485 327 485 295.5 431 c 128,-1,13
 264 377 264 377 243 317 c 1,14,-1
 190 317 l 1,0,1
EndSplineSet
Substitution2: "Single Substitution lookup 27 subtable" seveninferior
Substitution2: "'sinf' Scientific Inferiors lookup 13 subtable" seven.sinf
Substitution2: "'subs' Subscript lookup 12 subtable" seven.sinf
Substitution2: "'sups' Superscript lookup 11 subtable" seven.sups
Substitution2: "'dnom' Denominators lookup 10 subtable" seveninferior
EndChar

StartChar: eightsuperior
Encoding: 8312 8312 372
Width: 363
Flags: W
LayerCount: 2
Fore
SplineSet
151 397 m 0,0,1
 151 429 151 429 174.5 462.5 c 128,-1,2
 198 496 198 496 249 516 c 1,3,4
 230 527 230 527 218 542 c 128,-1,5
 206 557 206 557 206 583 c 256,6,7
 206 609 206 609 218 632 c 128,-1,8
 230 655 230 655 251 672 c 128,-1,9
 272 689 272 689 299.5 698.5 c 128,-1,10
 327 708 327 708 358 708 c 0,11,12
 409 708 409 708 433.5 684.5 c 128,-1,13
 458 661 458 661 458 629 c 256,14,15
 458 597 458 597 436.5 564.5 c 128,-1,16
 415 532 415 532 374 511 c 1,17,18
 395 500 395 500 410 483.5 c 128,-1,19
 425 467 425 467 425 439 c 0,20,21
 425 408 425 408 411 383.5 c 128,-1,22
 397 359 397 359 373.5 342.5 c 128,-1,23
 350 326 350 326 320.5 317 c 128,-1,24
 291 308 291 308 261 308 c 0,25,26
 205 308 205 308 178 334.5 c 128,-1,27
 151 361 151 361 151 397 c 0,0,1
373 430 m 0,28,29
 373 445 373 445 365 455.5 c 128,-1,30
 357 466 357 466 344.5 474 c 128,-1,31
 332 482 332 482 315.5 488 c 128,-1,32
 299 494 299 494 283 500 c 1,33,34
 269 494 269 494 254.5 485 c 128,-1,35
 240 476 240 476 228.5 464 c 128,-1,36
 217 452 217 452 210 437 c 128,-1,37
 203 422 203 422 203 404 c 0,38,39
 203 395 203 395 206 385.5 c 128,-1,40
 209 376 209 376 217 369 c 128,-1,41
 225 362 225 362 238.5 357.5 c 128,-1,42
 252 353 252 353 272 353 c 0,43,44
 299 353 299 353 318 360 c 128,-1,45
 337 367 337 367 349 378.5 c 128,-1,46
 361 390 361 390 367 403.5 c 128,-1,47
 373 417 373 417 373 430 c 0,28,29
258 587 m 0,48,49
 258 574 258 574 264.5 565 c 128,-1,50
 271 556 271 556 282 549.5 c 128,-1,51
 293 543 293 543 307 537.5 c 128,-1,52
 321 532 321 532 336 526 c 1,53,54
 348 532 348 532 360.5 541.5 c 128,-1,55
 373 551 373 551 383.5 562.5 c 128,-1,56
 394 574 394 574 400.5 588 c 128,-1,57
 407 602 407 602 407 619 c 0,58,59
 407 637 407 637 393 650.5 c 128,-1,60
 379 664 379 664 347 664 c 0,61,62
 306 664 306 664 282 642 c 128,-1,63
 258 620 258 620 258 587 c 0,48,49
EndSplineSet
Substitution2: "Single Substitution lookup 27 subtable" eightinferior
Substitution2: "'sinf' Scientific Inferiors lookup 13 subtable" eight.sinf
Substitution2: "'subs' Subscript lookup 12 subtable" eight.sinf
Substitution2: "'sups' Superscript lookup 11 subtable" eight.sups
Substitution2: "'dnom' Denominators lookup 10 subtable" eightinferior
EndChar

StartChar: ninesuperior
Encoding: 8313 8313 373
Width: 363
Flags: W
LayerCount: 2
Fore
SplineSet
158 363 m 1,0,1
 250 363 250 363 306 395.5 c 128,-1,2
 362 428 362 428 386 484 c 1,3,4
 361 473 361 473 336 467 c 128,-1,5
 311 461 311 461 288 461 c 0,6,7
 261 461 261 461 241.5 469.5 c 128,-1,8
 222 478 222 478 209 492 c 128,-1,9
 196 506 196 506 190 525 c 128,-1,10
 184 544 184 544 184 564 c 0,11,12
 184 598 184 598 196 625 c 128,-1,13
 208 652 208 652 228.5 670.5 c 128,-1,14
 249 689 249 689 276.5 698.5 c 128,-1,15
 304 708 304 708 335 708 c 0,16,17
 360 708 360 708 382.5 701 c 128,-1,18
 405 694 405 694 421.5 679 c 128,-1,19
 438 664 438 664 447.5 639.5 c 128,-1,20
 457 615 457 615 457 580 c 0,21,22
 457 518 457 518 435 469 c 128,-1,23
 413 420 413 420 372.5 386 c 128,-1,24
 332 352 332 352 275.5 333.5 c 128,-1,25
 219 315 219 315 150 315 c 1,26,-1
 158 363 l 1,0,1
304 505 m 0,27,28
 330 505 330 505 354.5 511.5 c 128,-1,29
 379 518 379 518 399 526 c 1,30,31
 402 539 402 539 403 552 c 128,-1,32
 404 565 404 565 404 579 c 0,33,34
 404 594 404 594 400.5 609 c 128,-1,35
 397 624 397 624 389 635.5 c 128,-1,36
 381 647 381 647 367.5 654.5 c 128,-1,37
 354 662 354 662 334 662 c 0,38,39
 311 662 311 662 293.5 654 c 128,-1,40
 276 646 276 646 264 633.5 c 128,-1,41
 252 621 252 621 246 604.5 c 128,-1,42
 240 588 240 588 240 570 c 0,43,44
 240 505 240 505 304 505 c 0,27,28
EndSplineSet
Substitution2: "Single Substitution lookup 27 subtable" nineinferior
Substitution2: "'sinf' Scientific Inferiors lookup 13 subtable" nine.sinf
Substitution2: "'subs' Subscript lookup 12 subtable" nine.sinf
Substitution2: "'sups' Superscript lookup 11 subtable" nine.sups
Substitution2: "'dnom' Denominators lookup 10 subtable" nineinferior
EndChar

StartChar: afii61289
Encoding: 8467 8467 384
Width: 418
Flags: W
LayerCount: 2
Fore
SplineSet
72 174 m 1,0,-1
 179 250 l 1,1,-1
 179 477 l 2,2,3
 179 572 179 572 188.5 630.5 c 128,-1,4
 198 689 198 689 216.5 721.5 c 128,-1,5
 235 754 235 754 263.5 765 c 128,-1,6
 292 776 292 776 330 776 c 0,7,8
 373 776 373 776 397 759.5 c 128,-1,9
 421 743 421 743 433 718.5 c 128,-1,10
 445 694 445 694 448 665.5 c 128,-1,11
 451 637 451 637 451 613 c 0,12,13
 451 500 451 500 395 409 c 128,-1,14
 339 318 339 318 248 246 c 1,15,-1
 248 197 l 2,16,17
 248 117 248 117 272.5 80 c 128,-1,18
 297 43 297 43 353 43 c 0,19,20
 386 43 386 43 405 54 c 128,-1,21
 424 65 424 65 438 76 c 1,22,-1
 463 20 l 1,23,24
 445 6 445 6 415.5 -5 c 128,-1,25
 386 -16 386 -16 344 -16 c 0,26,27
 288 -16 288 -16 254 2.5 c 128,-1,28
 220 21 220 21 202.5 50.5 c 128,-1,29
 185 80 185 80 180 115.5 c 128,-1,30
 175 151 175 151 178 185 c 1,31,-1
 102 131 l 1,32,-1
 72 174 l 1,0,-1
248 304 m 1,33,34
 317 363 317 363 355.5 436 c 128,-1,35
 394 509 394 509 394 612 c 0,36,37
 394 628 394 628 392 646 c 128,-1,38
 390 664 390 664 383 679 c 128,-1,39
 376 694 376 694 363.5 704 c 128,-1,40
 351 714 351 714 329 714 c 0,41,42
 313 714 313 714 298.5 708.5 c 128,-1,43
 284 703 284 703 272.5 687 c 128,-1,44
 261 671 261 671 254.5 641 c 128,-1,45
 248 611 248 611 248 562 c 2,46,-1
 248 304 l 1,33,34
EndSplineSet
EndChar

StartChar: estimated
Encoding: 8494 8494 385
Width: 932
Flags: W
LayerCount: 2
Fore
SplineSet
306 136 m 2,0,1
 306 123 306 123 315 114 c 0,2,3
 363 63 363 63 425 35 c 128,-1,4
 487 7 487 7 560 7 c 0,5,6
 639 7 639 7 705 39.5 c 128,-1,7
 771 72 771 72 819 126 c 1,8,-1
 876 126 l 1,9,10
 850 94 850 94 815.5 68.5 c 128,-1,11
 781 43 781 43 740 25 c 128,-1,12
 699 7 699 7 653 -3 c 128,-1,13
 607 -13 607 -13 559 -13 c 0,14,15
 476 -13 476 -13 403 15.5 c 128,-1,16
 330 44 330 44 276 92.5 c 128,-1,17
 222 141 222 141 190.5 206.5 c 128,-1,18
 159 272 159 272 159 347 c 256,19,20
 159 422 159 422 190.5 487.5 c 128,-1,21
 222 553 222 553 276 602 c 128,-1,22
 330 651 330 651 403 679.5 c 128,-1,23
 476 708 476 708 559 708 c 256,24,25
 642 708 642 708 715.5 679.5 c 128,-1,26
 789 651 789 651 843.5 602 c 128,-1,27
 898 553 898 553 929.5 487.5 c 128,-1,28
 961 422 961 422 961 347 c 2,29,-1
 961 337 l 1,30,-1
 311 337 l 2,31,32
 306 337 306 337 306 333 c 2,33,-1
 306 136 l 2,0,1
809 356 m 2,34,35
 813 356 813 356 813 363 c 2,36,-1
 813 560 l 2,37,38
 813 573 813 573 804 584 c 0,39,40
 756 632 756 632 694 659 c 128,-1,41
 632 686 632 686 560 686 c 0,42,43
 489 686 489 686 426 657 c 128,-1,44
 363 628 363 628 316 580 c 0,45,46
 311 576 311 576 308.5 569.5 c 128,-1,47
 306 563 306 563 306 556 c 2,48,-1
 306 363 l 2,49,50
 306 356 306 356 311 356 c 2,51,-1
 809 356 l 2,34,35
EndSplineSet
EndChar

StartChar: partialdiff
Encoding: 8706 8706 410
Width: 548
Flags: W
LayerCount: 2
Fore
SplineSet
509 378 m 1,0,1
 485 409 485 409 448 421.5 c 128,-1,2
 411 434 411 434 375 434 c 0,3,4
 323 434 323 434 283 413.5 c 128,-1,5
 243 393 243 393 215.5 358.5 c 128,-1,6
 188 324 188 324 173.5 277.5 c 128,-1,7
 159 231 159 231 159 179 c 0,8,9
 159 117 159 117 185 82 c 128,-1,10
 211 47 211 47 264 47 c 0,11,12
 325 47 325 47 367.5 78.5 c 128,-1,13
 410 110 410 110 439 159 c 128,-1,14
 468 208 468 208 484.5 266 c 128,-1,15
 501 324 501 324 509 378 c 1,0,1
224 749 m 1,16,17
 284 776 284 776 359 776 c 0,18,19
 471 776 471 776 529.5 708.5 c 128,-1,20
 588 641 588 641 588 510 c 0,21,22
 588 455 588 455 580.5 395 c 128,-1,23
 573 335 573 335 556.5 277 c 128,-1,24
 540 219 540 219 515 166.5 c 128,-1,25
 490 114 490 114 454.5 74 c 128,-1,26
 419 34 419 34 372.5 10.5 c 128,-1,27
 326 -13 326 -13 268 -13 c 0,28,29
 221 -13 221 -13 188 3 c 128,-1,30
 155 19 155 19 133 46 c 128,-1,31
 111 73 111 73 101 107 c 128,-1,32
 91 141 91 141 91 177 c 0,33,34
 91 243 91 243 111.5 300.5 c 128,-1,35
 132 358 132 358 169.5 401 c 128,-1,36
 207 444 207 444 260.5 469 c 128,-1,37
 314 494 314 494 380 494 c 0,38,39
 409 494 409 494 432 488.5 c 128,-1,40
 455 483 455 483 472 475.5 c 128,-1,41
 489 468 489 468 500 459.5 c 128,-1,42
 511 451 511 451 516 445 c 1,43,44
 517 458 517 458 518 470.5 c 128,-1,45
 519 483 519 483 519 497 c 0,46,47
 519 537 519 537 511.5 576.5 c 128,-1,48
 504 616 504 616 484.5 647 c 128,-1,49
 465 678 465 678 431 697 c 128,-1,50
 397 716 397 716 344 716 c 0,51,52
 309 716 309 716 282 710.5 c 128,-1,53
 255 705 255 705 232 695 c 1,54,-1
 224 749 l 1,16,17
EndSplineSet
EndChar

StartChar: product
Encoding: 8719 8719 412
Width: 677
Flags: W
LayerCount: 2
Fore
SplineSet
245 693 m 1,0,-1
 734 693 l 1,1,-1
 541 -109 l 1,2,-1
 473 -109 l 1,3,-1
 651 634 l 1,4,-1
 299 634 l 1,5,-1
 121 -109 l 1,6,-1
 53 -109 l 1,7,-1
 245 693 l 1,0,-1
EndSplineSet
EndChar

StartChar: summation
Encoding: 8721 8721 413
Width: 466
Flags: W
LayerCount: 2
Fore
SplineSet
2 -51 m 1,0,1
 71 35 71 35 153.5 128.5 c 128,-1,2
 236 222 236 222 327 316 c 1,3,4
 301 367 301 367 277.5 416.5 c 128,-1,5
 254 466 254 466 234.5 510 c 128,-1,6
 215 554 215 554 200.5 590 c 128,-1,7
 186 626 186 626 177 651 c 1,8,-1
 186 693 l 1,9,-1
 628 693 l 1,10,-1
 612 634 l 1,11,-1
 251 634 l 1,12,13
 265 598 265 598 276 569.5 c 128,-1,14
 287 541 287 541 297.5 517 c 128,-1,15
 308 493 308 493 318 470.5 c 128,-1,16
 328 448 328 448 340 423.5 c 128,-1,17
 352 399 352 399 366.5 370.5 c 128,-1,18
 381 342 381 342 400 305 c 1,19,20
 317 218 317 218 236 132.5 c 128,-1,21
 155 47 155 47 75 -50 c 1,22,-1
 451 -50 l 1,23,-1
 437 -109 l 1,24,-1
 -12 -109 l 1,25,-1
 2 -51 l 1,0,1
EndSplineSet
EndChar

